<svg width="45" height="44" viewBox="0 0 45 44" fill="none" xmlns="http://www.w3.org/2000/svg">
<path d="M42.612 10.1766C42.612 5.61452 38.9002 1.90268 34.3381 1.90268C31.2 1.90268 28.4222 3.67236 27.0258 6.35523C25.578 5.96879 24.0651 5.74288 22.4971 5.74288C20.9944 5.74288 19.5433 5.95244 18.15 6.30847C16.7097 3.64144 13.9202 1.88672 10.7838 1.88672C6.15422 1.88672 2.3877 5.65262 2.3877 10.2822C2.3877 13.071 3.80387 15.6332 6.03379 17.1762C5.31118 19.0986 4.89708 21.1709 4.89708 23.3428C4.89708 28.1346 6.82717 32.4804 9.94438 35.6573L6.70724 38.8945C5.97068 39.6304 5.97068 40.825 6.70724 41.561C7.4438 42.2976 8.6372 42.2976 9.37376 41.561L12.8739 38.0609C15.6424 39.8772 18.9457 40.9429 22.4971 40.9429C26.0486 40.9429 29.3522 39.8771 32.1208 38.0606L35.6217 41.561C36.3576 42.2969 37.5521 42.2982 38.2882 41.561C39.0247 40.8245 39.0247 39.6306 38.2882 38.8945L35.0503 35.657C38.1672 32.48 40.0972 28.1345 40.0972 23.3429C40.0972 21.12 39.6659 19.0003 38.9106 17.0403C41.1702 15.5265 42.612 12.9652 42.612 10.1766ZM6.15912 10.2822C6.15912 7.73231 8.23391 5.65815 10.7838 5.65815C12.3318 5.65815 13.7315 6.43079 14.5777 7.64682C11.798 9.05507 9.44127 11.1715 7.74966 13.7679C6.75803 12.9117 6.15912 11.6639 6.15912 10.2822ZM22.4971 37.1713C14.872 37.1713 8.66851 30.9678 8.66851 23.3428C8.66851 15.7177 14.872 9.51418 22.4971 9.51418C30.1222 9.51418 36.3257 15.7177 36.3257 23.3428C36.3257 30.9678 30.1222 37.1713 22.4971 37.1713ZM37.1785 13.6594C35.5223 11.1568 33.2435 9.10737 30.5655 7.71873C31.3754 6.47089 32.7785 5.67411 34.3381 5.67411C36.8211 5.67411 38.8406 7.69359 38.8406 10.1766C38.8406 11.5456 38.2048 12.818 37.1785 13.6594Z" fill="#059649"/>
<path d="M24.3828 21.2601V16.3598C24.3828 15.3182 23.5387 14.4741 22.497 14.4741C21.4554 14.4741 20.6113 15.3182 20.6113 16.3598V22.0409C20.6113 22.5411 20.8102 23.0206 21.1638 23.3741L26.7971 29.0073C27.5337 29.7439 28.7269 29.744 29.4636 29.0073C30.2002 28.2714 30.2002 27.0769 29.4636 26.3408L24.3828 21.2601Z" fill="#059649"/>
</svg>
