<svg width="16" height="16" viewBox="0 0 16 16" fill="none" xmlns="http://www.w3.org/2000/svg">
<path d="M12.1233 13.93L12.1228 13.9297L8.87143 12.1241C8.60763 11.9748 8.29269 11.9151 8.00588 11.9151C7.71776 11.9151 7.40217 11.9753 7.13671 12.1233C7.13664 12.1233 7.13658 12.1234 7.13651 12.1234L3.88554 13.9288C3.88535 13.9289 3.88516 13.929 3.88497 13.9291C3.45481 14.1658 3.17339 14.1253 3.02878 14.0401C2.88449 13.9551 2.71338 13.7296 2.71338 13.2401V3.84677C2.71338 2.70958 3.64952 1.77344 4.78671 1.77344H11.2134C12.3556 1.77344 13.2874 2.70817 13.2934 3.84798V13.2401C13.2934 13.7343 13.1214 13.9606 12.978 14.0451C12.8348 14.1294 12.5543 14.17 12.1233 13.93Z" fill="white" stroke="#969DB8"/>
</svg>
