<svg width="80" height="80" viewBox="0 0 80 80" fill="none" xmlns="http://www.w3.org/2000/svg">
<g clip-path="url(#clip0_1342_12948)">
<path d="M79.5133 33.8199L46.1813 0.48768C45.8681 0.175348 45.4436 0.000197944 45.0013 0.000979165H1.66963C0.749193 -0.000583277 0.00172127 0.744233 2.5861e-06 1.66467C-0.000778635 2.1084 0.175465 2.53417 0.489672 2.84759L77.1534 79.5115C77.4665 79.8238 77.891 79.999 78.3333 79.9982C78.5518 79.998 78.7682 79.955 78.97 79.8715C79.5933 79.6138 79.9998 79.006 80 78.3315V34.9998C80.0008 34.5575 79.8258 34.133 79.5133 33.8199Z" fill="url(#paint0_linear_1342_12948)"/>
<path d="M34.0025 21.0441L42.4592 13.051L44.3911 15.095L40.9969 18.3031L44.1465 21.6354L47.5407 18.4273L49.4687 20.4671L41.0121 28.4602L39.084 26.4204L42.4824 23.2083L39.3328 19.876L35.9344 23.0881L34.0025 21.0441ZM53.9965 33.7276C53.0661 34.607 52.1083 35.1736 51.1231 35.4271C50.1379 35.6807 49.1886 35.6607 48.2751 35.367C47.3643 35.076 46.5511 34.5521 45.8355 33.795C45.1174 33.0353 44.6401 32.1912 44.4037 31.2628C44.1673 30.3343 44.202 29.3868 44.5079 28.4201C44.8192 27.4535 45.4387 26.5318 46.3664 25.6549C47.2968 24.7755 48.2534 24.2076 49.2359 23.9513C50.2211 23.6977 51.1691 23.7164 52.08 24.0073C52.9908 24.2982 53.8053 24.8236 54.5235 25.5834C55.239 26.3404 55.7163 27.1818 55.9555 28.1076C56.1973 29.0362 56.1639 29.9851 55.8552 30.9544C55.5465 31.9238 54.927 32.8481 53.9965 33.7276ZM52.0217 31.6382C52.5722 31.1178 52.9633 30.5996 53.1949 30.0837C53.4291 29.5704 53.506 29.0756 53.4256 28.599C53.3479 28.1252 53.1165 27.6846 52.7314 27.2772C52.3489 26.8726 51.922 26.6167 51.4508 26.5096C50.9795 26.4026 50.4798 26.4501 49.9516 26.6523C49.426 26.8572 48.8879 27.2198 48.3373 27.7402C47.7868 28.2606 47.3944 28.7774 47.1602 29.2906C46.9286 29.8066 46.853 30.3028 46.9334 30.7794C47.0137 31.2559 47.2452 31.6965 47.6276 32.1012C48.0127 32.5086 48.4396 32.7645 48.9082 32.8688C49.3795 32.9758 49.8779 32.9269 50.4035 32.722C50.9317 32.5199 51.4711 32.1586 52.0217 31.6382ZM57.0664 31.8306L58.7264 30.2617L65.4823 37.4094L63.8223 38.9783L61.3986 36.4141L54.6019 42.8382L52.6973 40.8231L59.494 34.399L57.0664 31.8306Z" fill="white"/>
</g>
<defs>
<linearGradient id="paint0_linear_1342_12948" x1="22.1383" y1="4.9966" x2="62.1417" y2="65.7184" gradientUnits="userSpaceOnUse">
<stop stop-color="#FF5023"/>
<stop offset="1" stop-color="#ED1C24"/>
</linearGradient>
<clipPath id="clip0_1342_12948">
<rect width="80" height="80" fill="white"/>
</clipPath>
</defs>
</svg>
