<svg width="80" height="80" viewBox="0 0 80 80" fill="none" xmlns="http://www.w3.org/2000/svg">
<g clip-path="url(#clip0_1342_12918)">
<path d="M79.5133 33.8199L46.1813 0.48768C45.8681 0.175348 45.4436 0.000197944 45.0013 0.000979165H1.66963C0.749193 -0.000583277 0.00172127 0.744233 2.5861e-06 1.66467C-0.000778635 2.1084 0.175465 2.53417 0.489672 2.84759L77.1534 79.5115C77.4665 79.8238 77.891 79.999 78.3333 79.9982C78.5518 79.998 78.7682 79.955 78.97 79.8715C79.5933 79.6138 79.9998 79.006 80 78.3315V34.9998C80.0008 34.5575 79.8258 34.133 79.5133 33.8199Z" fill="url(#paint0_linear_1342_12918)"/>
<path d="M43.4723 13.3431L45.8647 15.8743L42.6584 22.9704L42.752 23.0695L50.0174 20.2678L52.4099 22.799L43.9532 30.7921L42.072 28.8018L47.2666 23.892L47.2002 23.8218L40.1391 26.6493L38.937 25.3775L42.1866 18.4595L42.1203 18.3893L36.8968 23.3265L35.0156 21.3362L43.4723 13.3431ZM61.186 31.3893L62.31 32.5785C61.4869 33.3565 60.6842 33.7894 59.902 33.8772C59.1198 33.965 58.3684 33.6277 57.6476 32.8651L58.5891 31.9753C58.9586 32.3662 59.3516 32.4898 59.7683 32.3461C60.1876 32.2052 60.6602 31.8863 61.186 31.3893ZM56.9308 36.0523C56.0003 36.9317 55.0425 37.4983 54.0574 37.7518C53.0722 38.0054 52.1229 37.9854 51.2094 37.6917C50.2986 37.4007 49.4854 36.8768 48.7698 36.1197C48.0517 35.36 47.5744 34.5159 47.338 33.5875C47.1016 32.659 47.1363 31.7115 47.4422 30.7448C47.7535 29.7782 48.373 28.8565 49.3007 27.9796C50.2311 27.1002 51.1876 26.5323 52.1702 26.276C53.1554 26.0224 54.1034 26.0411 55.0142 26.332C55.9251 26.6229 56.7396 27.1483 57.4577 27.9081C58.1733 28.6651 58.6506 29.5065 58.8898 30.4323C59.1316 31.3609 59.0981 32.3098 58.7895 33.2791C58.4808 34.2485 57.8613 35.1728 56.9308 36.0523ZM54.9559 33.9629C55.5065 33.4425 55.8976 32.9243 56.1292 32.4084C56.3633 31.8951 56.4403 31.4003 56.3599 30.9237C56.2822 30.4499 56.0507 30.0093 55.6657 29.6019C55.2832 29.1973 54.8563 28.9414 54.385 28.8343C53.9138 28.7273 53.4141 28.7748 52.8859 28.977C52.3603 29.1819 51.8222 29.5445 51.2716 30.0649C50.7211 30.5853 50.3287 31.1021 50.0945 31.6153C49.8629 32.1313 49.7873 32.6275 49.8677 33.1041C49.948 33.5806 50.1794 34.0212 50.5619 34.4259C50.947 34.8333 51.3739 35.0892 51.8425 35.1935C52.3138 35.3005 52.8122 35.2516 53.3378 35.0467C53.866 34.8446 54.4054 34.4833 54.9559 33.9629ZM57.4916 26.5626L60.1423 25.6365L61.8323 27.4244L58.7913 27.9376L57.4916 26.5626ZM64.6268 35.7246L56.1702 43.7177L54.2382 41.6737L62.6949 33.6806L64.6268 35.7246Z" fill="white"/>
</g>
<defs>
<linearGradient id="paint0_linear_1342_12918" x1="40" y1="0.000977665" x2="77" y2="70.4995" gradientUnits="userSpaceOnUse">
<stop stop-color="#02B76B"/>
<stop offset="1" stop-color="#00943B"/>
</linearGradient>
<clipPath id="clip0_1342_12918">
<rect width="80" height="80" fill="white"/>
</clipPath>
</defs>
</svg>
