<svg width="68" height="68" viewBox="0 0 68 68" fill="none" xmlns="http://www.w3.org/2000/svg">
<path opacity="0.2" d="M10.625 21.25H23.375V12.75C23.375 12.1864 23.1511 11.6459 22.7526 11.2474C22.3541 10.8489 21.8136 10.625 21.25 10.625H12.75C12.1864 10.625 11.6459 10.8489 11.2474 11.2474C10.8489 11.6459 10.625 12.1864 10.625 12.75V21.25Z" fill="white"/>
<path opacity="0.2" d="M23.375 46.75H36.125V12.75C36.125 12.1864 35.9011 11.6459 35.5026 11.2474C35.1041 10.8489 34.5636 10.625 34 10.625H25.5C24.9364 10.625 24.3959 10.8489 23.9974 11.2474C23.5989 11.6459 23.375 12.1864 23.375 12.75V46.75Z" fill="white"/>
<path opacity="0.2" d="M45.4751 47.6001L57.8001 44.2798L60.0048 52.4876C60.0769 52.7579 60.0949 53.0399 60.0578 53.3172C60.0207 53.5945 59.9291 53.8618 59.7885 54.1037C59.6478 54.3455 59.4607 54.5572 59.238 54.7266C59.0153 54.896 58.7614 55.0197 58.4907 55.0907L50.2829 57.2954C49.7405 57.442 49.1621 57.3678 48.6743 57.089C48.1865 56.8102 47.8289 56.3496 47.6798 55.8079L45.4751 47.6001Z" fill="white"/>
<path opacity="0.2" d="M38.8874 22.95L51.2124 19.6563L49.0077 11.4485C48.8582 10.9057 48.5018 10.4432 48.0152 10.1601C47.5285 9.87707 46.9503 9.79604 46.4046 9.93442L38.1968 12.1391C37.654 12.2886 37.1915 12.645 36.9084 13.1316C36.6254 13.6183 36.5443 14.1965 36.6827 14.7422L38.8874 22.95Z" fill="white"/>
<path d="M21.25 10.625H12.75C11.5764 10.625 10.625 11.5764 10.625 12.75V55.25C10.625 56.4236 11.5764 57.375 12.75 57.375H21.25C22.4236 57.375 23.375 56.4236 23.375 55.25V12.75C23.375 11.5764 22.4236 10.625 21.25 10.625Z" stroke="white" stroke-width="2.5" stroke-linecap="round" stroke-linejoin="round"/>
<path d="M10.625 21.25H23.375" stroke="white" stroke-width="2.5" stroke-linecap="round" stroke-linejoin="round"/>
<path d="M34 10.625H25.5C24.3264 10.625 23.375 11.5764 23.375 12.75V55.25C23.375 56.4236 24.3264 57.375 25.5 57.375H34C35.1736 57.375 36.125 56.4236 36.125 55.25V12.75C36.125 11.5764 35.1736 10.625 34 10.625Z" stroke="white" stroke-width="2.5" stroke-linecap="round" stroke-linejoin="round"/>
<path d="M23.375 46.75H36.125" stroke="white" stroke-width="2.5" stroke-linecap="round" stroke-linejoin="round"/>
<path d="M46.3899 9.94463L38.1795 12.1446C37.0459 12.4483 36.3732 13.6136 36.6769 14.7472L47.6768 55.799C47.9805 56.9326 49.1457 57.6054 50.2793 57.3016L58.4897 55.1017C59.6233 54.7979 60.2961 53.6327 59.9923 52.4991L48.9925 11.4472C48.6887 10.3136 47.5235 9.64088 46.3899 9.94463Z" stroke="white" stroke-width="2.5" stroke-linecap="round" stroke-linejoin="round"/>
<path d="M45.4751 47.6001L57.8001 44.2798" stroke="white" stroke-width="2.5" stroke-linecap="round" stroke-linejoin="round"/>
<path d="M38.8877 22.95L51.2127 19.6562" stroke="white" stroke-width="2.5" stroke-linecap="round" stroke-linejoin="round"/>
</svg>
