<svg width="28" height="28" viewBox="0 0 28 28" fill="none" xmlns="http://www.w3.org/2000/svg">
<path opacity="0.2" d="M4.375 8.75H9.625V5.25C9.625 5.01794 9.53281 4.79538 9.36872 4.63128C9.20462 4.46719 8.98206 4.375 8.75 4.375H5.25C5.01794 4.375 4.79538 4.46719 4.63128 4.63128C4.46719 4.79538 4.375 5.01794 4.375 5.25V8.75Z" fill="#005ED3"/>
<path opacity="0.2" d="M14.125 5.25V18.5H10.375V5.25C10.375 5.21685 10.3882 5.18505 10.4116 5.16161C10.4351 5.13817 10.4668 5.125 10.5 5.125H14C14.0332 5.125 14.0649 5.13817 14.0884 5.16161C14.1118 5.18505 14.125 5.21685 14.125 5.25Z" fill="#005ED3" stroke="#005ED3" stroke-width="1.5"/>
<path opacity="0.2" d="M23.9704 21.9005L23.9704 21.9005C23.9621 21.9147 23.9511 21.9271 23.938 21.9371C23.9249 21.9471 23.91 21.9543 23.8941 21.9585L23.8941 21.9585L23.8898 21.9597L20.5101 22.8675L20.509 22.8678C20.4771 22.8764 20.4431 22.872 20.4144 22.8556C20.3861 22.8394 20.3652 22.8128 20.3562 22.7815L19.6437 20.1288L23.2704 19.1518L23.9831 21.8054C23.9831 21.8055 23.9832 21.8056 23.9832 21.8057C23.9874 21.8215 23.9884 21.838 23.9862 21.8542C23.9841 21.8705 23.9787 21.8862 23.9704 21.9005Z" fill="#005ED3" stroke="#005ED3" stroke-width="1.5"/>
<path opacity="0.2" d="M16.0125 9.45003L21.0875 8.09378L20.1797 4.7141C20.1181 4.4906 19.9714 4.30015 19.771 4.1836C19.5706 4.06704 19.3325 4.03368 19.1078 4.09066L15.7281 4.99847C15.5046 5.06005 15.3142 5.20677 15.1976 5.40716C15.0811 5.60755 15.0477 5.84564 15.1047 6.07035L16.0125 9.45003Z" fill="#005ED3"/>
<path d="M8.75 4.375H5.25C4.76675 4.375 4.375 4.76675 4.375 5.25V22.75C4.375 23.2332 4.76675 23.625 5.25 23.625H8.75C9.23325 23.625 9.625 23.2332 9.625 22.75V5.25C9.625 4.76675 9.23325 4.375 8.75 4.375Z" stroke="#005ED3" stroke-width="1.5" stroke-linecap="round" stroke-linejoin="round"/>
<path d="M4.375 8.75H9.625" stroke="#005ED3" stroke-width="1.5" stroke-linecap="round" stroke-linejoin="round"/>
<path d="M14 4.375H10.5C10.0168 4.375 9.625 4.76675 9.625 5.25V22.75C9.625 23.2332 10.0168 23.625 10.5 23.625H14C14.4832 23.625 14.875 23.2332 14.875 22.75V5.25C14.875 4.76675 14.4832 4.375 14 4.375Z" stroke="#005ED3" stroke-width="1.5" stroke-linecap="round" stroke-linejoin="round"/>
<path d="M9.625 19.25H14.875" stroke="#005ED3" stroke-width="1.5" stroke-linecap="round" stroke-linejoin="round"/>
<path d="M19.1017 4.09521L15.7209 5.00107C15.2541 5.12615 14.9771 5.60594 15.1022 6.07272L19.6315 22.9764C19.7566 23.4432 20.2364 23.7202 20.7032 23.5951L24.0839 22.6893C24.5507 22.5642 24.8277 22.0844 24.7026 21.6176L20.1733 4.71392C20.0482 4.24714 19.5684 3.97013 19.1017 4.09521Z" stroke="#005ED3" stroke-width="1.5" stroke-linecap="round" stroke-linejoin="round"/>
<path d="M18.725 19.5996L23.8 18.2324" stroke="#005ED3" stroke-width="1.5" stroke-linecap="round" stroke-linejoin="round"/>
<path d="M16.0125 9.45L21.0875 8.09375" stroke="#005ED3" stroke-width="1.5" stroke-linecap="round" stroke-linejoin="round"/>
</svg>
