<svg width="32" height="32" viewBox="0 0 32 32" fill="none" xmlns="http://www.w3.org/2000/svg">
<path opacity="0.2" d="M5 10H11V6C11 5.73478 10.8946 5.48043 10.7071 5.29289C10.5196 5.10536 10.2652 5 10 5H6C5.73478 5 5.48043 5.10536 5.29289 5.29289C5.10536 5.48043 5 5.73478 5 6V10Z" fill="#005ED3"/>
<path opacity="0.2" d="M11 22H17V6C17 5.73478 16.8946 5.48043 16.7071 5.29289C16.5196 5.10536 16.2652 5 16 5H12C11.7348 5 11.4804 5.10536 11.2929 5.29289C11.1054 5.48043 11 5.73478 11 6V22Z" fill="#005ED3"/>
<path opacity="0.2" d="M21.4 22.3999L27.2 20.8374L28.2375 24.6999C28.2714 24.8271 28.2799 24.9598 28.2624 25.0903C28.245 25.2208 28.2019 25.3466 28.1357 25.4604C28.0695 25.5742 27.9815 25.6738 27.8767 25.7536C27.7719 25.8333 27.6524 25.8915 27.525 25.9249L23.6625 26.9624C23.4073 27.0314 23.1351 26.9964 22.9055 26.8653C22.6759 26.7341 22.5077 26.5173 22.4375 26.2624L21.4 22.3999Z" fill="#005ED3"/>
<path opacity="0.2" d="M18.3 10.8001L24.1 9.25011L23.0625 5.38761C22.9921 5.13219 22.8244 4.91453 22.5954 4.78132C22.3664 4.64812 22.0943 4.60999 21.8375 4.67511L17.975 5.71261C17.7196 5.78298 17.5019 5.95066 17.3687 6.17968C17.2355 6.4087 17.1974 6.6808 17.2625 6.93761L18.3 10.8001Z" fill="#005ED3"/>
<path d="M10 5H6C5.44772 5 5 5.44772 5 6V26C5 26.5523 5.44772 27 6 27H10C10.5523 27 11 26.5523 11 26V6C11 5.44772 10.5523 5 10 5Z" stroke="#005ED3" stroke-width="1.5" stroke-linecap="round" stroke-linejoin="round"/>
<path d="M5 10H11" stroke="#005ED3" stroke-width="1.5" stroke-linecap="round" stroke-linejoin="round"/>
<path d="M16 5H12C11.4477 5 11 5.44772 11 6V26C11 26.5523 11.4477 27 12 27H16C16.5523 27 17 26.5523 17 26V6C17 5.44772 16.5523 5 16 5Z" stroke="#005ED3" stroke-width="1.5" stroke-linecap="round" stroke-linejoin="round"/>
<path d="M11 22H17" stroke="#005ED3" stroke-width="1.5" stroke-linecap="round" stroke-linejoin="round"/>
<path d="M21.8305 4.68003L17.9668 5.7153C17.4333 5.85824 17.1167 6.40658 17.2597 6.94005L22.436 26.2586C22.579 26.792 23.1273 27.1086 23.6608 26.9657L27.5245 25.9304C28.058 25.7875 28.3745 25.2391 28.2316 24.7056L23.0552 5.38713C22.9123 4.85367 22.3639 4.53708 21.8305 4.68003Z" stroke="#005ED3" stroke-width="1.5" stroke-linecap="round" stroke-linejoin="round"/>
<path d="M21.4 22.3999L27.2 20.8374" stroke="#005ED3" stroke-width="1.5" stroke-linecap="round" stroke-linejoin="round"/>
<path d="M18.3 10.8L24.1 9.25" stroke="#005ED3" stroke-width="1.5" stroke-linecap="round" stroke-linejoin="round"/>
</svg>
