<svg width="28" height="28" viewBox="0 0 28 28" fill="none" xmlns="http://www.w3.org/2000/svg">
<path opacity="0.2" d="M4.375 8.75H9.625V5.25C9.625 5.01794 9.53281 4.79538 9.36872 4.63128C9.20462 4.46719 8.98206 4.375 8.75 4.375H5.25C5.01794 4.375 4.79538 4.46719 4.63128 4.63128C4.46719 4.79538 4.375 5.01794 4.375 5.25V8.75Z" fill="#005ED3"/>
<path opacity="0.2" d="M14.125 5.25V18.5H10.375V5.25C10.375 5.21685 10.3882 5.18505 10.4116 5.16161C10.4351 5.13817 10.4668 5.125 10.5 5.125H14C14.0332 5.125 14.0649 5.13817 14.0884 5.16161C14.1118 5.18505 14.125 5.21685 14.125 5.25Z" fill="#005ED3" stroke="#005ED3" stroke-width="1.5"/>
<path opacity="0.2" d="M23.9705 21.9009L23.9705 21.901C23.9622 21.9152 23.9512 21.9276 23.9381 21.9376C23.925 21.9476 23.9101 21.9548 23.8942 21.959L23.8942 21.959L23.8899 21.9601L20.5102 22.868L20.5091 22.8683C20.4772 22.8769 20.4432 22.8725 20.4145 22.8561C20.3862 22.8399 20.3653 22.8133 20.3564 22.782L19.6438 20.1293L23.2705 19.1523L23.9832 21.8059C23.9833 21.806 23.9833 21.8061 23.9833 21.8062C23.9875 21.822 23.9885 21.8385 23.9864 21.8547C23.9842 21.871 23.9788 21.8867 23.9705 21.9009Z" fill="#005ED3" stroke="#005ED3" stroke-width="1.5"/>
<path opacity="0.2" d="M16.0126 9.45003L21.0876 8.09378L20.1798 4.7141C20.1182 4.4906 19.9715 4.30015 19.7711 4.1836C19.5707 4.06704 19.3327 4.03368 19.1079 4.09066L15.7283 4.99847C15.5048 5.06005 15.3143 5.20677 15.1978 5.40716C15.0812 5.60755 15.0478 5.84564 15.1048 6.07035L16.0126 9.45003Z" fill="#005ED3"/>
<path d="M8.75 4.375H5.25C4.76675 4.375 4.375 4.76675 4.375 5.25V22.75C4.375 23.2332 4.76675 23.625 5.25 23.625H8.75C9.23325 23.625 9.625 23.2332 9.625 22.75V5.25C9.625 4.76675 9.23325 4.375 8.75 4.375Z" stroke="#005ED3" stroke-width="1.5" stroke-linecap="round" stroke-linejoin="round"/>
<path d="M4.375 8.75H9.625" stroke="#005ED3" stroke-width="1.5" stroke-linecap="round" stroke-linejoin="round"/>
<path d="M14 4.375H10.5C10.0168 4.375 9.625 4.76675 9.625 5.25V22.75C9.625 23.2332 10.0168 23.625 10.5 23.625H14C14.4832 23.625 14.875 23.2332 14.875 22.75V5.25C14.875 4.76675 14.4832 4.375 14 4.375Z" stroke="#005ED3" stroke-width="1.5" stroke-linecap="round" stroke-linejoin="round"/>
<path d="M9.625 19.25H14.875" stroke="#005ED3" stroke-width="1.5" stroke-linecap="round" stroke-linejoin="round"/>
<path d="M19.1019 4.09496L15.7212 5.00083C15.2544 5.1259 14.9774 5.6057 15.1024 6.07248L19.6318 22.9762C19.7569 23.443 20.2366 23.72 20.7034 23.5949L24.0842 22.689C24.551 22.564 24.828 22.0842 24.7029 21.6174L20.1736 4.71368C20.0485 4.2469 19.5687 3.96989 19.1019 4.09496Z" stroke="#005ED3" stroke-width="1.5" stroke-linecap="round" stroke-linejoin="round"/>
<path d="M18.7251 19.6001L23.8001 18.2329" stroke="#005ED3" stroke-width="1.5" stroke-linecap="round" stroke-linejoin="round"/>
<path d="M16.0127 9.45L21.0877 8.09375" stroke="#005ED3" stroke-width="1.5" stroke-linecap="round" stroke-linejoin="round"/>
</svg>
