<svg width="32" height="32" viewBox="0 0 32 32" fill="none" xmlns="http://www.w3.org/2000/svg">
<path opacity="0.2" d="M5 10.0005H11V6.00049C11 5.73527 10.8946 5.48092 10.7071 5.29338C10.5196 5.10585 10.2652 5.00049 10 5.00049H6C5.73478 5.00049 5.48043 5.10585 5.29289 5.29338C5.10536 5.48092 5 5.73527 5 6.00049V10.0005Z" fill="#005ED3"/>
<path opacity="0.2" d="M16.25 6.00049V21.2505H11.75V6.00049C11.75 5.93418 11.7763 5.8706 11.8232 5.82371C11.8701 5.77683 11.9337 5.75049 12 5.75049H16C16.0663 5.75049 16.1299 5.77683 16.1768 5.82371C16.2237 5.87059 16.25 5.93418 16.25 6.00049Z" fill="#005ED3" stroke="#005ED3" stroke-width="1.5"/>
<path opacity="0.2" d="M27.3346 25.2L27.3346 25.2L27.3303 25.2012L23.4678 26.2387L23.4668 26.2389C23.4029 26.2562 23.3349 26.2475 23.2775 26.2147C23.2206 26.1821 23.1787 26.1285 23.1609 26.0654L22.3186 22.9297L26.6703 21.7574L27.5127 24.8938C27.5128 24.8939 27.5128 24.8941 27.5129 24.8943C27.5212 24.9259 27.5233 24.9589 27.519 24.9914C27.5146 25.024 27.5038 25.0554 27.4873 25.0839C27.4707 25.1124 27.4487 25.1373 27.4225 25.1572C27.3963 25.1771 27.3665 25.1917 27.3346 25.2Z" fill="#005ED3" stroke="#005ED3" stroke-width="1.5"/>
<path opacity="0.2" d="M18.3 10.8005L24.1 9.25049L23.0625 5.38799C22.9921 5.13257 22.8245 4.91491 22.5954 4.7817C22.3664 4.6485 22.0943 4.61037 21.8375 4.67549L17.975 5.71299C17.7196 5.78336 17.5019 5.95104 17.3687 6.18006C17.2355 6.40908 17.1974 6.68118 17.2625 6.93799L18.3 10.8005Z" fill="#005ED3"/>
<path d="M10 5.00049H6C5.44772 5.00049 5 5.4482 5 6.00049V26.0005C5 26.5528 5.44772 27.0005 6 27.0005H10C10.5523 27.0005 11 26.5528 11 26.0005V6.00049C11 5.4482 10.5523 5.00049 10 5.00049Z" stroke="#005ED3" stroke-width="1.5" stroke-linecap="round" stroke-linejoin="round"/>
<path d="M5 10.0005H11" stroke="#005ED3" stroke-width="1.5" stroke-linecap="round" stroke-linejoin="round"/>
<path d="M16 5.00049H12C11.4477 5.00049 11 5.4482 11 6.00049V26.0005C11 26.5528 11.4477 27.0005 12 27.0005H16C16.5523 27.0005 17 26.5528 17 26.0005V6.00049C17 5.4482 16.5523 5.00049 16 5.00049Z" stroke="#005ED3" stroke-width="1.5" stroke-linecap="round" stroke-linejoin="round"/>
<path d="M11 22.0005H17" stroke="#005ED3" stroke-width="1.5" stroke-linecap="round" stroke-linejoin="round"/>
<path d="M21.8306 4.68032L17.9669 5.71559C17.4334 5.85853 17.1169 6.40687 17.2598 6.94034L22.4362 26.2589C22.5791 26.7923 23.1275 27.1089 23.6609 26.966L27.5246 25.9307C28.0581 25.7877 28.3747 25.2394 28.2317 24.7059L23.0554 5.38742C22.9124 4.85396 22.3641 4.53737 21.8306 4.68032Z" stroke="#005ED3" stroke-width="1.5" stroke-linecap="round" stroke-linejoin="round"/>
<path d="M21.3999 22.4005L27.1999 20.838" stroke="#005ED3" stroke-width="1.5" stroke-linecap="round" stroke-linejoin="round"/>
<path d="M18.2998 10.8005L24.0998 9.25049" stroke="#005ED3" stroke-width="1.5" stroke-linecap="round" stroke-linejoin="round"/>
</svg>
