<svg width="24" height="24" viewBox="0 0 24 24" fill="none" xmlns="http://www.w3.org/2000/svg">
<path d="M22 16.7404V4.6704C22 3.4704 21.02 2.5804 19.83 2.6804H19.77C17.67 2.8604 14.48 3.9304 12.7 5.0504L12.53 5.1604C12.24 5.3404 11.76 5.3404 11.47 5.1604L11.22 5.0104C9.44 3.9004 6.26 2.8404 4.16 2.6704C2.97 2.5704 2 3.4704 2 4.6604V16.7404C2 17.7004 2.78 18.6004 3.74 18.7204L4.03 18.7604C6.2 19.0504 9.55 20.1504 11.47 21.2004L11.51 21.2204C11.78 21.3704 12.21 21.3704 12.47 21.2204C14.39 20.1604 17.75 19.0504 19.93 18.7604L20.26 18.7204C21.22 18.6004 22 17.7004 22 16.7404Z" stroke="#969DB8" stroke-width="1.5" stroke-linecap="round" stroke-linejoin="round"/>
<path d="M12 5.4904V20.4904" stroke="#969DB8" stroke-width="1.5" stroke-linecap="round" stroke-linejoin="round"/>
<path d="M7.75 8.4904H5.5" stroke="#969DB8" stroke-width="1.5" stroke-linecap="round" stroke-linejoin="round"/>
<path d="M8.5 11.4904H5.5" stroke="#969DB8" stroke-width="1.5" stroke-linecap="round" stroke-linejoin="round"/>
</svg>
