<svg width="32" height="32" viewBox="0 0 32 32" fill="none" xmlns="http://www.w3.org/2000/svg">
<path opacity="0.2" d="M28 7.00012H20C18.9391 7.00012 17.9217 7.42155 17.1716 8.17169C16.4214 8.92184 16 9.93926 16 11.0001C16 9.93926 15.5786 8.92184 14.8284 8.17169C14.0783 7.42155 13.0609 7.00012 12 7.00012H4C3.73478 7.00012 3.48043 7.10548 3.29289 7.29302C3.10536 7.48055 3 7.73491 3 8.00012V24.0001C3 24.2653 3.10536 24.5197 3.29289 24.7072C3.48043 24.8948 3.73478 25.0001 4 25.0001H12C13.0609 25.0001 14.0783 25.4216 14.8284 26.1717C15.5786 26.9218 16 27.9393 16 29.0001C16 27.9393 16.4214 26.9218 17.1716 26.1717C17.9217 25.4216 18.9391 25.0001 20 25.0001H28C28.2652 25.0001 28.5196 24.8948 28.7071 24.7072C28.8946 24.5197 29 24.2653 29 24.0001V8.00012C29 7.73491 28.8946 7.48055 28.7071 7.29302C28.5196 7.10548 28.2652 7.00012 28 7.00012Z" fill="#005ED3"/>
<path d="M16 11.0001C16 9.93926 16.4214 8.92184 17.1716 8.17169C17.9217 7.42155 18.9391 7.00012 20 7.00012H28C28.2652 7.00012 28.5196 7.10548 28.7071 7.29302C28.8946 7.48055 29 7.73491 29 8.00012V24.0001C29 24.2653 28.8946 24.5197 28.7071 24.7072C28.5196 24.8948 28.2652 25.0001 28 25.0001H20C18.9391 25.0001 17.9217 25.4216 17.1716 26.1717C16.4214 26.9218 16 27.9393 16 29.0001" stroke="#005ED3" stroke-width="1.5" stroke-linecap="round" stroke-linejoin="round"/>
<path d="M3 24.0001C3 24.2653 3.10536 24.5197 3.29289 24.7072C3.48043 24.8948 3.73478 25.0001 4 25.0001H12C13.0609 25.0001 14.0783 25.4216 14.8284 26.1717C15.5786 26.9218 16 27.9393 16 29.0001V11.0001C16 9.93926 15.5786 8.92184 14.8284 8.17169C14.0783 7.42155 13.0609 7.00012 12 7.00012H4C3.73478 7.00012 3.48043 7.10548 3.29289 7.29302C3.10536 7.48055 3 7.73491 3 8.00012V24.0001Z" fill="white" stroke="#005ED3" stroke-width="1.5" stroke-linecap="round" stroke-linejoin="round"/>
</svg>
