<svg width="28" height="28" viewBox="0 0 28 28" fill="none" xmlns="http://www.w3.org/2000/svg">
<path opacity="0.2" d="M4.375 9.625H23.625V5.25C23.625 5.01794 23.5328 4.79538 23.3687 4.63128C23.2046 4.46719 22.9821 4.375 22.75 4.375H5.25C5.01794 4.375 4.79538 4.46719 4.63128 4.63128C4.46719 4.79538 4.375 5.01794 4.375 5.25V9.625Z" fill="#969DB8"/>
<path d="M22.75 4.375H5.25C4.76675 4.375 4.375 4.76675 4.375 5.25V22.75C4.375 23.2332 4.76675 23.625 5.25 23.625H22.75C23.2332 23.625 23.625 23.2332 23.625 22.75V5.25C23.625 4.76675 23.2332 4.375 22.75 4.375Z" stroke="#969DB8" stroke-width="1.5" stroke-linecap="round" stroke-linejoin="round"/>
<path d="M19.25 2.625V6.125" stroke="#969DB8" stroke-width="1.5" stroke-linecap="round" stroke-linejoin="round"/>
<path d="M8.75 2.625V6.125" stroke="#969DB8" stroke-width="1.5" stroke-linecap="round" stroke-linejoin="round"/>
<path d="M4.375 9.625H23.625" stroke="#969DB8" stroke-width="1.5" stroke-linecap="round" stroke-linejoin="round"/>
<path d="M17.9375 14L12.8297 18.8125L10.0625 16.1875" stroke="#969DB8" stroke-width="1.5" stroke-linecap="round" stroke-linejoin="round"/>
</svg>
