<svg width="28" height="28" viewBox="0 0 28 28" fill="none" xmlns="http://www.w3.org/2000/svg">
<path d="M19.8335 11.6666H22.1668C24.5002 11.6666 25.6668 10.4999 25.6668 8.16659V5.83325C25.6668 3.49992 24.5002 2.33325 22.1668 2.33325H19.8335C17.5002 2.33325 16.3335 3.49992 16.3335 5.83325V8.16659C16.3335 10.4999 17.5002 11.6666 19.8335 11.6666Z" stroke="white" stroke-width="1.5" stroke-miterlimit="10" stroke-linecap="round" stroke-linejoin="round"/>
<path d="M5.8335 25.6666H8.16683C10.5002 25.6666 11.6668 24.4999 11.6668 22.1666V19.8333C11.6668 17.4999 10.5002 16.3333 8.16683 16.3333H5.8335C3.50016 16.3333 2.3335 17.4999 2.3335 19.8333V22.1666C2.3335 24.4999 3.50016 25.6666 5.8335 25.6666Z" stroke="white" stroke-width="1.5" stroke-miterlimit="10" stroke-linecap="round" stroke-linejoin="round"/>
<path d="M7.00016 11.6666C9.57749 11.6666 11.6668 9.57725 11.6668 6.99992C11.6668 4.42259 9.57749 2.33325 7.00016 2.33325C4.42283 2.33325 2.3335 4.42259 2.3335 6.99992C2.3335 9.57725 4.42283 11.6666 7.00016 11.6666Z" stroke="white" stroke-width="1.5" stroke-miterlimit="10" stroke-linecap="round" stroke-linejoin="round"/>
<path d="M21.0002 25.6666C23.5775 25.6666 25.6668 23.5772 25.6668 20.9999C25.6668 18.4226 23.5775 16.3333 21.0002 16.3333C18.4228 16.3333 16.3335 18.4226 16.3335 20.9999C16.3335 23.5772 18.4228 25.6666 21.0002 25.6666Z" stroke="white" stroke-width="1.5" stroke-miterlimit="10" stroke-linecap="round" stroke-linejoin="round"/>
</svg>
