<svg width="68" height="68" viewBox="0 0 68 68" fill="none" xmlns="http://www.w3.org/2000/svg">
<path d="M27.625 46.75C32.3194 46.75 36.125 42.9444 36.125 38.25C36.125 33.5556 32.3194 29.75 27.625 29.75C22.9306 29.75 19.125 33.5556 19.125 38.25C19.125 42.9444 22.9306 46.75 27.625 46.75Z" stroke="white" stroke-width="2.5" stroke-linecap="round" stroke-linejoin="round"/>
<path opacity="0.2" d="M34.1442 45.5C35.2215 44.5313 36.0739 43.3305 36.6328 41.9812C37.3708 40.1996 37.5639 38.2392 37.1877 36.3479C36.8115 34.4566 35.8829 32.7193 34.5193 31.3557C33.1557 29.9921 31.4184 29.0635 29.5271 28.6873C27.6358 28.3111 25.6754 28.5042 23.8938 29.2422C22.1123 29.9801 20.5895 31.2298 19.5182 32.8332C18.9528 33.6793 18.5265 34.6039 18.25 35.572V22.5H49.75V45.5H34.1442Z" fill="white" stroke="white" stroke-width="2.5"/>
<path d="M14.1844 55.25C15.3905 52.7062 17.2938 50.5569 19.673 49.0519C22.0523 47.5469 24.8097 46.748 27.625 46.748C30.4403 46.748 33.1977 47.5469 35.577 49.0519C37.9562 50.5569 39.8595 52.7062 41.0656 55.25H57.375C57.9386 55.25 58.4791 55.0261 58.8776 54.6276C59.2761 54.2291 59.5 53.6886 59.5 53.125V14.875C59.5 14.3114 59.2761 13.7709 58.8776 13.3724C58.4791 12.9739 57.9386 12.75 57.375 12.75H10.625C10.0614 12.75 9.52091 12.9739 9.1224 13.3724C8.72388 13.7709 8.5 14.3114 8.5 14.875V53.125C8.5 53.6886 8.72388 54.2291 9.1224 54.6276C9.52091 55.0261 10.0614 55.25 10.625 55.25H14.1844Z" stroke="white" stroke-width="2.5" stroke-linecap="round" stroke-linejoin="round"/>
<path d="M46.75 46.75H51V21.25H17V25.5" stroke="white" stroke-width="2.5" stroke-linecap="round" stroke-linejoin="round"/>
</svg>
