<svg width="32" height="32" viewBox="0 0 32 32" fill="none" xmlns="http://www.w3.org/2000/svg">
<path d="M13 22C15.2091 22 17 20.2091 17 18C17 15.7909 15.2091 14 13 14C10.7909 14 9 15.7909 9 18C9 20.2091 10.7909 22 13 22Z" stroke="white" stroke-width="1.5" stroke-linecap="round" stroke-linejoin="round"/>
<path opacity="0.2" d="M9 18C9 17.2089 9.2346 16.4355 9.67412 15.7777C10.1136 15.1199 10.7384 14.6072 11.4693 14.3045C12.2002 14.0017 13.0044 13.9225 13.7804 14.0769C14.5563 14.2312 15.269 14.6122 15.8284 15.1716C16.3878 15.731 16.7688 16.4437 16.9231 17.2196C17.0775 17.9956 16.9983 18.7998 16.6955 19.5307C16.3928 20.2616 15.8801 20.8864 15.2223 21.3259C14.5645 21.7654 13.7911 22 13 22H24V10H8V18H9Z" fill="white"/>
<path d="M6.675 26C7.24261 24.8029 8.13827 23.7915 9.2579 23.0833C10.3775 22.375 11.6752 21.9991 13 21.9991C14.3248 21.9991 15.6225 22.375 16.7421 23.0833C17.8617 23.7915 18.7574 24.8029 19.325 26H27C27.2652 26 27.5196 25.8946 27.7071 25.7071C27.8946 25.5196 28 25.2652 28 25V7C28 6.73478 27.8946 6.48043 27.7071 6.29289C27.5196 6.10536 27.2652 6 27 6H5C4.73478 6 4.48043 6.10536 4.29289 6.29289C4.10536 6.48043 4 6.73478 4 7V25C4 25.2652 4.10536 25.5196 4.29289 25.7071C4.48043 25.8946 4.73478 26 5 26H6.675Z" stroke="white" stroke-width="1.5" stroke-linecap="round" stroke-linejoin="round"/>
<path d="M22 22H24V10H8V12" stroke="white" stroke-width="1.5" stroke-linecap="round" stroke-linejoin="round"/>
</svg>
