<svg width="28" height="28" viewBox="0 0 28 28" fill="none" xmlns="http://www.w3.org/2000/svg">
<path opacity="0.2" d="M21.5051 23.3279L21.531 23.3353L24.2542 24.1118C24.2543 24.1118 24.2543 24.1118 24.2543 24.1118C24.3558 24.1403 24.4631 24.1413 24.5651 24.1146C24.6671 24.0879 24.7602 24.0346 24.8348 23.96C24.9093 23.8854 24.9627 23.7924 24.9894 23.6903C25.016 23.5883 25.0151 23.4811 24.9865 23.3796C24.9865 23.3795 24.9865 23.3795 24.9865 23.3795L24.21 20.6562L24.2026 20.6303L24.2164 20.6071C24.9042 19.4526 25.2821 18.1401 25.3135 16.7966C25.3449 15.4531 25.0288 14.1243 24.3957 12.939C23.7626 11.7536 22.8341 10.7518 21.7001 10.0308C20.5924 9.32648 19.3253 8.91331 18.0164 8.82886C18.2982 9.64792 18.4405 10.5087 18.4373 11.3753M21.5051 23.3279L18.3748 11.375M21.5051 23.3279L21.4819 23.3416C20.4888 23.9323 19.377 24.2949 18.2266 24.4034C17.0763 24.5119 15.9162 24.3635 14.8302 23.969C13.7442 23.5745 12.7594 22.9436 11.9469 22.1221C11.1558 21.322 10.5473 20.3606 10.1628 19.3039M21.5051 23.3279L10.0957 19.3022M18.4373 11.3753L18.3748 11.375M18.4373 11.3753C18.4373 11.3752 18.4373 11.3751 18.4373 11.375H18.3748M18.4373 11.3753C18.4372 13.4804 17.601 15.4992 16.1125 16.9877C14.6239 18.4763 12.605 19.3125 10.4998 19.3125H10.4982L10.4982 19.3125L10.1628 19.3039M18.3748 11.375C18.3748 13.4636 17.5451 15.4667 16.0683 16.9435C14.5914 18.4204 12.5884 19.25 10.4998 19.25L10.1401 19.2408C10.1476 19.2619 10.1551 19.2829 10.1628 19.3039M10.1628 19.3039L10.0957 19.3022M10.0957 19.3022C10.4828 20.3764 11.0992 21.3538 11.9025 22.166C12.7215 22.9941 13.7142 23.63 14.8089 24.0277C15.9036 24.4254 17.0729 24.575 18.2325 24.4656C19.392 24.3563 20.5128 23.9907 21.5139 23.3954L10.0957 19.3022ZM17.9264 8.76099C17.934 8.78223 17.9415 8.8035 17.9489 8.8248L17.9264 8.76099Z" fill="#005ED3" stroke="#005ED3" stroke-width="0.125"/>
<path d="M3.72961 15.3891C2.74891 13.7368 2.40516 11.7834 2.76294 9.89557C3.12071 8.00778 4.15539 6.31556 5.67264 5.13672C7.18989 3.95788 9.08533 3.37352 11.003 3.4934C12.9206 3.61328 14.7285 4.42915 16.0872 5.78777C17.4458 7.1464 18.2617 8.95431 18.3815 10.872C18.5014 12.7896 17.9171 14.685 16.7382 16.2023C15.5594 17.7195 13.8671 18.7542 11.9794 19.112C10.0916 19.4698 8.13812 19.126 6.48586 18.1453L3.76242 18.9219C3.65021 18.9534 3.53162 18.9545 3.41885 18.925C3.30608 18.8956 3.20319 18.8366 3.12077 18.7542C3.03834 18.6717 2.97936 18.5689 2.94989 18.4561C2.92041 18.3433 2.9215 18.2247 2.95305 18.1125L3.72961 15.3891Z" stroke="#005ED3" stroke-width="1.5" stroke-linecap="round" stroke-linejoin="round"/>
<path d="M10.0732 19.2391C10.4587 20.3382 11.0835 21.3379 11.9025 22.166C12.7215 22.9941 13.7142 23.63 14.8089 24.0277C15.9036 24.4254 17.0729 24.575 18.2325 24.4656C19.392 24.3563 20.5128 23.9907 21.5139 23.3954L24.2373 24.1719C24.3495 24.2035 24.4681 24.2046 24.5809 24.1751C24.6937 24.1456 24.7965 24.0866 24.879 24.0042C24.9614 23.9218 25.0204 23.8189 25.0498 23.7061C25.0793 23.5934 25.0782 23.4748 25.0467 23.3625L24.2701 20.6391C24.9634 19.4754 25.3443 18.1523 25.376 16.7981C25.4077 15.4438 25.089 14.1044 24.4508 12.9095C23.8127 11.7147 22.8767 10.7049 21.7336 9.97806C20.5906 9.25123 19.2791 8.832 17.9264 8.76099" stroke="#005ED3" stroke-width="1.5" stroke-linecap="round" stroke-linejoin="round"/>
</svg>
