<svg width="24" height="24" viewBox="0 0 24 24" fill="none" xmlns="http://www.w3.org/2000/svg">
<path d="M22.9698 5.55091C22.9698 3.06252 20.9452 1.03788 18.4568 1.03788C16.7451 1.03788 15.23 2.00316 14.4683 3.46655C13.6785 3.25576 12.8533 3.13253 11.9981 3.13253C11.1784 3.13253 10.3869 3.24684 9.62692 3.44104C8.8413 1.98629 7.31977 1.02917 5.60898 1.02917C3.08377 1.02917 1.0293 3.0833 1.0293 5.60851C1.0293 7.1297 1.80175 8.52725 3.01807 9.3689C2.62393 10.4175 2.39805 11.5478 2.39805 12.7325C2.39805 15.3462 3.45083 17.7166 5.15113 19.4495L3.38541 21.2152C2.98365 21.6166 2.98365 22.2682 3.38541 22.6697C3.78717 23.0715 4.43812 23.0715 4.83988 22.6697L6.74905 20.7605C8.25913 21.7513 10.0609 22.3325 11.9981 22.3325C13.9353 22.3325 15.7372 21.7512 17.2473 20.7604L19.1569 22.6697C19.5583 23.0711 20.2099 23.0718 20.6114 22.6697C21.0131 22.2679 21.0131 21.6167 20.6114 21.2152L18.8453 19.4493C20.5454 17.7164 21.5981 15.3461 21.5981 12.7325C21.5981 11.5201 21.3629 10.3639 20.9509 9.29477C22.1834 8.46904 22.9698 7.07196 22.9698 5.55091ZM3.08644 5.60851C3.08644 4.21768 4.21814 3.08632 5.60898 3.08632C6.45337 3.08632 7.21684 3.50776 7.67839 4.17105C6.16221 4.93919 4.8767 6.09359 3.95401 7.50979C3.41311 7.04282 3.08644 6.36218 3.08644 5.60851ZM11.9981 20.2753C7.83892 20.2753 4.45519 16.8916 4.45519 12.7325C4.45519 8.57333 7.83892 5.18961 11.9981 5.18961C16.1572 5.18961 19.5409 8.57333 19.5409 12.7325C19.5409 16.8916 16.1572 20.2753 11.9981 20.2753ZM20.0061 7.45061C19.1027 6.08556 17.8597 4.96771 16.399 4.21027C16.8408 3.52963 17.6061 3.09503 18.4568 3.09503C19.8111 3.09503 20.9127 4.19656 20.9127 5.55091C20.9127 6.29765 20.5659 6.99167 20.0061 7.45061Z" fill="#FB324A"/>
<path d="M13.0259 11.5964V8.92359C13.0259 8.35541 12.5655 7.89502 11.9973 7.89502C11.4291 7.89502 10.9688 8.35541 10.9688 8.92359V12.0223C10.9688 12.2952 11.0772 12.5567 11.2701 12.7495L14.3428 15.8222C14.7446 16.224 15.3954 16.224 15.7973 15.8222C16.199 15.4208 16.199 14.7692 15.7973 14.3678L13.0259 11.5964Z" fill="#FB324A"/>
</svg>
