<svg width="28" height="28" viewBox="0 0 28 28" fill="none" xmlns="http://www.w3.org/2000/svg">
<path d="M3.5 23.625H2.75C2.75 23.8849 2.88459 24.1263 3.1057 24.263C3.32681 24.3996 3.60292 24.4121 3.83541 24.2958L3.5 23.625ZM7 21.875L7.33541 21.2042C7.12426 21.0986 6.87574 21.0986 6.66459 21.2042L7 21.875ZM10.5 23.625L10.1646 24.2958C10.3757 24.4014 10.6243 24.4014 10.8354 24.2958L10.5 23.625ZM14 21.875L14.3354 21.2042C14.1243 21.0986 13.8757 21.0986 13.6646 21.2042L14 21.875ZM17.5 23.625L17.1646 24.2958C17.3757 24.4014 17.6243 24.4014 17.8354 24.2958L17.5 23.625ZM21 21.875L21.3354 21.2042C21.1243 21.0986 20.8757 21.0986 20.6646 21.2042L21 21.875ZM24.5 23.625L24.1646 24.2958C24.3971 24.4121 24.6732 24.3996 24.8943 24.263C25.1154 24.1263 25.25 23.8849 25.25 23.625H24.5ZM8.75 15.75L8.09158 15.3909C7.96482 15.6232 7.96995 15.9052 8.10508 16.1328C8.2402 16.3605 8.4853 16.5 8.75 16.5V15.75ZM11.375 10.9375L12.0334 10.5784C11.902 10.3374 11.6495 10.1875 11.375 10.1875C11.1005 10.1875 10.848 10.3374 10.7166 10.5784L11.375 10.9375ZM14 15.75V16.5C14.2647 16.5 14.5098 16.3605 14.6449 16.1328C14.78 15.9052 14.7852 15.6232 14.6584 15.3909L14 15.75ZM4.25 23.625V6.125H2.75V23.625H4.25ZM6.66459 21.2042L3.16459 22.9542L3.83541 24.2958L7.33541 22.5458L6.66459 21.2042ZM10.8354 22.9542L7.33541 21.2042L6.66459 22.5458L10.1646 24.2958L10.8354 22.9542ZM13.6646 21.2042L10.1646 22.9542L10.8354 24.2958L14.3354 22.5458L13.6646 21.2042ZM17.8354 22.9542L14.3354 21.2042L13.6646 22.5458L17.1646 24.2958L17.8354 22.9542ZM20.6646 21.2042L17.1646 22.9542L17.8354 24.2958L21.3354 22.5458L20.6646 21.2042ZM24.8354 22.9542L21.3354 21.2042L20.6646 22.5458L24.1646 24.2958L24.8354 22.9542ZM23.75 6.125V23.625H25.25V6.125H23.75ZM23.7134 6.03661C23.7368 6.06005 23.75 6.09185 23.75 6.125H25.25C25.25 5.69403 25.0788 5.2807 24.774 4.97595L23.7134 6.03661ZM23.625 6C23.6582 6 23.6899 6.01317 23.7134 6.03661L24.774 4.97595C24.4693 4.67121 24.056 4.5 23.625 4.5V6ZM4.375 6H23.625V4.5H4.375V6ZM4.28661 6.03661C4.31005 6.01317 4.34185 6 4.375 6V4.5C3.94402 4.5 3.5307 4.67121 3.22595 4.97595L4.28661 6.03661ZM4.25 6.125C4.25 6.09185 4.26317 6.06005 4.28661 6.03661L3.22595 4.97595C2.92121 5.2807 2.75 5.69402 2.75 6.125H4.25ZM9.40842 16.1091L12.0334 11.2966L10.7166 10.5784L8.09158 15.3909L9.40842 16.1091ZM14 15H8.75V16.5H14V15ZM10.7166 11.2966L13.3416 16.1091L14.6584 15.3909L12.0334 10.5784L10.7166 11.2966Z" fill="#969DB8"/>
<path opacity="0.2" fill-rule="evenodd" clip-rule="evenodd" d="M3.5 6.125V23.625L7 21.875L10.5 23.625L14 21.875L17.5 23.625L21 21.875L24.5 23.625V6.125C24.5 5.89294 24.4078 5.67038 24.2437 5.50628C24.0796 5.34219 23.8571 5.25 23.625 5.25H4.375C4.14294 5.25 3.92038 5.34219 3.75628 5.50628C3.59219 5.67038 3.5 5.89294 3.5 6.125ZM11.375 10.9375L8.75 15.75H14L11.375 10.9375Z" fill="#969DB8"/>
<path d="M7.875 17.5L11.375 10.5L14.875 17.5" stroke="#969DB8" stroke-width="1.5" stroke-linecap="round" stroke-linejoin="round"/>
<path d="M8.75 15.75H14" stroke="#969DB8" stroke-width="1.5" stroke-linecap="round" stroke-linejoin="round"/>
<path d="M16.625 14H21" stroke="#969DB8" stroke-width="1.5" stroke-linecap="round" stroke-linejoin="round"/>
<path d="M18.8125 11.8125V16.1875" stroke="#969DB8" stroke-width="1.5" stroke-linecap="round" stroke-linejoin="round"/>
</svg>
