<svg width="60" height="60" viewBox="0 0 60 60" fill="none" xmlns="http://www.w3.org/2000/svg">
<path d="M29.9994 54.2606C27.5573 54.2606 25.1529 53.6193 23.0484 52.4067L12.5089 46.3307C10.5446 45.1973 9.32425 43.0837 9.32425 40.8169V30.2632L1.48393 25.7076C0.554366 25.1649 0 24.2003 0 23.1266C0 22.0529 0.554365 21.0896 1.48264 20.5495L26.7381 5.87764C27.7261 5.3038 28.8543 5 30.0019 5C31.1496 5 32.2765 5.3038 33.2619 5.87764L58.5148 20.5469C59.4443 21.087 60 22.0503 60 23.1266C60 24.2003 59.4456 25.1649 58.5148 25.7037L57.8397 26.097V43.755L58.0006 43.864C58.8121 44.4184 59.2963 45.3324 59.2963 46.31C59.2963 47.9406 57.9695 49.2674 56.3389 49.2674C54.7082 49.2674 53.3814 47.9406 53.3814 46.31C53.3814 45.3311 53.8656 44.4158 54.6771 43.864L54.838 43.755V27.8432L50.6771 30.2606V40.8169C50.6771 43.0876 49.4554 45.1999 47.4898 46.3307L36.9516 52.4067C34.8471 53.6193 32.4427 54.2606 29.9994 54.2606ZM12.3285 40.8143C12.3285 42.0127 12.9724 43.1292 14.011 43.7264L24.5505 49.8023C26.1993 50.7527 28.0844 51.2551 30.0019 51.2551C31.9195 51.2551 33.8046 50.7527 35.4547 49.8023L45.9929 43.7264C46.9237 43.1928 47.5378 42.2399 47.6547 41.1831H47.6754L47.678 40.8156V32.0068L33.2671 40.3794C32.2817 40.9533 31.1535 41.2558 30.0032 41.2558C28.8569 41.2558 27.7287 40.9533 26.7394 40.3794L12.3285 32.0055V40.8143ZM29.9981 7.99903C29.3814 7.99903 28.7751 8.16261 28.2441 8.4716L3.0224 23.1266L28.2454 37.7816C28.7764 38.0906 29.3827 38.2541 29.9994 38.2541C30.616 38.2541 31.2223 38.0906 31.7533 37.7816L56.975 23.124L31.752 8.4716C31.221 8.16261 30.6147 7.99903 29.9981 7.99903Z" fill="white"/>
</svg>
