<svg width="32" height="32" viewBox="0 0 32 32" fill="none" xmlns="http://www.w3.org/2000/svg">
<path fill-rule="evenodd" clip-rule="evenodd" d="M4 7V27L8 25L12 27L16 25L20 27L24 25L28 27V7C28 6.73478 27.8946 6.48043 27.7071 6.29289C27.5196 6.10536 27.2652 6 27 6H5C4.73478 6 4.48043 6.10536 4.29289 6.29289C4.10536 6.48043 4 6.73478 4 7ZM13 12.5L10 18H16L13 12.5Z" fill="#005ED3" fill-opacity="0.2"/>
<path d="M4 27H3.25C3.25 27.2599 3.38459 27.5013 3.6057 27.638C3.82681 27.7746 4.10292 27.7871 4.33541 27.6708L4 27ZM8 25L8.33541 24.3292C8.12426 24.2236 7.87574 24.2236 7.66459 24.3292L8 25ZM12 27L11.6646 27.6708C11.8757 27.7764 12.1243 27.7764 12.3354 27.6708L12 27ZM16 25L16.3354 24.3292C16.1243 24.2236 15.8757 24.2236 15.6646 24.3292L16 25ZM20 27L19.6646 27.6708C19.8757 27.7764 20.1243 27.7764 20.3354 27.6708L20 27ZM24 25L24.3354 24.3292C24.1243 24.2236 23.8757 24.2236 23.6646 24.3292L24 25ZM28 27L27.6646 27.6708C27.8971 27.7871 28.1732 27.7746 28.3943 27.638C28.6154 27.5013 28.75 27.2599 28.75 27H28ZM27.7071 6.29289L27.1768 6.82322V6.82322L27.7071 6.29289ZM4.29289 6.29289L4.82322 6.82322L4.82322 6.82322L4.29289 6.29289ZM10 18L9.34158 17.6409C9.21482 17.8732 9.21995 18.1552 9.35508 18.3828C9.4902 18.6105 9.7353 18.75 10 18.75V18ZM13 12.5L13.6584 12.1409C13.527 11.8999 13.2745 11.75 13 11.75C12.7255 11.75 12.473 11.8999 12.3416 12.1409L13 12.5ZM16 18V18.75C16.2647 18.75 16.5098 18.6105 16.6449 18.3828C16.78 18.1552 16.7852 17.8732 16.6584 17.6409L16 18ZM4.75 27V7H3.25V27H4.75ZM7.66459 24.3292L3.66459 26.3292L4.33541 27.6708L8.33541 25.6708L7.66459 24.3292ZM12.3354 26.3292L8.33541 24.3292L7.66459 25.6708L11.6646 27.6708L12.3354 26.3292ZM15.6646 24.3292L11.6646 26.3292L12.3354 27.6708L16.3354 25.6708L15.6646 24.3292ZM20.3354 26.3292L16.3354 24.3292L15.6646 25.6708L19.6646 27.6708L20.3354 26.3292ZM23.6646 24.3292L19.6646 26.3292L20.3354 27.6708L24.3354 25.6708L23.6646 24.3292ZM28.3354 26.3292L24.3354 24.3292L23.6646 25.6708L27.6646 27.6708L28.3354 26.3292ZM27.25 7V27H28.75V7H27.25ZM27.1768 6.82322C27.2237 6.87011 27.25 6.93369 27.25 7H28.75C28.75 6.53587 28.5656 6.09075 28.2374 5.76256L27.1768 6.82322ZM27 6.75C27.0663 6.75 27.1299 6.77634 27.1768 6.82322L28.2374 5.76256C27.9092 5.43437 27.4641 5.25 27 5.25V6.75ZM5 6.75H27V5.25H5V6.75ZM4.82322 6.82322C4.87011 6.77634 4.9337 6.75 5 6.75V5.25C4.53587 5.25 4.09075 5.43438 3.76256 5.76256L4.82322 6.82322ZM4.75 7C4.75 6.9337 4.77634 6.87011 4.82322 6.82322L3.76256 5.76256C3.43438 6.09075 3.25 6.53587 3.25 7H4.75ZM10.6584 18.3591L13.6584 12.8591L12.3416 12.1409L9.34158 17.6409L10.6584 18.3591ZM16 17.25H10V18.75H16V17.25ZM12.3416 12.8591L15.3416 18.3591L16.6584 17.6409L13.6584 12.1409L12.3416 12.8591Z" fill="#005ED3"/>
<path d="M9 20L13 12L17 20" stroke="#005ED3" stroke-width="1.5" stroke-linecap="round" stroke-linejoin="round"/>
<path d="M10 18H16" stroke="#005ED3" stroke-width="1.5" stroke-linecap="round" stroke-linejoin="round"/>
<path d="M19 16H24" stroke="#005ED3" stroke-width="1.5" stroke-linecap="round" stroke-linejoin="round"/>
<path d="M21.5 13.5V18.5" stroke="#005ED3" stroke-width="1.5" stroke-linecap="round" stroke-linejoin="round"/>
</svg>
