<svg width="68" height="68" viewBox="0 0 68 68" fill="none" xmlns="http://www.w3.org/2000/svg">
<path fill-rule="evenodd" clip-rule="evenodd" d="M8.5 14.875V57.375L17 53.125L25.5 57.375L34 53.125L42.5 57.375L51 53.125L59.5 57.375V14.875C59.5 14.3114 59.2761 13.7709 58.8776 13.3724C58.4791 12.9739 57.9386 12.75 57.375 12.75H10.625C10.0614 12.75 9.52091 12.9739 9.1224 13.3724C8.72388 13.7709 8.5 14.3114 8.5 14.875ZM27.625 26.5625L21.25 38.25H34L27.625 26.5625Z" fill="white" fill-opacity="0.2"/>
<path d="M8.5 57.375H7.25C7.25 57.8082 7.47432 58.2106 7.84284 58.4383C8.21136 58.6661 8.67153 58.6868 9.05902 58.493L8.5 57.375ZM17 53.125L17.559 52.007C17.2071 51.831 16.7929 51.831 16.441 52.007L17 53.125ZM25.5 57.375L24.941 58.493C25.2929 58.669 25.7071 58.669 26.059 58.493L25.5 57.375ZM34 53.125L34.559 52.007C34.2071 51.831 33.7929 51.831 33.441 52.007L34 53.125ZM42.5 57.375L41.941 58.493C42.2929 58.669 42.7071 58.669 43.059 58.493L42.5 57.375ZM51 53.125L51.559 52.007C51.2071 51.831 50.7929 51.831 50.441 52.007L51 53.125ZM59.5 57.375L58.941 58.493C59.3285 58.6868 59.7886 58.6661 60.1572 58.4383C60.5257 58.2106 60.75 57.8082 60.75 57.375H59.5ZM58.8776 13.3724L57.9937 14.2563L57.9937 14.2563L58.8776 13.3724ZM9.1224 13.3724L10.0063 14.2563L9.1224 13.3724ZM21.25 38.25L20.1526 37.6514C19.9414 38.0387 19.9499 38.5087 20.1751 38.8881C20.4003 39.2674 20.8088 39.5 21.25 39.5V38.25ZM27.625 26.5625L28.7224 25.9639C28.5033 25.5624 28.0824 25.3125 27.625 25.3125C27.1676 25.3125 26.7467 25.5624 26.5276 25.9639L27.625 26.5625ZM34 38.25V39.5C34.4412 39.5 34.8497 39.2674 35.0749 38.8881C35.3001 38.5087 35.3086 38.0387 35.0974 37.6514L34 38.25ZM9.75 57.375V14.875H7.25V57.375H9.75ZM16.441 52.007L7.94098 56.257L9.05902 58.493L17.559 54.243L16.441 52.007ZM26.059 56.257L17.559 52.007L16.441 54.243L24.941 58.493L26.059 56.257ZM33.441 52.007L24.941 56.257L26.059 58.493L34.559 54.243L33.441 52.007ZM43.059 56.257L34.559 52.007L33.441 54.243L41.941 58.493L43.059 56.257ZM50.441 52.007L41.941 56.257L43.059 58.493L51.559 54.243L50.441 52.007ZM60.059 56.257L51.559 52.007L50.441 54.243L58.941 58.493L60.059 56.257ZM58.25 14.875V57.375H60.75V14.875H58.25ZM57.9937 14.2563C58.1578 14.4204 58.25 14.6429 58.25 14.875H60.75C60.75 13.9799 60.3944 13.1215 59.7615 12.4885L57.9937 14.2563ZM57.375 14C57.6071 14 57.8296 14.0922 57.9937 14.2563L59.7615 12.4885C59.1286 11.8556 58.2701 11.5 57.375 11.5V14ZM10.625 14H57.375V11.5H10.625V14ZM10.0063 14.2563C10.1704 14.0922 10.3929 14 10.625 14V11.5C9.72989 11.5 8.87145 11.8556 8.23851 12.4885L10.0063 14.2563ZM9.75 14.875C9.75 14.6429 9.84219 14.4204 10.0063 14.2563L8.23852 12.4885C7.60558 13.1214 7.25 13.9799 7.25 14.875H9.75ZM22.3474 38.8486L28.7224 27.1611L26.5276 25.9639L20.1526 37.6514L22.3474 38.8486ZM34 37H21.25V39.5H34V37ZM26.5276 27.1611L32.9026 38.8486L35.0974 37.6514L28.7224 25.9639L26.5276 27.1611Z" fill="white"/>
<path d="M19.125 42.5L27.625 25.5L36.125 42.5" stroke="white" stroke-width="2.5" stroke-linecap="round" stroke-linejoin="round"/>
<path d="M21.25 38.25H34" stroke="white" stroke-width="2.5" stroke-linecap="round" stroke-linejoin="round"/>
<path d="M40.375 34H51" stroke="white" stroke-width="2.5" stroke-linecap="round" stroke-linejoin="round"/>
<path d="M45.6875 28.6875V39.3125" stroke="white" stroke-width="2.5" stroke-linecap="round" stroke-linejoin="round"/>
</svg>
