<svg width="16" height="16" viewBox="0 0 16 16" fill="none" xmlns="http://www.w3.org/2000/svg">
<path d="M10.3867 7.99995C10.3867 9.31995 9.32001 10.3866 8.00001 10.3866C6.68001 10.3866 5.61334 9.31995 5.61334 7.99995C5.61334 6.67995 6.68001 5.61328 8.00001 5.61328C9.32001 5.61328 10.3867 6.67995 10.3867 7.99995Z" stroke="#969DB8" stroke-width="1.5" stroke-linecap="round" stroke-linejoin="round"/>
<path d="M7.99999 13.5138C10.3533 13.5138 12.5467 12.1271 14.0733 9.72714C14.6733 8.78714 14.6733 7.20714 14.0733 6.26714C12.5467 3.86714 10.3533 2.48047 7.99999 2.48047C5.64665 2.48047 3.45332 3.86714 1.92665 6.26714C1.32665 7.20714 1.32665 8.78714 1.92665 9.72714C3.45332 12.1271 5.64665 13.5138 7.99999 13.5138Z" stroke="#969DB8" stroke-width="1.5" stroke-linecap="round" stroke-linejoin="round"/>
</svg>
