<svg width="110" height="32" viewBox="0 0 110 32" fill="none" xmlns="http://www.w3.org/2000/svg">
<path d="M105.772 31.9204H4.14634C1.91057 31.9204 0.0812988 30.1294 0.0812988 27.9403V4.05971C0.0812988 1.87066 1.91057 0.0796146 4.14634 0.0796146H105.772C108.008 0.0796146 109.837 1.87066 109.837 4.05971V27.9403C109.837 30.1294 108.008 31.9204 105.772 31.9204Z" fill="white"/>
<path d="M106.007 -0.0795898H4.15537C1.91463 -0.0795898 0.0812988 1.72041 0.0812988 3.92041V27.9204C0.0812988 30.1204 1.91463 31.9204 4.15537 31.9204H106.007C108.248 31.9204 110.081 30.1204 110.081 27.9204V3.92041C110.081 1.72041 108.248 -0.0795898 106.007 -0.0795898ZM106.007 0.560411C107.894 0.560411 109.429 2.06793 109.429 3.92041V27.9204C109.429 29.7732 107.894 31.2807 106.007 31.2807H4.15537C2.26859 31.2807 0.733151 29.7732 0.733151 27.9204V3.92041C0.733151 2.06793 2.26859 0.560411 4.15537 0.560411H106.007Z" fill="black"/>
<path d="M38.6327 8.23369C38.6327 8.9006 38.431 9.4317 38.027 9.82788C37.5682 10.299 36.9701 10.5347 36.2349 10.5347C35.5308 10.5347 34.9322 10.2959 34.4399 9.81761C33.9468 9.33968 33.7007 8.74705 33.7007 8.03994C33.7007 7.33252 33.9468 6.7402 34.4399 6.26195C34.9322 5.78402 35.5308 5.5449 36.2349 5.5449C36.5843 5.5449 36.9187 5.61176 37.2363 5.74517C37.5539 5.87891 37.8086 6.05642 37.9991 6.27875L37.5704 6.69881C37.2474 6.32102 36.8028 6.13228 36.2349 6.13228C35.7214 6.13228 35.2774 6.30892 34.9027 6.66243C34.5279 7.01634 34.3406 7.47524 34.3406 8.03994C34.3406 8.60464 34.5279 9.06354 34.9027 9.41745C35.2774 9.77097 35.7214 9.9476 36.2349 9.9476C36.7796 9.9476 37.2338 9.77001 37.5973 9.41435C37.8334 9.18263 37.9699 8.86056 38.0064 8.44695H36.2349V7.87326H38.5987C38.6216 7.99799 38.6327 8.11771 38.6327 8.23369Z" fill="black"/>
<path d="M38.633 8.23368H38.5517C38.551 8.88538 38.3566 9.39157 37.9698 9.77159L37.9689 9.77223L37.9686 9.77286C37.5243 10.2277 36.9532 10.4541 36.2352 10.4551C35.5499 10.4541 34.9763 10.2252 34.4974 9.76132C34.0195 9.29645 33.7831 8.72896 33.7822 8.03993C33.7831 7.35058 34.0195 6.78341 34.4974 6.31885C34.9763 5.85462 35.5499 5.62544 36.2352 5.62449C36.574 5.62449 36.8967 5.6892 37.2044 5.81824C37.5125 5.94823 37.7558 6.11858 37.9371 6.33008L37.9994 6.27874L37.9419 6.22246L37.5131 6.64283L37.5706 6.6988L37.6332 6.64785C37.2952 6.25135 36.8208 6.05147 36.2352 6.05267C35.7026 6.05203 35.2342 6.2383 34.8467 6.60526C34.4555 6.97342 34.2589 7.45812 34.2595 8.03993C34.2589 8.62174 34.4555 9.10644 34.8467 9.4746C35.2342 9.84156 35.7026 10.0278 36.2352 10.0272C36.7979 10.0281 37.2775 9.84124 37.6551 9.47061C37.9073 9.22305 38.0502 8.88013 38.0877 8.45378L38.0952 8.36733H36.3165V7.95284H38.599V7.87324L38.5189 7.88725C38.5412 8.00793 38.5517 8.12263 38.5517 8.23368H38.633H38.7143C38.7143 8.11268 38.7028 7.98835 38.679 7.85899L38.6669 7.79364H36.1539V8.44693V8.52654H38.0066V8.44693L37.9256 8.44009C37.8898 8.84065 37.7596 9.14226 37.5401 9.35806C37.1908 9.69883 36.7621 9.86703 36.2352 9.86799C35.7407 9.86735 35.3212 9.70066 34.9595 9.36021C34.6013 9.02094 34.423 8.58783 34.4221 8.03993C34.423 7.49203 34.6013 7.05891 34.9595 6.71965C35.3212 6.37919 35.7407 6.21251 36.2352 6.21187C36.7849 6.21314 37.2 6.39097 37.5084 6.75014L37.5656 6.81668L38.0569 6.33501L38.1095 6.28343L38.0616 6.22771C37.8618 5.99456 37.5957 5.80948 37.2686 5.67209C36.9408 5.5343 36.595 5.46528 36.2352 5.46528C35.5124 5.46465 34.8887 5.7134 34.3827 6.20566C33.8749 6.69696 33.619 7.31452 33.6196 8.03993C33.619 8.76502 33.8749 9.38289 34.383 9.87452C34.8887 10.3665 35.5124 10.6149 36.2352 10.6143C36.9878 10.6149 37.6122 10.3701 38.0861 9.88287L38.0273 9.82787L38.0848 9.88415C38.5059 9.47213 38.7148 8.91555 38.7143 8.23368H38.633Z" fill="black"/>
<path d="M42.3804 6.23836H40.159V7.75271H42.1623V8.32664H40.159V9.84099H42.3804V10.4277H39.5327V5.65161H42.3804V6.23836Z" fill="black"/>
<path d="M42.3804 6.23884V6.15924H40.0777V7.83279H42.081V8.24727L40.0777 8.24751V9.92107H42.2991V10.3486H39.614V5.73169H42.2991V6.23884H42.3804V6.15924V6.23884H42.4617V5.65209V5.57249H39.4514V10.5078H42.4617V9.84146V9.76186H40.2403V8.40672H42.2436V7.75318V7.67358H40.2403V6.31844H42.4617V6.23884H42.3804Z" fill="black"/>
<path d="M45.0234 10.4277H44.3961V6.23836H43.0337V5.65161H46.3858V6.23836H45.0234V10.4277Z" fill="black"/>
<path d="M45.0234 10.4282V10.3486H44.4774V6.15924H43.115V5.73169H46.3045V6.15924H44.9421V10.4282H45.0234V10.3486V10.4282H45.1047V6.31844H46.4671V5.65209V5.57249H42.9524V6.23884V6.31844H44.3148V10.5078H45.0234H45.1047V10.4282H45.0234Z" fill="black"/>
<path d="M48.8113 10.4277V5.65161H49.4379V10.4277H48.8113Z" fill="black"/>
<path d="M48.8113 10.4282H48.8926V5.73169H49.3566V10.3486H48.8113V10.4282H48.8926H48.8113V10.5078H49.4379H49.5192V5.57249H48.8113H48.73V10.5078H48.8113V10.4282Z" fill="black"/>
<path d="M52.2184 10.4277H51.5911V6.23836H50.2288V5.65161H53.5808V6.23836H52.2184V10.4277Z" fill="black"/>
<path d="M52.2184 10.4282V10.3486H51.6724V6.15924H50.3101V5.73169H53.4995V6.15924H52.137V10.4282H52.2184V10.3486V10.4282H52.2997V6.31844H53.6621V5.65209V5.57249H50.1475V6.23884V6.31844H51.5098V10.5078H52.2184H52.2997V10.4282H52.2184Z" fill="black"/>
<path d="M56.8125 9.41093C57.1735 9.76882 57.6153 9.9476 58.1378 9.9476C58.6602 9.9476 59.1022 9.76882 59.4627 9.41093C59.8241 9.05304 60.0052 8.59556 60.0052 8.03994C60.0052 7.48432 59.8241 7.02685 59.4627 6.66896C59.1022 6.31107 58.6602 6.13228 58.1378 6.13228C57.6153 6.13228 57.1735 6.31107 56.8125 6.66896C56.452 7.02685 56.271 7.48432 56.271 8.03994C56.271 8.59556 56.452 9.05304 56.8125 9.41093ZM59.9264 9.81077C59.4468 10.2936 58.8504 10.5347 58.1378 10.5347C57.4244 10.5347 56.8283 10.2936 56.3498 9.81077C55.8699 9.32846 55.6311 8.73805 55.6311 8.03994C55.6311 7.34183 55.8699 6.75134 56.3498 6.26911C56.8283 5.78617 57.4244 5.5449 58.1378 5.5449C58.8466 5.5449 59.4414 5.78744 59.9232 6.27222C60.4043 6.757 60.6451 7.34621 60.6451 8.03994C60.6451 8.73805 60.4049 9.32846 59.9264 9.81077Z" fill="black"/>
<path d="M56.8125 9.41091L56.7547 9.46687C57.1292 9.83909 57.5963 10.0281 58.1378 10.0272C58.6789 10.0281 59.1467 9.83909 59.5205 9.46687C59.8975 9.09434 60.087 8.61235 60.0865 8.03993C60.087 7.46751 59.8975 6.98552 59.5205 6.61298C59.1467 6.24076 58.6789 6.05171 58.1378 6.05266C57.5963 6.05171 57.1292 6.24076 56.7547 6.61298C56.3787 6.98552 56.1887 7.46751 56.1897 8.03993C56.1887 8.61235 56.3787 9.09434 56.7547 9.46687L56.8125 9.41091L56.8703 9.35495C56.5254 9.01131 56.353 8.57907 56.3523 8.03993C56.353 7.50078 56.5254 7.06855 56.8703 6.7249C57.2183 6.38134 57.634 6.21282 58.1378 6.21187C58.6411 6.21282 59.0578 6.38134 59.4049 6.7249C59.7505 7.06855 59.9229 7.50078 59.9236 8.03993C59.9229 8.57907 59.7505 9.01131 59.4049 9.35495C59.0578 9.69851 58.6411 9.86703 58.1378 9.86799C57.634 9.86703 57.2183 9.69851 56.8703 9.35495L56.8125 9.41091ZM59.9264 9.81075L59.8683 9.75543C59.4021 10.2231 58.832 10.4541 58.1378 10.4551C57.4432 10.4541 56.8731 10.2231 56.4079 9.75543L56.4057 9.75296L56.4079 9.75543C55.9426 9.28618 55.7131 8.72029 55.7124 8.03993C55.7131 7.35957 55.9426 6.79368 56.4079 6.32443C56.8731 5.85676 57.4432 5.62544 58.1378 5.62449C58.8275 5.62544 59.3963 5.85772 59.8651 6.32785C60.3319 6.79925 60.5628 7.36427 60.5638 8.03993C60.5628 8.72029 60.3326 9.28618 59.8683 9.75543L59.9264 9.81075L59.9849 9.86608C60.4777 9.37048 60.727 8.75571 60.7264 8.03993C60.727 7.32821 60.4767 6.71471 59.9816 6.21688C59.4862 5.71714 58.8657 5.46441 58.1378 5.46528C57.4061 5.46441 56.7836 5.71595 56.2913 6.21378V6.21346C55.7975 6.70938 55.5492 7.32415 55.5498 8.03993C55.5492 8.75571 55.7975 9.37048 56.2913 9.8664L56.2935 9.86862L56.2913 9.86608C56.7836 10.3639 57.4061 10.6149 58.1378 10.6143C58.8692 10.6149 59.4916 10.3639 59.9849 9.86608L59.9264 9.81075Z" fill="black"/>
<path d="M61.5247 10.4277V5.65161H62.2875L64.6582 9.36712H64.6852L64.6582 8.44668V5.65161H65.2855V10.4277H64.6312L62.1509 6.53217H62.1239L62.1509 7.45293V10.4277H61.5247Z" fill="black"/>
<path d="M61.5247 10.4282H61.606V5.73169H62.2424L64.6131 9.4472H64.6852H64.7687L64.7395 8.44596V5.73169H65.2042V10.3486H64.6764L62.196 6.45305H62.1239H62.0404L62.0696 7.45468V10.3486H61.5247V10.4282H61.606H61.5247V10.5078H62.1509H62.2322V7.45213L62.2052 6.5305L62.1239 6.53265V6.61225H62.1509V6.53265L62.082 6.575L64.5861 10.5078H65.2855H65.3668V5.57249H64.6582H64.5769V8.44811L64.6039 9.36974L64.6852 9.36759V9.28799H64.6582V9.36759L64.7272 9.32532L62.3325 5.57249H61.5247H61.4434V10.5078H61.5247V10.4282Z" fill="black"/>
<path d="M87.0213 23.9603H88.5383V14.0091H87.0213V23.9603ZM100.685 17.5938L98.9465 21.9081H98.8944L97.0896 17.5938H95.4554L98.1619 23.6239L96.6188 26.9781H98.2018L102.372 17.5938H100.685ZM92.0822 22.8301C91.5847 22.8301 90.892 22.5869 90.892 21.9849C90.892 21.2169 91.7554 20.9224 92.5001 20.9224C93.1676 20.9224 93.4806 21.0632 93.8863 21.2555C93.7684 22.1771 92.9578 22.8301 92.0822 22.8301ZM92.2652 17.3761C91.1668 17.3761 90.0294 17.8499 89.5587 18.8997L90.905 19.4501C91.1928 18.8997 91.7286 18.7203 92.2912 18.7203C93.0757 18.7203 93.8733 19.1814 93.8863 20.0008V20.1031C93.6115 19.9494 93.0237 19.7191 92.3042 19.7191C90.853 19.7191 89.3749 20.4998 89.3749 21.9594C89.3749 23.2909 90.5652 24.1488 91.8985 24.1488C92.9188 24.1488 93.4806 23.7007 93.8343 23.1759H93.8863V23.9439H95.3505V20.1285C95.3505 18.3621 94.0042 17.3761 92.2652 17.3761ZM82.8896 18.8052H80.7318V15.3941H82.8896C84.0237 15.3941 84.6676 16.3135 84.6676 17.0996C84.6676 17.8708 84.0237 18.8052 82.8896 18.8052ZM82.8505 14.0091H79.2156V23.9603H80.7318V20.1902H82.8505C84.5318 20.1902 86.1847 18.9983 86.1847 17.0996C86.1847 15.201 84.5318 14.0091 82.8505 14.0091ZM63.0286 22.8319C61.9805 22.8319 61.103 21.9728 61.103 20.7927C61.103 19.6003 61.9805 18.7281 63.0286 18.7281C64.0633 18.7281 64.8753 19.6003 64.8753 20.7927C64.8753 21.9728 64.0633 22.8319 63.0286 22.8319ZM64.7705 18.151H64.7181C64.3777 17.7535 63.7225 17.3945 62.8974 17.3945C61.1685 17.3945 59.5838 18.882 59.5838 20.7927C59.5838 22.6908 61.1685 24.1656 62.8974 24.1656C63.7225 24.1656 64.3777 23.8064 64.7181 23.3963H64.7705V23.8835C64.7705 25.179 64.0633 25.8714 62.9238 25.8714C61.9939 25.8714 61.4175 25.2172 61.1815 24.6659L59.8588 25.2044C60.2387 26.1021 61.2473 27.2051 62.9238 27.2051C64.7051 27.2051 66.2113 26.1789 66.2113 23.6783V17.5997H64.7705V18.151ZM67.2591 23.9603H68.7784V14.0088H67.2591V23.9603ZM71.0182 20.6774C70.9789 19.3692 72.053 18.7026 72.8256 18.7026C73.4286 18.7026 73.9391 18.9973 74.1091 19.4209L71.0182 20.6774ZM75.7335 19.549C75.4457 18.7921 74.5676 17.3945 72.7732 17.3945C70.9919 17.3945 69.512 18.7666 69.512 20.78C69.512 22.678 70.9789 24.1656 72.9435 24.1656C74.5286 24.1656 75.4457 23.2165 75.8253 22.6652L74.6465 21.8956C74.2538 22.46 73.7164 22.8319 72.9435 22.8319C72.1708 22.8319 71.6208 22.4856 71.2669 21.8061L75.8904 19.9336L75.7335 19.549ZM38.8975 18.4333V19.8695H42.4077C42.3029 20.6774 42.0278 21.2672 41.6086 21.6777C41.098 22.178 40.299 22.7293 38.8975 22.7293C36.7363 22.7293 35.0468 21.0237 35.0468 18.9078C35.0468 16.7918 36.7363 15.086 38.8975 15.086C40.0633 15.086 40.9144 15.535 41.5432 16.1121L42.5779 15.099C41.7004 14.2781 40.5346 13.6497 38.8975 13.6497C35.9373 13.6497 33.4487 16.0095 33.4487 18.9078C33.4487 21.8061 35.9373 24.1656 38.8975 24.1656C40.4956 24.1656 41.7004 23.6528 42.6434 22.6908C43.6126 21.7418 43.914 20.4081 43.914 19.331C43.914 18.9973 43.8879 18.6898 43.8352 18.4333H38.8975ZM47.9047 22.8319C46.8567 22.8319 45.9529 21.9855 45.9529 20.78C45.9529 19.5617 46.8567 18.7281 47.9047 18.7281C48.9524 18.7281 49.8562 19.5617 49.8562 20.78C49.8562 21.9855 48.9524 22.8319 47.9047 22.8319ZM47.9047 17.3945C45.9922 17.3945 44.4335 18.8179 44.4335 20.78C44.4335 22.7293 45.9922 24.1656 47.9047 24.1656C49.8169 24.1656 51.3756 22.7293 51.3756 20.78C51.3756 18.8179 49.8169 17.3945 47.9047 17.3945ZM55.4765 22.8319C54.4288 22.8319 53.5249 21.9855 53.5249 20.78C53.5249 19.5617 54.4288 18.7281 55.4765 18.7281C56.5242 18.7281 57.428 19.5617 57.428 20.78C57.428 21.9855 56.5242 22.8319 55.4765 22.8319ZM55.4765 17.3945C53.564 17.3945 52.0056 18.8179 52.0056 20.78C52.0056 22.7293 53.564 24.1656 55.4765 24.1656C57.3887 24.1656 58.9474 22.7293 58.9474 20.78C58.9474 18.8179 57.3887 17.3945 55.4765 17.3945Z" fill="black"/>
<path d="M8.62588 25.8623L8.56547 25.8057C8.32888 25.5606 8.18921 25.18 8.18921 24.6872V24.8032V7.19842C8.18921 7.19683 8.18921 7.19564 8.18921 7.19436C8.18921 7.19588 8.18921 7.19715 8.18921 7.19874V7.31504C8.18921 6.78139 8.35205 6.3794 8.6249 6.13836L18.6979 16.0007L8.62588 25.8623ZM8.18921 7.19341C8.18921 7.14955 8.19043 7.10696 8.1927 7.06501C8.19043 7.10664 8.18921 7.14955 8.18921 7.19341ZM8.1927 7.0631C8.1927 7.06254 8.1927 7.06191 8.19295 7.06127C8.1927 7.06191 8.1927 7.06254 8.1927 7.0631ZM8.19295 7.05753C8.19295 7.05721 8.19295 7.05689 8.19295 7.05657C8.19295 7.05689 8.19295 7.05721 8.19295 7.05753Z" fill="url(#paint0_linear_2854_1378)"/>
<path d="M22.0552 19.4053L22.1317 19.3627L26.1097 17.1497C26.489 16.9386 26.7417 16.6826 26.8678 16.4118C26.7421 16.6826 26.4892 16.9389 26.1097 17.15L22.1317 19.363L22.0552 19.4053ZM22.0561 19.2887L18.698 16.0001L22.0558 12.7122L26.1097 14.9671C26.6245 15.2536 26.9135 15.6227 26.9618 15.9998C26.9618 16.0001 26.9618 16.0008 26.9618 16.0013C26.9135 16.3776 26.6245 16.747 26.1097 17.0334L22.0561 19.2887Z" fill="url(#paint1_linear_2854_1378)"/>
<path d="M9.34389 26.2383C9.06251 26.2383 8.81698 26.1487 8.62552 25.9796L8.62584 25.9793C8.81731 26.1484 9.06316 26.2383 9.34454 26.2383C9.36893 26.2383 9.39373 26.2376 9.41885 26.2364C9.3934 26.2376 9.36828 26.2383 9.34389 26.2383ZM9.34422 26.1217C9.06283 26.122 8.81731 26.0321 8.62584 25.863V25.8627L18.6979 16.0011L22.056 19.2896L10.255 25.8546C9.92852 26.0359 9.61918 26.1217 9.34422 26.1217ZM8.623 25.9774C8.60519 25.9616 8.58771 25.9448 8.57056 25.9274L8.623 25.9774Z" fill="url(#paint2_linear_2854_1378)"/>
<path d="M18.6978 16.0005L8.62476 6.1382C8.81622 5.96936 9.06142 5.87981 9.34248 5.87981C9.61817 5.87981 9.92776 5.96594 10.2549 6.14751L22.0556 12.7125L18.6978 16.0005ZM22.1315 12.6383L10.2549 6.03129C9.92776 5.84964 9.61817 5.76351 9.34248 5.76351C9.34118 5.76351 9.34028 5.76351 9.33898 5.76351C9.34061 5.76351 9.34183 5.76351 9.34378 5.76351C9.61882 5.76351 9.92809 5.84932 10.2549 6.03097L22.1315 12.6383Z" fill="url(#paint3_linear_2854_1378)"/>
<path d="M9.41884 26.2363C9.67445 26.222 9.95746 26.1359 10.255 25.9708L22.055 19.4061L10.255 25.9708C9.95771 26.1362 9.67445 26.222 9.41884 26.2363ZM8.62551 25.9795L8.62299 25.9773C8.62389 25.9779 8.62486 25.9788 8.62551 25.9795ZM8.57055 25.9272L8.56543 25.9223V25.922C8.56738 25.9238 8.56893 25.9256 8.57055 25.9272Z" fill="white"/>
<path d="M22.0552 19.4053L22.1325 19.3624L22.0552 19.4053Z" fill="url(#paint4_linear_2854_1378)"/>
<path d="M9.34454 26.2383C9.06315 26.2383 8.8173 26.1484 8.62584 25.9793L8.62551 25.9796C8.62486 25.9789 8.62389 25.9781 8.62299 25.9774L8.57055 25.9274C8.56893 25.9258 8.56738 25.9239 8.56543 25.9221L8.62584 25.863C8.8173 26.0321 9.06283 26.122 9.34421 26.1217C9.61917 26.1217 9.92852 26.0359 10.255 25.8546L22.056 19.2896L22.1316 19.3636L22.055 19.4062L10.255 25.9709C9.95746 26.136 9.67445 26.2221 9.41884 26.2364C9.39372 26.2376 9.36893 26.2383 9.34454 26.2383Z" fill="url(#paint5_linear_2854_1378)"/>
<path d="M8.56547 25.9219C8.32888 25.6768 8.18921 25.2962 8.18921 24.8034V24.8031C8.18921 25.2962 8.32888 25.6765 8.56547 25.9216V25.9219Z" fill="white"/>
<path d="M8.56547 25.9219C8.32888 25.6768 8.18921 25.2965 8.18921 24.8034V24.6874C8.18921 25.1802 8.32888 25.5608 8.56547 25.8059L8.62588 25.8625L8.56547 25.9219Z" fill="url(#paint6_linear_2854_1378)"/>
<path d="M8.56543 25.9219L8.62646 25.8621V25.8623L8.56543 25.9219Z" fill="url(#paint7_linear_2854_1378)"/>
<path d="M26.8679 16.4126C26.9309 16.2782 26.9625 16.1402 26.9625 16.0021C26.9625 16.0019 26.9625 16.0015 26.9625 16.0015C26.9625 16.1399 26.9309 16.2779 26.8679 16.4126Z" fill="white"/>
<path d="M22.1318 19.3633L22.0562 19.2893L26.1097 17.034C26.6245 16.7476 26.9136 16.3782 26.9618 16.0019C26.9618 16.14 26.9304 16.2781 26.8679 16.4124C26.7418 16.6832 26.489 16.9392 26.1097 17.1503L22.1318 19.3633Z" fill="url(#paint8_linear_2854_1378)"/>
<path d="M26.9618 16.0005V16.0002C26.9614 15.5838 26.6772 15.1675 26.1096 14.8515L22.1317 12.6385H22.1313L22.1317 12.6383L26.1096 14.8512C26.6779 15.1671 26.9624 15.5841 26.9618 16.0005Z" fill="#404040"/>
<path d="M26.9617 16.0005C26.9134 15.6233 26.6244 15.2542 26.1096 14.9678L22.0557 12.7128L22.1313 12.6388H22.1316L26.1096 14.8518C26.6771 15.1678 26.9614 15.5841 26.9617 16.0005Z" fill="url(#paint9_linear_2854_1378)"/>
<path d="M8.18921 7.19434C8.18921 7.19402 8.18921 7.1937 8.18921 7.19338C8.18921 7.1937 8.18921 7.19402 8.18921 7.19434ZM8.1927 7.06498C8.1927 7.06435 8.1927 7.06371 8.1927 7.06307C8.1927 7.06371 8.1927 7.06435 8.1927 7.06498ZM8.19295 7.06124C8.19295 7.05997 8.19295 7.05877 8.19295 7.0575C8.19295 7.05877 8.19295 7.05997 8.19295 7.06124ZM8.19295 7.05655C8.24002 6.2388 8.69417 5.76644 9.33661 5.76365C9.05807 5.76524 8.81547 5.8548 8.62555 6.02236V6.02204L8.62327 6.02427C8.60327 6.04194 8.58425 6.06065 8.56547 6.07991C8.35205 6.30096 8.21742 6.63211 8.19295 7.05655Z" fill="#404040"/>
<path d="M8.18921 7.31494V7.19864C8.18921 7.19705 8.18921 7.19578 8.18921 7.19427C8.18921 7.19395 8.18921 7.19363 8.18921 7.19331C8.18921 7.14945 8.19043 7.10654 8.1927 7.06491C8.1927 7.06428 8.1927 7.06364 8.1927 7.063C8.1927 7.06245 8.1927 7.06181 8.19295 7.06117C8.19295 7.0599 8.19295 7.0587 8.19295 7.05743C8.19295 7.05711 8.19295 7.05679 8.19295 7.05648C8.21742 6.63204 8.35205 6.30089 8.56547 6.07984L8.6249 6.13826C8.35205 6.3793 8.18921 6.78129 8.18921 7.31494ZM8.62327 6.02419L8.62555 6.02197C8.6249 6.02292 8.62392 6.02356 8.62327 6.02419Z" fill="url(#paint10_linear_2854_1378)"/>
<path d="M22.0557 12.7129L10.255 6.14788C9.92787 5.9663 9.61828 5.88017 9.34258 5.88017C9.06153 5.88017 8.81632 5.96973 8.62486 6.13856L8.56543 6.08013C8.58421 6.06087 8.60323 6.04216 8.62323 6.02449C8.62388 6.02385 8.62486 6.02322 8.62551 6.02258C8.81543 5.85502 9.05803 5.76547 9.33657 5.76388C9.33722 5.76388 9.33811 5.76388 9.33909 5.76388C9.34039 5.76388 9.34128 5.76388 9.34258 5.76388C9.61828 5.76388 9.92787 5.85 10.255 6.03165L22.1316 12.6386L22.1313 12.6389L22.0557 12.7129Z" fill="url(#paint11_linear_2854_1378)"/>
<defs>
<linearGradient id="paint0_linear_2854_1378" x1="17.8047" y1="7.01271" x2="4.44851" y2="20.654" gradientUnits="userSpaceOnUse">
<stop stop-color="#00A0FF"/>
<stop offset="0.00657445" stop-color="#00A1FF"/>
<stop offset="0.2601" stop-color="#00BEFF"/>
<stop offset="0.5122" stop-color="#00D2FF"/>
<stop offset="0.7604" stop-color="#00DFFF"/>
<stop offset="1" stop-color="#00E3FF"/>
</linearGradient>
<linearGradient id="paint1_linear_2854_1378" x1="27.5891" y1="16.0006" x2="7.9167" y2="16.0006" gradientUnits="userSpaceOnUse">
<stop stop-color="#FFE000"/>
<stop offset="0.4087" stop-color="#FFBD00"/>
<stop offset="0.7754" stop-color="#FFA500"/>
<stop offset="1" stop-color="#FF9C00"/>
</linearGradient>
<linearGradient id="paint2_linear_2854_1378" x1="20.2658" y1="17.8282" x2="2.15382" y2="36.3267" gradientUnits="userSpaceOnUse">
<stop stop-color="#FF3A44"/>
<stop offset="1" stop-color="#C31162"/>
</linearGradient>
<linearGradient id="paint3_linear_2854_1378" x1="6.01394" y1="0.219712" x2="14.1017" y2="8.48007" gradientUnits="userSpaceOnUse">
<stop stop-color="#32A071"/>
<stop offset="0.0685" stop-color="#2DA771"/>
<stop offset="0.4762" stop-color="#15CF74"/>
<stop offset="0.8009" stop-color="#06E775"/>
<stop offset="1" stop-color="#00F076"/>
</linearGradient>
<linearGradient id="paint4_linear_2854_1378" x1="27.6458" y1="15.9773" x2="7.77169" y2="15.9773" gradientUnits="userSpaceOnUse">
<stop stop-color="#CCB300"/>
<stop offset="0.4087" stop-color="#CC9700"/>
<stop offset="0.7754" stop-color="#CC8400"/>
<stop offset="1" stop-color="#CC7D00"/>
</linearGradient>
<linearGradient id="paint5_linear_2854_1378" x1="20.2658" y1="17.8282" x2="2.15381" y2="36.3267" gradientUnits="userSpaceOnUse">
<stop stop-color="#CC2E36"/>
<stop offset="1" stop-color="#9C0E4E"/>
</linearGradient>
<linearGradient id="paint6_linear_2854_1378" x1="17.8048" y1="7.0129" x2="4.44853" y2="20.6542" gradientUnits="userSpaceOnUse">
<stop stop-color="#008DE0"/>
<stop offset="0.00657445" stop-color="#008DE0"/>
<stop offset="0.2601" stop-color="#00A7E0"/>
<stop offset="0.5122" stop-color="#00B8E0"/>
<stop offset="0.7604" stop-color="#00C4E0"/>
<stop offset="1" stop-color="#00C7E0"/>
</linearGradient>
<linearGradient id="paint7_linear_2854_1378" x1="20.3866" y1="17.7722" x2="2.15128" y2="36.4602" gradientUnits="userSpaceOnUse">
<stop stop-color="#E0333C"/>
<stop offset="1" stop-color="#AB0F56"/>
</linearGradient>
<linearGradient id="paint8_linear_2854_1378" x1="27.5891" y1="16.0012" x2="7.91672" y2="16.0012" gradientUnits="userSpaceOnUse">
<stop stop-color="#E0C500"/>
<stop offset="0.4087" stop-color="#E0A600"/>
<stop offset="0.7754" stop-color="#E09100"/>
<stop offset="1" stop-color="#E08900"/>
</linearGradient>
<linearGradient id="paint9_linear_2854_1378" x1="27.5889" y1="16.0013" x2="7.91657" y2="16.0013" gradientUnits="userSpaceOnUse">
<stop stop-color="#FFE840"/>
<stop offset="0.4087" stop-color="#FFCE40"/>
<stop offset="0.7754" stop-color="#FFBC40"/>
<stop offset="1" stop-color="#FFB540"/>
</linearGradient>
<linearGradient id="paint10_linear_2854_1378" x1="17.8047" y1="7.01261" x2="4.44851" y2="20.6539" gradientUnits="userSpaceOnUse">
<stop stop-color="#40B8FF"/>
<stop offset="0.00657445" stop-color="#40B9FF"/>
<stop offset="0.2601" stop-color="#40CEFF"/>
<stop offset="0.5122" stop-color="#40DDFF"/>
<stop offset="0.7604" stop-color="#40E7FF"/>
<stop offset="1" stop-color="#40EAFF"/>
</linearGradient>
<linearGradient id="paint11_linear_2854_1378" x1="6.01405" y1="0.220073" x2="14.1018" y2="8.48043" gradientUnits="userSpaceOnUse">
<stop stop-color="#65B895"/>
<stop offset="0.0685" stop-color="#62BD95"/>
<stop offset="0.4762" stop-color="#50DB97"/>
<stop offset="0.8009" stop-color="#44ED98"/>
<stop offset="1" stop-color="#40F498"/>
</linearGradient>
</defs>
</svg>
