<svg width="89" height="22" viewBox="0 0 89 22" fill="none" xmlns="http://www.w3.org/2000/svg">
<path d="M13.7485 10.3373C13.7584 9.59884 13.9622 8.87476 14.3409 8.23245C14.7196 7.59015 15.2609 7.05049 15.9144 6.66369C15.4992 6.09287 14.9515 5.62311 14.3147 5.29172C13.678 4.96032 12.9697 4.77643 12.2462 4.75464C10.7029 4.59868 9.20666 5.64369 8.42018 5.64369C7.6185 5.64369 6.40762 4.77012 5.10369 4.79595C4.26028 4.82218 3.4383 5.05828 2.71786 5.48126C1.99742 5.90423 1.40307 6.49965 0.992733 7.20949C-0.784719 10.1721 0.541103 14.5261 2.24378 16.9208C3.09568 18.0935 4.09129 19.4033 5.39404 19.3569C6.66886 19.306 7.14498 18.5743 8.68378 18.5743C10.2083 18.5743 10.655 19.3569 11.9842 19.3274C13.3521 19.306 14.214 18.1495 15.036 16.9658C15.6481 16.1302 16.1191 15.2068 16.4316 14.2296C15.6368 13.906 14.9586 13.3644 14.4815 12.6722C14.0044 11.9801 13.7495 11.168 13.7485 10.3373Z" fill="black"/>
<path d="M11.238 3.17923C11.9838 2.31728 12.3513 1.20938 12.2623 0.0908203C11.1228 0.206035 10.0702 0.730315 9.3143 1.5592C8.9447 1.96413 8.66163 2.43521 8.48127 2.94552C8.3009 3.45584 8.22678 3.99536 8.26315 4.53327C8.8331 4.53892 9.39695 4.41999 9.91224 4.18545C10.4275 3.95091 10.8808 3.60687 11.238 3.17923Z" fill="black"/>
<path d="M29.0431 16.5052H24.8596L23.855 19.361H22.083L26.0455 8.79541H27.8865L31.849 19.361H30.0468L29.0431 16.5052ZM25.2929 15.1874H28.609L26.9742 10.5528H26.9285L25.2929 15.1874Z" fill="black"/>
<path d="M40.4069 15.5092C40.4069 17.903 39.076 19.441 37.0675 19.441C36.5588 19.4666 36.0528 19.3538 35.6075 19.1154C35.1623 18.8771 34.7957 18.5228 34.5499 18.0933H34.5119V21.9087H32.8694V11.6572H34.4592V12.9384H34.4894C34.7466 12.5109 35.1193 12.1585 35.568 11.9187C36.0166 11.6789 36.5244 11.5607 37.0373 11.5766C39.0682 11.5766 40.4069 13.1221 40.4069 15.5092ZM38.7186 15.5092C38.7186 13.9496 37.8814 12.9243 36.604 12.9243C35.3491 12.9243 34.505 13.9712 34.505 15.5092C34.505 17.0613 35.3491 18.1007 36.604 18.1007C37.8814 18.1007 38.7186 17.0829 38.7186 15.5092H38.7186Z" fill="black"/>
<path d="M49.2142 15.5092C49.2142 17.903 47.8828 19.441 45.8744 19.441C45.3656 19.4666 44.8597 19.3538 44.4144 19.1154C43.9691 18.8771 43.6026 18.5228 43.3568 18.0933H43.3188V21.9087H41.6763V11.6572H43.2661V12.9384H43.2963C43.5535 12.5109 43.9262 12.1585 44.3748 11.9187C44.8235 11.6789 45.3313 11.5607 45.8442 11.5766C47.8751 11.5766 49.2142 13.1221 49.2142 15.5092ZM47.5255 15.5092C47.5255 13.9496 46.6883 12.9243 45.4109 12.9243C44.156 12.9243 43.3119 13.9712 43.3119 15.5092C43.3119 17.0613 44.156 18.1007 45.4109 18.1007C46.6883 18.1007 47.5255 17.0829 47.5255 15.5092Z" fill="black"/>
<path d="M55.0341 16.4171C55.1558 17.4648 56.2132 18.1527 57.658 18.1527C59.0424 18.1527 60.0384 17.4648 60.0384 16.5201C60.0384 15.7 59.4377 15.2089 58.0153 14.8724L56.5929 14.5425C54.5776 14.0739 53.642 13.1666 53.642 11.6943C53.642 9.87129 55.2922 8.61914 57.6347 8.61914C59.9547 8.61914 61.5445 9.87129 61.598 11.6943H59.94C59.8408 10.6399 58.9354 10.0034 57.6122 10.0034C56.2891 10.0034 55.3837 10.6473 55.3837 11.5846C55.3837 12.3316 55.962 12.7711 57.3766 13.1076L58.5858 13.3934C60.8376 13.9061 61.7724 14.7768 61.7724 16.3223C61.7724 18.2989 60.1377 19.537 57.5362 19.537C55.1023 19.537 53.4589 18.328 53.3528 16.417L55.0341 16.4171Z" fill="black"/>
<path d="M65.3186 9.83545V11.6584H66.8402V12.9106H65.3186V17.1572C65.3186 17.8169 65.6233 18.1244 66.2922 18.1244C66.4728 18.1213 66.6532 18.1091 66.8325 18.0878V19.3325C66.5317 19.3866 66.2261 19.4111 65.9202 19.4056C64.3001 19.4056 63.6683 18.8198 63.6683 17.3259V12.9106H62.5049V11.6584H63.6683V9.83545H65.3186Z" fill="black"/>
<path d="M67.7207 15.5102C67.7207 13.0865 69.2035 11.5635 71.5158 11.5635C73.8358 11.5635 75.3117 13.0865 75.3117 15.5102C75.3117 17.9405 73.8435 19.4569 71.5158 19.4569C69.1888 19.4569 67.7207 17.9405 67.7207 15.5102ZM73.6381 15.5102C73.6381 13.8476 72.8467 12.8663 71.5158 12.8663C70.1848 12.8663 69.3934 13.8551 69.3934 15.5102C69.3934 17.1794 70.1848 18.1532 71.5158 18.1532C72.8467 18.1532 73.6381 17.1794 73.6381 15.5102H73.6381Z" fill="black"/>
<path d="M76.666 11.6571H78.2326V12.9683H78.2706C78.3765 12.5588 78.6257 12.1969 78.9762 11.9434C79.3268 11.69 79.7572 11.5604 80.1953 11.5765C80.3846 11.5759 80.5733 11.5957 80.758 11.6355V13.1145C80.5191 13.0442 80.2698 13.0119 80.02 13.019C79.7814 13.0096 79.5435 13.0501 79.3227 13.1377C79.1019 13.2252 78.9034 13.3577 78.7408 13.5261C78.5782 13.6945 78.4554 13.8947 78.3807 14.1131C78.3061 14.3315 78.2815 14.5628 78.3085 14.7912V19.3603H76.666L76.666 11.6571Z" fill="black"/>
<path d="M88.3307 17.0988C88.1097 18.4972 86.6951 19.4569 84.8852 19.4569C82.5574 19.4569 81.1125 17.9555 81.1125 15.5467C81.1125 13.1305 82.5651 11.5635 84.8161 11.5635C87.03 11.5635 88.4221 13.0275 88.4221 15.3631V15.9049H82.7706V16.0004C82.7445 16.2839 82.7814 16.5695 82.8787 16.8382C82.9761 17.107 83.1318 17.3527 83.3353 17.559C83.5389 17.7654 83.7858 17.9277 84.0596 18.0352C84.3333 18.1426 84.6277 18.1928 84.9231 18.1823C85.3113 18.2173 85.7008 18.1308 86.0337 17.9356C86.3667 17.7404 86.6253 17.4469 86.771 17.0988L88.3307 17.0988ZM82.7783 14.7998H86.7788C86.7935 14.5449 86.7534 14.2898 86.6609 14.0505C86.5684 13.8113 86.4255 13.593 86.2412 13.4094C86.0569 13.2258 85.8352 13.0809 85.5899 12.9837C85.3447 12.8866 85.0812 12.8392 84.8161 12.8447C84.5486 12.8432 84.2835 12.8926 84.036 12.9903C83.7885 13.0879 83.5635 13.2317 83.3741 13.4135C83.1846 13.5953 83.0344 13.8114 82.9322 14.0493C82.8299 14.2872 82.7776 14.5423 82.7783 14.7998V14.7998Z" fill="black"/>
<path d="M25.0877 0.842187C25.4321 0.818398 25.7776 0.868478 26.0994 0.988813C26.4212 1.10915 26.7113 1.29674 26.9487 1.53806C27.186 1.77937 27.3648 2.0684 27.4721 2.38428C27.5794 2.70017 27.6126 3.03505 27.5691 3.36476C27.5691 4.98665 26.6586 5.91894 25.0877 5.91894H23.1829V0.842187H25.0877ZM24.0019 5.20098H24.9962C25.2423 5.21514 25.4885 5.1763 25.717 5.08729C25.9455 4.99828 26.1505 4.86134 26.3171 4.68644C26.4837 4.51154 26.6077 4.30308 26.6801 4.07623C26.7524 3.84939 26.7713 3.60987 26.7354 3.3751C26.7687 3.14127 26.7479 2.90323 26.6744 2.67805C26.601 2.45286 26.4767 2.24611 26.3105 2.0726C26.1443 1.89909 25.9402 1.76312 25.713 1.67443C25.4858 1.58574 25.241 1.54654 24.9962 1.55961H24.0019V5.20098Z" fill="black"/>
<path d="M28.4942 4.00251C28.4692 3.75073 28.4991 3.4967 28.5821 3.25671C28.665 3.01671 28.7991 2.79606 28.9758 2.60889C29.1526 2.42172 29.368 2.27218 29.6082 2.16984C29.8485 2.06751 30.1083 2.01465 30.371 2.01465C30.6338 2.01465 30.8936 2.06751 31.1339 2.16984C31.3741 2.27218 31.5895 2.42172 31.7662 2.60889C31.943 2.79606 32.0771 3.01671 32.16 3.25671C32.243 3.4967 32.2729 3.75073 32.2479 4.00251C32.2734 4.25454 32.2438 4.50892 32.1611 4.7493C32.0784 4.98968 31.9443 5.21074 31.7676 5.39828C31.5908 5.58581 31.3752 5.73567 31.1347 5.83823C30.8942 5.94078 30.6341 5.99376 30.371 5.99376C30.108 5.99376 29.8479 5.94078 29.6074 5.83823C29.3669 5.73567 29.1513 5.58581 28.9745 5.39828C28.7978 5.21074 28.6637 4.98968 28.581 4.7493C28.4983 4.50892 28.4687 4.25454 28.4942 4.00251ZM31.44 4.00251C31.44 3.17204 31.0525 2.68639 30.3723 2.68639C29.6896 2.68639 29.3056 3.17204 29.3056 4.00251C29.3056 4.83964 29.6897 5.32155 30.3723 5.32155C31.0525 5.32154 31.44 4.8363 31.44 4.00251H31.44Z" fill="black"/>
<path d="M37.2377 5.91911H36.423L35.6004 3.09741H35.5383L34.7192 5.91911H33.9122L32.8152 2.08789H33.6118L34.3248 5.01134H34.3834L35.2017 2.08789H35.9552L36.7734 5.01134H36.8355L37.545 2.08789H38.3304L37.2377 5.91911Z" fill="black"/>
<path d="M39.2527 2.08749H40.0088V2.69611H40.0675C40.167 2.47752 40.335 2.29427 40.5478 2.17192C40.7607 2.04957 41.008 1.9942 41.2551 2.01354C41.4487 1.99952 41.6432 2.02763 41.824 2.09578C42.0048 2.16392 42.1674 2.27037 42.2997 2.40722C42.432 2.54407 42.5306 2.70782 42.5882 2.88634C42.6459 3.06486 42.661 3.25358 42.6326 3.4385V5.91867H41.8472V3.62838C41.8472 3.01269 41.5693 2.7065 40.9884 2.7065C40.8569 2.70061 40.7257 2.72215 40.6037 2.76965C40.4816 2.81715 40.3717 2.88949 40.2815 2.98171C40.1912 3.07393 40.1227 3.18384 40.0807 3.30392C40.0387 3.424 40.0242 3.5514 40.0381 3.67739V5.91871H39.2527L39.2527 2.08749Z" fill="black"/>
<path d="M43.8843 0.592285H44.6697V5.9191H43.8843V0.592285Z" fill="black"/>
<path d="M45.7615 4.00111C45.7365 3.74932 45.7665 3.49528 45.8494 3.25527C45.9324 3.01527 46.0665 2.79461 46.2433 2.60744C46.42 2.42027 46.6354 2.27072 46.8757 2.16838C47.116 2.06605 47.3758 2.01318 47.6386 2.01318C47.9013 2.01318 48.1612 2.06605 48.4014 2.16838C48.6417 2.27072 48.8571 2.42027 49.0339 2.60744C49.2106 2.79461 49.3447 3.01527 49.4277 3.25527C49.5107 3.49528 49.5406 3.74932 49.5156 4.00111C49.5411 4.25316 49.5115 4.50754 49.4287 4.74792C49.346 4.9883 49.2119 5.20935 49.0351 5.39688C48.8584 5.58441 48.6428 5.73427 48.4023 5.83682C48.1618 5.93937 47.9016 5.99234 47.6386 5.99234C47.3755 5.99234 47.1154 5.93937 46.8749 5.83682C46.6343 5.73427 46.4188 5.58441 46.242 5.39688C46.0652 5.20935 45.9312 4.9883 45.8484 4.74792C45.7657 4.50754 45.7361 4.25316 45.7615 4.00111ZM48.7073 4.00111C48.7073 3.17064 48.3198 2.68499 47.6396 2.68499C46.9569 2.68499 46.5729 3.17064 46.5729 4.00112C46.5729 4.83824 46.957 5.32015 47.6396 5.32015C48.3198 5.32014 48.7073 4.83491 48.7073 4.00111H48.7073Z" fill="black"/>
<path d="M50.3425 4.83634C50.3425 4.1467 50.8759 3.74912 51.8227 3.69262L52.9008 3.6328V3.30211C52.9008 2.89746 52.6228 2.66897 52.086 2.66897C51.6475 2.66897 51.3437 2.82393 51.2566 3.0948H50.4962C50.5764 2.43674 51.2194 2.01465 52.1222 2.01465C53.12 2.01465 53.6827 2.49281 53.6827 3.30211V5.91981H52.9267V5.3814H52.8645C52.7384 5.57453 52.5613 5.73198 52.3512 5.83766C52.1412 5.94334 51.9058 5.99347 51.6691 5.98294C51.502 5.99967 51.3332 5.98251 51.1734 5.93257C51.0137 5.88262 50.8666 5.80101 50.7416 5.69298C50.6166 5.58495 50.5165 5.4529 50.4478 5.30536C50.379 5.15781 50.3432 4.99804 50.3425 4.83634ZM52.9008 4.50896V4.18866L51.9289 4.24848C51.3808 4.28379 51.1323 4.46326 51.1323 4.80102C51.1323 5.14583 51.443 5.34649 51.8702 5.34649C51.9954 5.35869 52.1219 5.34652 52.2421 5.31071C52.3623 5.2749 52.4738 5.21618 52.5699 5.13804C52.6661 5.05989 52.7449 4.96393 52.8018 4.85586C52.8586 4.74779 52.8923 4.62982 52.9008 4.50896Z" fill="black"/>
<path d="M54.7148 4.00184C54.7148 2.79124 55.3613 2.02433 56.3668 2.02433C56.6155 2.0133 56.8624 2.07065 57.0785 2.18967C57.2946 2.3087 57.4711 2.48449 57.5872 2.69649H57.6459V0.592285H58.4314V5.9191H57.6787V5.31379H57.6166C57.4914 5.52437 57.3088 5.69796 57.0885 5.81579C56.8682 5.93361 56.6187 5.99117 56.3668 5.98224C55.3544 5.98228 54.7148 5.21535 54.7148 4.00184ZM55.5262 4.00184C55.5262 4.81445 55.9241 5.30343 56.5895 5.30343C57.2515 5.30343 57.6606 4.8074 57.6606 4.00517C57.6606 3.20668 57.2472 2.70358 56.5895 2.70358C55.9284 2.70358 55.5262 3.19588 55.5262 4.00184H55.5262Z" fill="black"/>
<path d="M61.681 4.00251C61.656 3.75073 61.6859 3.4967 61.7688 3.25671C61.8518 3.01671 61.9859 2.79606 62.1626 2.60889C62.3393 2.42172 62.5547 2.27218 62.795 2.16984C63.0352 2.06751 63.2951 2.01465 63.5578 2.01465C63.8205 2.01465 64.0804 2.06751 64.3206 2.16984C64.5609 2.27218 64.7763 2.42172 64.953 2.60889C65.1297 2.79606 65.2639 3.01671 65.3468 3.25671C65.4297 3.4967 65.4596 3.75073 65.4346 4.00251C65.4601 4.25454 65.4306 4.50892 65.3478 4.7493C65.2651 4.98968 65.1311 5.21074 64.9543 5.39828C64.7776 5.58581 64.562 5.73567 64.3215 5.83823C64.081 5.94078 63.8209 5.99376 63.5578 5.99376C63.2948 5.99376 63.0346 5.94078 62.7941 5.83823C62.5536 5.73567 62.3381 5.58581 62.1613 5.39828C61.9845 5.21074 61.8505 4.98968 61.7678 4.7493C61.6851 4.50892 61.6555 4.25454 61.681 4.00251ZM64.6268 4.00251C64.6268 3.17204 64.2392 2.68639 63.5591 2.68639C62.8764 2.68639 62.4923 3.17204 62.4923 4.00251C62.4923 4.83964 62.8764 5.32155 63.5591 5.32155C64.2392 5.32154 64.6268 4.8363 64.6268 4.00251Z" fill="black"/>
<path d="M66.4885 2.08749H67.2446V2.69611H67.3033C67.4029 2.47752 67.5708 2.29427 67.7837 2.17192C67.9966 2.04957 68.2438 1.9942 68.4909 2.01354C68.6846 1.99952 68.879 2.02763 69.0598 2.09578C69.2407 2.16392 69.4033 2.27037 69.5355 2.40722C69.6678 2.54407 69.7665 2.70782 69.8241 2.88634C69.8817 3.06486 69.8969 3.25358 69.8684 3.4385V5.91867H69.083V3.62838C69.083 3.01269 68.8051 2.7065 68.2242 2.7065C68.0928 2.70061 67.9615 2.72215 67.8395 2.76965C67.7175 2.81715 67.6076 2.88949 67.5173 2.98171C67.4271 3.07393 67.3586 3.18384 67.3166 3.30392C67.2746 3.424 67.26 3.5514 67.2739 3.67739V5.91871H66.4885V2.08749Z" fill="black"/>
<path d="M74.3067 1.13379V2.10509H75.169V2.74197H74.3067V4.71201C74.3067 5.11332 74.4785 5.28905 74.8695 5.28905C74.9696 5.28875 75.0696 5.28292 75.169 5.2716V5.90141C75.0279 5.9257 74.885 5.93863 74.7418 5.94005C73.8683 5.94005 73.5205 5.64425 73.5205 4.90559V2.74194H72.8887V2.10506H73.5205V1.13379H74.3067Z" fill="black"/>
<path d="M76.2415 0.592285H77.02V2.70357H77.0821C77.1865 2.48293 77.3591 2.29865 77.5762 2.17584C77.7934 2.05302 78.0446 1.99765 78.2956 2.01726C78.4882 2.00717 78.6808 2.03813 78.8596 2.10793C79.0384 2.17774 79.1989 2.28466 79.3298 2.42108C79.4608 2.5575 79.5588 2.72006 79.6169 2.89714C79.6751 3.07423 79.6919 3.26149 79.6662 3.44555V5.91911H78.88V3.63208C78.88 3.02013 78.5839 2.71021 78.029 2.71021C77.894 2.69955 77.7582 2.71742 77.6311 2.76256C77.5041 2.80769 77.3888 2.87902 77.2933 2.97153C77.1979 3.06405 77.1246 3.17553 77.0786 3.29816C77.0325 3.4208 77.0149 3.55163 77.0269 3.68151V5.91909H76.2415L76.2415 0.592285Z" fill="black"/>
<path d="M84.2461 4.88396C84.1394 5.23411 83.9082 5.53699 83.593 5.73961C83.2777 5.94224 82.8985 6.0317 82.5216 5.99236C82.2594 5.99902 81.9989 5.95068 81.758 5.85068C81.5172 5.75068 81.3018 5.60143 81.1269 5.41328C80.952 5.22513 80.8217 5.00259 80.7451 4.76111C80.6685 4.51962 80.6474 4.26498 80.6832 4.01486C80.6483 3.76396 80.6698 3.50877 80.7462 3.26656C80.8227 3.02435 80.9523 2.80078 81.1263 2.61099C81.3003 2.42119 81.5146 2.2696 81.7547 2.16647C81.9949 2.06334 82.2552 2.01109 82.5182 2.01325C83.6255 2.01325 84.2936 2.74156 84.2936 3.94463V4.20846H81.4833V4.25083C81.471 4.39143 81.4894 4.53295 81.5372 4.66631C81.5851 4.79968 81.6613 4.92195 81.7611 5.02529C81.8609 5.12863 81.982 5.21075 82.1167 5.26639C82.2514 5.32204 82.3967 5.34997 82.5432 5.3484C82.7311 5.37011 82.9214 5.33755 83.09 5.25484C83.2586 5.17213 83.3979 5.04303 83.49 4.88393L84.2461 4.88396ZM81.4833 3.64926H83.4935C83.5034 3.52068 83.4852 3.39152 83.4402 3.27009C83.3951 3.14867 83.3242 3.03765 83.232 2.94418C83.1397 2.85071 83.0282 2.77685 82.9045 2.72736C82.7808 2.67786 82.6477 2.65382 82.5138 2.65677C82.378 2.65513 82.2432 2.67968 82.1174 2.72898C81.9915 2.77828 81.8772 2.85134 81.7812 2.94383C81.6852 3.03633 81.6093 3.1464 81.5582 3.26755C81.507 3.38871 81.4816 3.51849 81.4833 3.64926H81.4833Z" fill="black"/>
</svg>
