<svg width="36" height="36" viewBox="0 0 36 36" fill="none" xmlns="http://www.w3.org/2000/svg">
<circle cx="18" cy="18" r="17" fill="#DB257D" stroke="white" stroke-width="2"/>
<path d="M14.2849 24V12.3636H18.6486C19.5425 12.3636 20.2925 12.5303 20.8986 12.8636C21.5084 13.197 21.9686 13.6553 22.2793 14.2386C22.5936 14.8182 22.7508 15.4773 22.7508 16.2159C22.7508 16.9621 22.5936 17.625 22.2793 18.2045C21.9649 18.7841 21.5008 19.2405 20.8872 19.5739C20.2736 19.9034 19.5179 20.0682 18.6202 20.0682H15.7281V18.3352H18.3361C18.8588 18.3352 19.2868 18.2443 19.6202 18.0625C19.9535 17.8807 20.1997 17.6307 20.3588 17.3125C20.5217 16.9943 20.6031 16.6288 20.6031 16.2159C20.6031 15.803 20.5217 15.4394 20.3588 15.125C20.1997 14.8106 19.9516 14.5663 19.6145 14.392C19.2811 14.214 18.8512 14.125 18.3247 14.125H16.3929V24H14.2849Z" fill="white"/>
</svg>
