<svg width="28" height="28" viewBox="0 0 28 28" fill="none" xmlns="http://www.w3.org/2000/svg">
<path d="M15.75 20.5625C15.5179 20.5625 15.2954 20.6547 15.1313 20.8188C14.9672 20.9829 14.875 21.2054 14.875 21.4375V22.3125H16.625V21.4375C16.625 21.2054 16.5328 20.9829 16.3687 20.8188C16.2046 20.6547 15.9821 20.5625 15.75 20.5625Z" fill="#9BC9FF"/>
<path d="M25.9259 17.8665C25.9259 24.255 21.0267 27.7076 14.8253 27.9876C14.8253 27.9876 13.6851 28.007 13.5325 27.9973C7.15928 27.8379 2.07407 24.3757 2.07407 17.8665C2.07407 17.712 2.07884 17.5526 2.09315 17.3933L3.98221 18.3494L3.8391 17.7313C3.5558 16.5123 3.53571 15.2458 3.78023 14.0183C4.02474 12.7908 4.52809 11.6311 5.2559 10.6185C6.57253 8.78839 8.11335 6.85205 9.5397 5.14266L10.6607 6.27742V5.98286C10.6601 4.56867 11.1709 3.20315 12.0966 2.14398C13.2367 0.83538 14 0 14 0C14 0 16.7859 3.76162 18.8944 6.28708C20.0504 7.67606 20.6825 9.43488 20.6785 11.2511V11.5891L22.1478 9.88935C24.4948 12.072 25.9259 15.3652 25.9259 17.8665Z" fill="url(#paint0_linear_2398_14714)"/>
<path d="M13.3438 26.6731C13.5625 26.6814 13.7812 26.6871 14 26.6871C13.7917 26.6871 13.5918 26.6796 13.3927 26.6709L13.3438 26.6731Z" fill="#D80027"/>
<path d="M7.01224 20.9629V15.872H8.24271V17.9153H10.2487V15.872H11.4767V20.9629H10.2487V18.9171H8.24271V20.9629H7.01224ZM17.0536 18.4174C17.0536 18.9776 16.9459 19.4524 16.7305 19.8418C16.515 20.2312 16.2234 20.527 15.8555 20.7292C15.4892 20.9314 15.0782 21.0325 14.6225 21.0325C14.1651 21.0325 13.7533 20.9306 13.3871 20.7267C13.0208 20.5229 12.73 20.2271 12.5145 19.8393C12.3008 19.4499 12.1939 18.9759 12.1939 18.4174C12.1939 17.8573 12.3008 17.3825 12.5145 16.9931C12.73 16.6036 13.0208 16.3078 13.3871 16.1056C13.7533 15.9035 14.1651 15.8024 14.6225 15.8024C15.0782 15.8024 15.4892 15.9035 15.8555 16.1056C16.2234 16.3078 16.515 16.6036 16.7305 16.9931C16.9459 17.3825 17.0536 17.8573 17.0536 18.4174ZM15.7958 18.4174C15.7958 18.086 15.7486 17.8059 15.6541 17.5772C15.5613 17.3485 15.4271 17.1754 15.2514 17.0577C15.0774 16.94 14.8678 16.8812 14.6225 16.8812C14.3789 16.8812 14.1693 16.94 13.9936 17.0577C13.8179 17.1754 13.6829 17.3485 13.5884 17.5772C13.4956 17.8059 13.4492 18.086 13.4492 18.4174C13.4492 18.7489 13.4956 19.0289 13.5884 19.2576C13.6829 19.4863 13.8179 19.6595 13.9936 19.7772C14.1693 19.8948 14.3789 19.9537 14.6225 19.9537C14.8678 19.9537 15.0774 19.8948 15.2514 19.7772C15.4271 19.6595 15.5613 19.4863 15.6541 19.2576C15.7486 19.0289 15.7958 18.7489 15.7958 18.4174ZM17.373 16.8713V15.872H21.6759V16.8713H20.1323V20.9629H18.9192V16.8713H17.373Z" fill="white"/>
<defs>
<linearGradient id="paint0_linear_2398_14714" x1="8.67456" y1="1.74853" x2="23.4238" y2="20.8192" gradientUnits="userSpaceOnUse">
<stop stop-color="#FF5023"/>
<stop offset="1" stop-color="#ED1C24"/>
</linearGradient>
</defs>
</svg>
