<svg width="16" height="16" viewBox="0 0 16 16" fill="none" xmlns="http://www.w3.org/2000/svg">
<path d="M12.9855 4.565C12.898 4.71251 12.898 4.895 12.9855 5.04001L14.5205 7.65501C14.703 7.96751 14.478 8.3625 14.1155 8.3625H4.99553V14.745H6.15303C6.29053 14.745 6.40303 14.8575 6.40303 14.9975V15.625H7.37802C7.48053 15.625 7.56552 15.7075 7.56552 15.8125C7.56552 15.915 7.48053 16 7.37802 16H1.60303C1.50053 16 1.41553 15.915 1.41553 15.8125C1.41553 15.7075 1.50053 15.625 1.60303 15.625H2.57803V14.9975C2.57803 14.8575 2.69052 14.745 2.82803 14.745H3.98552V0.375H3.81803C3.71553 0.375 3.63053 0.290008 3.63053 0.1875C3.63053 0.082505 3.71553 0 3.81803 0H5.16303C5.26553 0 5.35053 0.082505 5.35053 0.1875C5.35053 0.290008 5.26553 0.375 5.16303 0.375H4.99553V1.24251H14.1155C14.478 1.24251 14.703 1.63751 14.5205 1.95001L12.9855 4.565Z" fill="white"/>
<path d="M12.9855 5.04001C12.898 4.895 12.898 4.71251 12.9855 4.565L14.5205 1.95001C14.703 1.63751 14.478 1.24251 14.1155 1.24251H4.99553V0.375H5.16303C5.26553 0.375 5.35053 0.290008 5.35053 0.1875C5.35053 0.082505 5.26553 0 5.16303 0H3.81802C3.71553 0 3.63052 0.082505 3.63052 0.1875C3.63052 0.290008 3.71553 0.375 3.81802 0.375H3.98552V14.745H2.82803C2.69052 14.745 2.57803 14.8575 2.57803 14.9975V15.625H1.60303C1.50053 15.625 1.41553 15.7075 1.41553 15.8125C1.41553 15.915 1.50053 16 1.60303 16H7.37802C7.48053 16 7.56552 15.915 7.56552 15.8125C7.56552 15.7075 7.48053 15.625 7.37802 15.625H6.40303V14.9975C6.40303 14.8575 6.29053 14.745 6.15303 14.745H4.99553V8.3625H14.1155C14.478 8.3625 14.703 7.96751 14.5205 7.65501L12.9855 5.04001ZM9.08052 7.0525C8.75803 7.0525 8.49553 6.79001 8.49553 6.46751C8.49553 6.1425 8.75803 5.88 9.08052 5.88C9.40553 5.88 9.66553 6.1425 9.66553 6.46751C9.66553 6.79001 9.40553 7.0525 9.08052 7.0525ZM9.93804 2.8775L9.58052 4.91C9.55553 5.04251 9.44052 5.14001 9.30803 5.14001H8.85553C8.72302 5.14001 8.60803 5.04251 8.58302 4.91L8.22302 2.8775C8.19553 2.7075 8.32553 2.5525 8.49553 2.5525H9.66803C9.83803 2.5525 9.96803 2.7075 9.93804 2.8775Z" fill="#FB324A"/>
</svg>
