<svg width="60" height="53" viewBox="0 0 60 53" fill="none" xmlns="http://www.w3.org/2000/svg">
<path fill-rule="evenodd" clip-rule="evenodd" d="M8 0C3.58172 0 0 3.58171 0 7.99999V35.0145C0 39.4328 3.58172 43.0145 8 43.0145H49.3491L60 50.6957V35.0145V30.7246V8C60 3.58172 56.4183 0 52 0H8Z" fill="#EEF6FF"/>
<path fill-rule="evenodd" clip-rule="evenodd" d="M23.1711 25.7424C22.364 26.8325 20.8385 28.0061 18.7616 28.9832C18.2219 29.2371 18.4654 30.024 19.0612 29.9514C23.4248 29.4192 26.2532 27.5766 27.7977 24.8364C28.3721 23.8173 28.733 22.7325 28.9252 21.6252C29.0519 20.8951 29.0854 20.3472 29.0854 19.7143C29.0854 16.8863 26.7076 14.5938 23.7744 14.5938C20.8412 14.5938 18.4634 16.8863 18.4634 19.7143C18.4634 22.5423 20.8792 24.8364 23.6552 24.8364C23.5088 25.2241 23.4736 25.3337 23.1711 25.7424ZM34.8553 25.7424C34.0482 26.8325 32.5227 28.0061 30.4458 28.9832C29.9061 29.2371 30.1496 30.024 30.7454 29.9514C35.109 29.4192 37.9374 27.5766 39.4819 24.8364C40.0563 23.8173 40.4172 22.7325 40.6094 21.6252C40.7361 20.8951 40.7696 20.3472 40.7696 19.7143C40.7696 16.8863 38.3918 14.5938 35.4586 14.5938C32.5254 14.5938 30.1476 16.8863 30.1476 19.7143C30.1476 22.5423 32.5634 24.8364 35.3394 24.8364C35.193 25.2241 35.1578 25.3337 34.8553 25.7424Z" fill="#005ED3"/>
</svg>
