<svg width="20" height="20" viewBox="0 0 20 20" fill="none" xmlns="http://www.w3.org/2000/svg">
<circle cx="10" cy="10" r="9.5" fill="url(#paint0_linear_2165_20956)" stroke="white"/>
<mask id="mask0_2165_20956" style="mask-type:alpha" maskUnits="userSpaceOnUse" x="0" y="0" width="20" height="20">
<circle cx="10" cy="10" r="9.5" fill="url(#paint1_linear_2165_20956)" stroke="white"/>
</mask>
<g mask="url(#mask0_2165_20956)">
<path d="M13.5423 9.15954C13.4626 9.29394 13.4626 9.46023 13.5423 9.59236L14.941 11.9751C15.1073 12.2598 14.9023 12.6197 14.572 12.6197H6.26203V18.4354H7.31672C7.44201 18.4354 7.54452 18.5379 7.54452 18.6654V19.2372H8.43291C8.52631 19.2372 8.60375 19.3124 8.60375 19.408C8.60375 19.5014 8.52631 19.5789 8.43291 19.5789H3.17085C3.07746 19.5789 3 19.5014 3 19.408C3 19.3124 3.07746 19.2372 3.17085 19.2372H4.05925V18.6654C4.05925 18.5379 4.16175 18.4354 4.28705 18.4354H5.34173V5.34169H5.18911C5.09572 5.34169 5.01826 5.26425 5.01826 5.17085C5.01826 5.07518 5.09572 5 5.18911 5H6.41465C6.50805 5 6.58549 5.07518 6.58549 5.17085C6.58549 5.26425 6.50805 5.34169 6.41465 5.34169H6.26203V6.13215H14.572C14.9023 6.13215 15.1073 6.49207 14.941 6.77681L13.5423 9.15954Z" fill="#FB324A"/>
<path d="M13.5423 9.59236C13.4626 9.46023 13.4626 9.29394 13.5423 9.15954L14.941 6.77681C15.1073 6.49207 14.9023 6.13215 14.572 6.13215H6.26203V5.34169H6.41465C6.50805 5.34169 6.58549 5.26425 6.58549 5.17085C6.58549 5.07518 6.50805 5 6.41465 5H5.18911C5.09572 5 5.01826 5.07518 5.01826 5.17085C5.01826 5.26425 5.09572 5.34169 5.18911 5.34169H5.34173V18.4354H4.28705C4.16175 18.4354 4.05925 18.5379 4.05925 18.6654V19.2372H3.17085C3.07746 19.2372 3 19.3124 3 19.408C3 19.5014 3.07746 19.5789 3.17085 19.5789H8.43291C8.52631 19.5789 8.60375 19.5014 8.60375 19.408C8.60375 19.3124 8.52631 19.2372 8.43291 19.2372H7.54452V18.6654C7.54452 18.5379 7.44201 18.4354 7.31672 18.4354H6.26203V12.6197H14.572C14.9023 12.6197 15.1073 12.2598 14.941 11.9751L13.5423 9.59236ZM9.98419 11.4261C9.69034 11.4261 9.45116 11.1869 9.45116 10.8931C9.45116 10.5969 9.69034 10.3577 9.98419 10.3577C10.2803 10.3577 10.5172 10.5969 10.5172 10.8931C10.5172 11.1869 10.2803 11.4261 9.98419 11.4261ZM10.7655 7.62192L10.4398 9.4739C10.417 9.59464 10.3122 9.68348 10.1915 9.68348H9.77918C9.65845 9.68348 9.55367 9.59464 9.53088 9.4739L9.20286 7.62192C9.1778 7.46703 9.29626 7.32579 9.45116 7.32579H10.5195C10.6744 7.32579 10.7929 7.46703 10.7655 7.62192Z" fill="white"/>
</g>
<defs>
<linearGradient id="paint0_linear_2165_20956" x1="16" y1="3" x2="4.5" y2="17" gradientUnits="userSpaceOnUse">
<stop stop-color="#FD3B52"/>
<stop offset="1" stop-color="#FF122E"/>
</linearGradient>
<linearGradient id="paint1_linear_2165_20956" x1="16" y1="3" x2="4.5" y2="17" gradientUnits="userSpaceOnUse">
<stop stop-color="#FD3B52"/>
<stop offset="1" stop-color="#FF122E"/>
</linearGradient>
</defs>
</svg>
