<svg width="28" height="28" viewBox="0 0 28 28" fill="none" xmlns="http://www.w3.org/2000/svg">
<path d="M11.375 19.25C13.308 19.25 14.875 17.683 14.875 15.75C14.875 13.817 13.308 12.25 11.375 12.25C9.442 12.25 7.875 13.817 7.875 15.75C7.875 17.683 9.442 19.25 11.375 19.25Z" stroke="#969DB8" stroke-width="1.5" stroke-linecap="round" stroke-linejoin="round"/>
<path opacity="0.2" d="M7.875 15.75C7.875 15.0578 8.08027 14.3811 8.46486 13.8055C8.84944 13.2299 9.39607 12.7813 10.0356 12.5164C10.6751 12.2515 11.3789 12.1822 12.0578 12.3173C12.7367 12.4523 13.3604 12.7856 13.8499 13.2751C14.3394 13.7646 14.6727 14.3883 14.8077 15.0672C14.9428 15.7461 14.8735 16.4499 14.6086 17.0894C14.3437 17.7289 13.8951 18.2756 13.3195 18.6601C12.7439 19.0447 12.0672 19.25 11.375 19.25H21V8.75H7V15.75H7.875Z" fill="#969DB8"/>
<path d="M5.84063 22.75C6.33728 21.7026 7.12099 20.8176 8.10067 20.1979C9.08035 19.5781 10.2158 19.2492 11.375 19.2492C12.5342 19.2492 13.6697 19.5781 14.6493 20.1979C15.629 20.8176 16.4127 21.7026 16.9094 22.75H23.625C23.8571 22.75 24.0796 22.6578 24.2437 22.4937C24.4078 22.3296 24.5 22.1071 24.5 21.875V6.125C24.5 5.89294 24.4078 5.67038 24.2437 5.50628C24.0796 5.34219 23.8571 5.25 23.625 5.25H4.375C4.14294 5.25 3.92038 5.34219 3.75628 5.50628C3.59219 5.67038 3.5 5.89294 3.5 6.125V21.875C3.5 22.1071 3.59219 22.3296 3.75628 22.4937C3.92038 22.6578 4.14294 22.75 4.375 22.75H5.84063Z" stroke="#969DB8" stroke-width="1.5" stroke-linecap="round" stroke-linejoin="round"/>
<path d="M19.25 19.25H21V8.75H7V10.5" stroke="#969DB8" stroke-width="1.5" stroke-linecap="round" stroke-linejoin="round"/>
</svg>
