<svg width="92" height="28" viewBox="0 0 92 28" fill="none" xmlns="http://www.w3.org/2000/svg">
<path d="M24.663 11.2429C24.2096 13.2918 23.1517 15.66 21.5395 17.975C20.7839 19.0926 19.9022 20.1835 18.945 21.2213C16.8291 23.5096 14.562 25.2392 12.4713 26.277C16.0482 26.277 19.2725 24.6006 21.5395 21.9929C23.9577 19.2522 25.2676 15.3407 24.663 11.2429Z" fill="#005ED3"/>
<path d="M21.54 13.9304C23.6559 10.6575 25.1673 7.33136 25.6459 4.67047C25.7466 4.05847 25.797 3.47307 25.8222 2.99411V2.80785C25.797 1.53062 25.394 0.599305 24.3612 0.146954C23.6307 -0.0925265 22.6735 -0.0393086 21.54 0.306607C20.6332 0.625914 19.6256 1.13148 18.5172 1.84992C13.3786 -1.28993 6.80411 0.0139087 3.10125 4.59064C-0.0474432 8.20946 -0.929076 14.0634 1.0609 18.4805L1.08609 18.4539C0.254831 16.3784 0.204452 13.9038 0.683053 11.642C0.758621 11.1897 0.884569 10.7639 1.03571 10.3116C1.0609 10.2051 1.11127 10.0987 1.13646 9.99225C1.23722 9.72616 1.33798 9.51329 1.43874 9.35364C2.7234 6.47988 5.01565 4.80351 6.72854 5.655C8.44142 6.50649 8.84446 9.32703 7.55979 12.4669C7.20714 13.2652 6.35069 14.9947 5.34311 16.8307C2.84935 21.3809 0.783811 27.3413 4.36072 27.9799C5.46906 28.0863 6.72854 27.767 8.06358 27.1018C12.5977 25.1327 17.9127 19.5981 21.54 13.9304ZM21.54 1.31775C23.7315 0.652523 24.5375 2.11601 22.8246 6.13396C22.472 5.46874 22.0186 4.88334 21.54 4.35116C20.9102 3.63272 20.1546 3.02072 19.3485 2.35549C20.1797 1.87653 20.9102 1.50401 21.54 1.31775Z" fill="#005ED3"/>
<path d="M37.9425 26.3041H34.0797V19.3005H37.9425V20.5173H35.5019V22.055H37.7728V23.2718H35.5019V25.0778H37.9425V26.3041Z" fill="#005ED3"/>
<path d="M39.0476 24.273V23.0754H41.5112V24.273H39.0476Z" fill="#005ED3"/>
<path d="M42.9053 26.3041V19.3005H44.3275V25.0778H47.048V26.3041H42.9053Z" fill="#005ED3"/>
<path d="M52.3462 26.3041H48.4834V19.3005H52.3462V20.5173H49.9055V22.055H52.1764V23.2718H49.9055V25.0778H52.3462V26.3041Z" fill="#005ED3"/>
<path d="M58.1215 26.3041L57.6352 24.6371H55.19L54.7037 26.3041H53.1714L55.5387 19.2718H57.2774L59.6538 26.3041H58.1215ZM57.2957 23.3916C56.8462 21.881 56.5923 21.0267 56.5342 20.8287C56.4791 20.6307 56.4394 20.4742 56.4149 20.3592C56.314 20.768 56.025 21.7788 55.5478 23.3916H57.2957Z" fill="#005ED3"/>
<path d="M62.1903 22.4095H62.649C63.0986 22.4095 63.4305 22.3313 63.6446 22.1748C63.8586 22.0183 63.9657 21.7724 63.9657 21.4371C63.9657 21.1049 63.8556 20.8686 63.6354 20.7281C63.4182 20.5876 63.0803 20.5173 62.6215 20.5173H62.1903V22.4095ZM62.1903 23.6167V26.3041H60.7681V19.3005H62.7224C63.6338 19.3005 64.3082 19.4746 64.7456 19.8227C65.183 20.1676 65.4016 20.693 65.4016 21.3988C65.4016 21.8107 65.2931 22.178 65.0759 22.5006C64.8588 22.8199 64.5514 23.0706 64.1538 23.2526C65.1631 24.8271 65.8206 25.8443 66.1265 26.3041H64.5483L62.9472 23.6167H62.1903Z" fill="#005ED3"/>
<path d="M73.1864 26.3041H71.3788L68.4611 21.0059H68.4198C68.4779 21.9417 68.5069 22.6091 68.5069 23.0083V26.3041H67.2362V19.3005H69.0299L71.9431 24.5461H71.9752C71.9294 23.6359 71.9064 22.9924 71.9064 22.6155V19.3005H73.1864V26.3041Z" fill="#005ED3"/>
<path d="M75.1448 26.3041V19.3005H76.567V26.3041H75.1448Z" fill="#005ED3"/>
<path d="M84.471 26.3041H82.6634L79.7457 21.0059H79.7044C79.7625 21.9417 79.7915 22.6091 79.7915 23.0083V26.3041H78.5208V19.3005H80.3145L83.2277 24.5461H83.2598C83.214 23.6359 83.191 22.9924 83.191 22.6155V19.3005H84.471V26.3041Z" fill="#005ED3"/>
<path d="M88.9755 22.3712H91.6364V26.0023C91.2052 26.1493 90.7984 26.2514 90.4161 26.3089C90.0368 26.3696 89.6484 26.4 89.2508 26.4C88.2385 26.4 87.4647 26.0902 86.9294 25.4706C86.3973 24.8479 86.1312 23.9552 86.1312 22.7928C86.1312 21.6622 86.4401 20.7808 87.0579 20.1485C87.6788 19.5161 88.5382 19.2 89.6362 19.2C90.3243 19.2 90.988 19.3437 91.6272 19.6311L91.1547 20.8191C90.6653 20.5636 90.1561 20.4359 89.627 20.4359C89.0122 20.4359 88.5198 20.6514 88.1498 21.0826C87.7797 21.5137 87.5947 22.0934 87.5947 22.8215C87.5947 23.5816 87.743 24.1628 88.0397 24.5652C88.3394 24.9644 88.7737 25.164 89.3426 25.164C89.6392 25.164 89.9405 25.1321 90.2463 25.0682V23.6071H88.9755V22.3712Z" fill="#005ED3"/>
<path d="M48.6827 0.799805L42.8988 15.1998H39.8445L34.0797 0.799805H37.4202L41.4862 11.0855L45.6094 0.799805H48.6827Z" fill="#005ED3"/>
<path d="M63.0079 0.799805V15.1998H60.4691L53.8071 6.45695V15.1998H50.7528V0.799805H53.3107L59.9537 9.54266V0.799805H63.0079Z" fill="#005ED3"/>
<path d="M72.9078 0.799805C74.0913 0.799805 75.1157 1.01238 75.9811 1.43752C76.8592 1.86266 77.5337 2.46609 78.0045 3.2478C78.4754 4.02952 78.7108 4.95523 78.7108 6.02495C78.7108 7.08095 78.4754 8.00666 78.0045 8.80209C77.5337 9.58381 76.8592 10.1872 75.9811 10.6124C75.1157 11.0238 74.0913 11.2295 72.9078 11.2295H70.2162V15.1998H67.1238V0.799805H72.9078ZM72.736 8.51409C73.665 8.51409 74.3713 8.30152 74.8549 7.87638C75.3384 7.43752 75.5802 6.82038 75.5802 6.02495C75.5802 5.21581 75.3384 4.59866 74.8549 4.17352C74.3713 3.73466 73.665 3.51523 72.736 3.51523H70.2162V8.51409H72.736Z" fill="#005ED3"/>
<path d="M84.2681 3.51523H79.9922V0.799805H91.6364V3.51523H87.3605V15.1998H84.2681V3.51523Z" fill="#005ED3"/>
</svg>
