<svg width="120" height="38" viewBox="0 0 120 38" fill="none" xmlns="http://www.w3.org/2000/svg">
<path d="M32.2969 15.2227C31.7031 17.9057 30.3177 21.0069 28.2066 24.0384C27.217 25.5019 26.0625 26.9306 24.809 28.2895C22.0382 31.2862 19.0694 33.5511 16.3315 34.9101C21.0156 34.9101 25.2378 32.7149 28.2066 29.3C31.3733 25.711 33.0886 20.5888 32.2969 15.2227Z" fill="white"/>
<path d="M28.2071 18.7422C30.978 14.4562 32.9571 10.1006 33.5839 6.61609C33.7158 5.81466 33.7818 5.04807 33.8148 4.42086V4.17694C33.7818 2.50438 33.254 1.2848 31.9016 0.692439C30.945 0.378834 29.6915 0.448524 28.2071 0.90151C27.0196 1.31965 25.7002 1.98171 24.2488 2.92252C17.5196 -1.18919 8.91014 0.518214 4.06116 6.51156C-0.062128 11.2505 -1.21665 18.9164 1.38927 24.7007L1.42225 24.6658C0.333707 21.9479 0.267735 18.7073 0.894474 15.7455C0.993433 15.1531 1.15836 14.5956 1.35628 14.0032C1.38927 13.8639 1.45524 13.7245 1.48823 13.5851C1.62017 13.2366 1.75212 12.9579 1.88406 12.7488C3.56636 8.98555 6.56811 6.79032 8.81118 7.90536C11.0542 9.0204 11.582 12.714 9.89973 16.8257C9.43792 17.871 8.31639 20.136 6.99693 22.5403C3.73129 28.4988 1.02642 36.304 5.71047 37.1403C7.16187 37.2797 8.81118 36.8616 10.5595 35.9904C16.497 33.4119 23.4571 26.1641 28.2071 18.7422ZM28.2071 2.22562C31.0769 1.35449 32.1325 3.27097 29.8894 8.53257C29.4276 7.66144 28.8338 6.89485 28.2071 6.19795C27.3825 5.25714 26.3929 4.4557 25.3373 3.58458C26.4258 2.95737 27.3825 2.46954 28.2071 2.22562Z" fill="white"/>
<path d="M49.6864 34.9462H44.6279V25.7748H49.6864V27.3682H46.4903V29.3819H49.4641V30.9753H46.4903V33.3402H49.6864V34.9462Z" fill="white"/>
<path d="M51.1335 32.2864V30.7181H54.3597V32.2864H51.1335Z" fill="white"/>
<path d="M56.1853 34.9462V25.7748H58.0476V33.3402H61.6102V34.9462H56.1853Z" fill="white"/>
<path d="M68.5484 34.9462H63.4899V25.7748H68.5484V27.3682H65.3523V29.3819H68.3261V30.9753H65.3523V33.3402H68.5484V34.9462Z" fill="white"/>
<path d="M76.1113 34.9462L75.4745 32.7631H72.2724L71.6356 34.9462H69.629L72.729 25.7372H75.0059L78.1179 34.9462H76.1113ZM75.0299 31.1321C74.4412 29.1539 74.1087 28.0352 74.0326 27.7759C73.9606 27.5167 73.9085 27.3117 73.8764 27.1612C73.7443 27.6965 73.3658 29.0201 72.741 31.1321H75.0299Z" fill="white"/>
<path d="M81.4394 29.8461H82.0402C82.6289 29.8461 83.0635 29.7436 83.3438 29.5387C83.6242 29.3338 83.7644 29.0118 83.7644 28.5726C83.7644 28.1377 83.6202 27.8282 83.3318 27.6442C83.0475 27.4602 82.6049 27.3682 82.0041 27.3682H81.4394V29.8461ZM81.4394 31.4269V34.9462H79.577V25.7748H82.1363C83.3298 25.7748 84.2129 26.0027 84.7857 26.4586C85.3584 26.9102 85.6448 27.5982 85.6448 28.5225C85.6448 29.0619 85.5026 29.5429 85.2182 29.9653C84.9339 30.3835 84.5314 30.7118 84.0107 30.9502C85.3324 33.0119 86.1935 34.344 86.594 34.9462H84.5273L82.4307 31.4269H81.4394Z" fill="white"/>
<path d="M95.8391 34.9462H93.4721L89.6512 28.0081H89.5971C89.6732 29.2334 89.7113 30.1075 89.7113 30.6302V34.9462H88.0471V25.7748H90.3961L94.211 32.6439H94.2531C94.193 31.452 94.163 30.6093 94.163 30.1158V25.7748H95.8391V34.9462Z" fill="white"/>
<path d="M98.4037 34.9462V25.7748H100.266V34.9462H98.4037Z" fill="white"/>
<path d="M110.617 34.9462H108.25L104.429 28.0081H104.375C104.451 29.2334 104.489 30.1075 104.489 30.6302V34.9462H102.825V25.7748H105.174L108.988 32.6439H109.031C108.97 31.452 108.94 30.6093 108.94 30.1158V25.7748H110.617V34.9462Z" fill="white"/>
<path d="M116.515 29.7959H120V34.551C119.435 34.7433 118.902 34.8772 118.402 34.9524C117.905 35.0319 117.397 35.0716 116.876 35.0716C115.55 35.0716 114.537 34.666 113.836 33.8546C113.139 33.0391 112.791 31.8702 112.791 30.3479C112.791 28.8675 113.195 27.7132 114.004 26.8852C114.817 26.0571 115.943 25.6431 117.38 25.6431C118.282 25.6431 119.151 25.8313 119.988 26.2077L119.369 27.7634C118.728 27.4288 118.061 27.2615 117.368 27.2615C116.563 27.2615 115.919 27.5438 115.434 28.1084C114.949 28.673 114.707 29.4321 114.707 30.3856C114.707 31.3809 114.901 32.1421 115.29 32.669C115.682 33.1918 116.251 33.4532 116.996 33.4532C117.384 33.4532 117.779 33.4113 118.18 33.3277V31.4144H116.515V29.7959Z" fill="white"/>
<path d="M63.751 1.54736L56.1767 20.4045H52.1772L44.6279 1.54736H49.0025L54.3269 15.0168L59.7264 1.54736H63.751Z" fill="white"/>
<path d="M82.5102 1.54736V20.4045H79.1855L70.4614 8.95553V20.4045H66.4618V1.54736H69.8115L78.5106 12.9963V1.54736H82.5102Z" fill="white"/>
<path d="M95.4742 1.54736C97.0241 1.54736 98.3656 1.82573 99.4988 2.38247C100.649 2.9392 101.532 3.7294 102.149 4.75308C102.765 5.77675 103.073 6.989 103.073 8.38981C103.073 9.77267 102.765 10.9849 102.149 12.0265C101.532 13.0502 100.649 13.8404 99.4988 14.3972C98.3656 14.9359 97.0241 15.2053 95.4742 15.2053H91.9496V20.4045H87.9V1.54736H95.4742ZM95.2493 11.6494C96.4658 11.6494 97.3907 11.371 98.024 10.8143C98.6573 10.2396 98.9739 9.43145 98.9739 8.38981C98.9739 7.33022 98.6573 6.52206 98.024 5.96532C97.3907 5.39063 96.4658 5.10328 95.2493 5.10328H91.9496V11.6494H95.2493Z" fill="white"/>
<path d="M110.351 5.10328H104.751V1.54736H120V5.10328H114.4V20.4045H110.351V5.10328Z" fill="white"/>
</svg>
