<svg width="108" height="34" viewBox="0 0 108 34" fill="none" xmlns="http://www.w3.org/2000/svg">
<path d="M29.0671 13.7506C28.5327 16.1654 27.2858 18.9565 25.3858 21.6848C24.4952 23.002 23.4561 24.2877 22.328 25.5108C19.8342 28.2078 17.1623 30.2462 14.6982 31.4693C18.9139 31.4693 22.7139 29.4936 25.3858 26.4203C28.2358 23.1901 29.7796 18.5801 29.0671 13.7506Z" fill="#005ED3"/>
<path d="M25.3864 16.9179C27.8802 13.0606 29.6614 9.14053 30.2255 6.00448C30.3442 5.28319 30.4036 4.59326 30.4333 4.02877V3.80925C30.4036 2.30394 29.9286 1.20632 28.7114 0.673196C27.8505 0.390951 26.7223 0.453672 25.3864 0.861359C24.3176 1.23768 23.1301 1.83353 21.8239 2.68027C15.7676 -1.02027 8.01912 0.516392 3.65504 5.9104C-0.0559152 10.1754 -1.09498 17.0747 1.25034 22.2806L1.28003 22.2492C0.300337 19.8031 0.240961 16.8866 0.805026 14.2209C0.894089 13.6878 1.04253 13.186 1.22065 12.6529C1.25034 12.5275 1.30972 12.402 1.3394 12.2766C1.45815 11.963 1.57691 11.7121 1.69566 11.5239C3.20973 8.137 5.9113 6.16128 7.93006 7.16482C9.94882 8.16836 10.4238 11.4926 8.90975 15.1931C8.49413 16.1339 7.48475 18.1724 6.29724 20.3362C3.35816 25.6989 0.923777 32.7236 5.13942 33.4763C6.44568 33.6017 7.93006 33.2254 9.50351 32.4414C14.8473 30.1207 21.1114 23.5977 25.3864 16.9179ZM25.3864 2.05306C27.9692 1.26905 28.9192 2.99387 26.9005 7.72931C26.4848 6.9453 25.9505 6.25537 25.3864 5.62816C24.6442 4.78142 23.7536 4.06013 22.8036 3.27612C23.7833 2.71163 24.6442 2.27258 25.3864 2.05306Z" fill="#005ED3"/>
<path d="M44.7182 31.5013H40.1655V23.2471H44.7182V24.6811H41.8417V26.4935H44.5181V27.9275H41.8417V30.056H44.7182V31.5013Z" fill="#005ED3"/>
<path d="M46.0206 29.1075V27.696H48.9241V29.1075H46.0206Z" fill="#005ED3"/>
<path d="M50.5671 31.5013V23.2471H52.2433V30.056H55.4496V31.5013H50.5671Z" fill="#005ED3"/>
<path d="M61.6939 31.5013H57.1413V23.2471H61.6939V24.6811H58.8174V26.4935H61.4939V27.9275H58.8174V30.056H61.6939V31.5013Z" fill="#005ED3"/>
<path d="M68.5006 31.5013L67.9274 29.5366H65.0455L64.4724 31.5013H62.6665L65.4565 23.2132H67.5057L70.3065 31.5013H68.5006ZM67.5273 28.0687C66.9974 26.2883 66.6983 25.2815 66.6298 25.0481C66.5649 24.8148 66.518 24.6303 66.4892 24.4948C66.3702 24.9766 66.0296 26.1679 65.4673 28.0687H67.5273Z" fill="#005ED3"/>
<path d="M73.2958 26.9113H73.8365C74.3664 26.9113 74.7575 26.819 75.0098 26.6346C75.2622 26.4502 75.3883 26.1604 75.3883 25.7652C75.3883 25.3737 75.2586 25.0952 74.999 24.9296C74.7431 24.764 74.3448 24.6811 73.8041 24.6811H73.2958V26.9113ZM73.2958 28.334V31.5013H71.6197V23.2471H73.923C74.9972 23.2471 75.792 23.4522 76.3075 23.8625C76.823 24.269 77.0807 24.8882 77.0807 25.72C77.0807 26.2055 76.9527 26.6384 76.6968 27.0185C76.4409 27.3949 76.0786 27.6904 75.61 27.9049C76.7995 29.7605 77.5745 30.9593 77.935 31.5013H76.075L74.188 28.334H73.2958Z" fill="#005ED3"/>
<path d="M86.2556 31.5013H84.1252L80.6864 25.257H80.6378C80.7063 26.3598 80.7405 27.1465 80.7405 27.617V31.5013H79.2428V23.2471H81.3569L84.7903 29.4293H84.8281C84.7741 28.3566 84.747 27.5982 84.747 27.154V23.2471H86.2556V31.5013Z" fill="#005ED3"/>
<path d="M88.5637 31.5013V23.2471H90.2398V31.5013H88.5637Z" fill="#005ED3"/>
<path d="M99.5553 31.5013H97.425L93.9862 25.257H93.9375C94.006 26.3598 94.0402 27.1465 94.0402 27.617V31.5013H92.5425V23.2471H94.6566L98.09 29.4293H98.1279C98.0738 28.3566 98.0467 27.5982 98.0467 27.154V23.2471H99.5553V31.5013Z" fill="#005ED3"/>
<path d="M104.864 26.8661H108V31.1456C107.492 31.3188 107.013 31.4392 106.562 31.507C106.115 31.5785 105.657 31.6143 105.189 31.6143C103.996 31.6143 103.084 31.2492 102.453 30.519C101.826 29.785 101.512 28.733 101.512 27.3629C101.512 26.0305 101.876 24.9917 102.604 24.2464C103.336 23.5012 104.349 23.1285 105.643 23.1285C106.454 23.1285 107.236 23.2979 107.989 23.6367L107.433 25.0368C106.856 24.7357 106.256 24.5852 105.632 24.5852C104.907 24.5852 104.327 24.8392 103.891 25.3474C103.455 25.8555 103.237 26.5386 103.237 27.3968C103.237 28.2926 103.412 28.9776 103.761 29.4519C104.114 29.9224 104.626 30.1576 105.297 30.1576C105.646 30.1576 106.001 30.12 106.362 30.0447V28.3227H104.864V26.8661Z" fill="#005ED3"/>
<path d="M57.3763 1.44275L50.5595 18.4142H46.9598L40.1655 1.44275H44.1026L48.8946 13.5652L53.7541 1.44275H57.3763Z" fill="#005ED3"/>
<path d="M74.2595 1.44275V18.4142H71.2673L63.4156 8.1101V18.4142H59.816V1.44275H62.8307L70.6599 11.7468V1.44275H74.2595Z" fill="#005ED3"/>
<path d="M85.9272 1.44275C87.3221 1.44275 88.5294 1.69328 89.5493 2.19434C90.5842 2.6954 91.3791 3.40659 91.9341 4.32789C92.489 5.2492 92.7665 6.34022 92.7665 7.60095C92.7665 8.84553 92.489 9.93655 91.9341 10.874C91.3791 11.7953 90.5842 12.5065 89.5493 13.0076C88.5294 13.4925 87.3221 13.7349 85.9272 13.7349H82.755V18.4142H79.1104V1.44275H85.9272ZM85.7247 10.5346C86.8196 10.5346 87.652 10.2841 88.222 9.783C88.7919 9.26577 89.0769 8.53842 89.0769 7.60095C89.0769 6.64732 88.7919 5.91997 88.222 5.41891C87.652 4.90169 86.8196 4.64308 85.7247 4.64308H82.755V10.5346H85.7247Z" fill="#005ED3"/>
<path d="M99.3161 4.64308H94.2767V1.44275H108V4.64308H102.961V18.4142H99.3161V4.64308Z" fill="#005ED3"/>
</svg>
