<svg width="28" height="28" viewBox="0 0 28 28" fill="none" xmlns="http://www.w3.org/2000/svg">
<path d="M22.1663 10.5C22.1663 12.1916 21.6647 13.7433 20.8013 15.0383C19.5413 16.905 17.5463 18.2233 15.2247 18.5617C14.828 18.6317 14.4197 18.6666 13.9997 18.6666C13.5797 18.6666 13.1713 18.6317 12.7747 18.5617C10.453 18.2233 8.45801 16.905 7.19801 15.0383C6.33467 13.7433 5.83301 12.1916 5.83301 10.5C5.83301 5.98498 9.48467 2.33331 13.9997 2.33331C18.5147 2.33331 22.1663 5.98498 22.1663 10.5Z" stroke="#005ED3" stroke-width="1.5" stroke-linecap="round" stroke-linejoin="round"/>
<path d="M24.7919 21.5483L22.8669 22.0033C22.4353 22.1083 22.0969 22.435 22.0036 22.8667L21.5953 24.5817C21.3736 25.515 20.1836 25.795 19.5653 25.06L14.0003 18.6667L8.43525 25.0717C7.81692 25.8067 6.62692 25.5266 6.40525 24.5933L5.99692 22.8783C5.89192 22.4466 5.55359 22.1083 5.13359 22.015L3.20859 21.56C2.32192 21.35 2.00692 20.2416 2.64859 19.6L7.19859 15.05C8.45859 16.9167 10.4536 18.235 12.7753 18.5733C13.1719 18.6433 13.5803 18.6783 14.0003 18.6783C14.4203 18.6783 14.8286 18.6433 15.2253 18.5733C17.5469 18.235 19.5419 16.9167 20.8019 15.05L25.3519 19.6C25.9936 20.23 25.6786 21.3383 24.7919 21.5483Z" stroke="#005ED3" stroke-width="1.5" stroke-linecap="round" stroke-linejoin="round"/>
<path d="M14.6763 6.97669L15.3646 8.35335C15.458 8.54001 15.703 8.72669 15.9246 8.76169L17.173 8.97168C17.9663 9.10001 18.153 9.68335 17.5813 10.255L16.613 11.2233C16.4496 11.3867 16.3563 11.7017 16.4146 11.935L16.6946 13.1367C16.9163 14.0817 16.4146 14.455 15.5746 13.9533L14.408 13.265C14.198 13.1367 13.848 13.1367 13.638 13.265L12.4713 13.9533C11.6313 14.4433 11.1296 14.0817 11.3513 13.1367L11.6313 11.935C11.678 11.7134 11.5963 11.3867 11.433 11.2233L10.4646 10.255C9.89298 9.68335 10.0796 9.11168 10.873 8.97168L12.1213 8.76169C12.3313 8.72669 12.5763 8.54001 12.6696 8.35335L13.358 6.97669C13.6963 6.23002 14.303 6.23002 14.6763 6.97669Z" stroke="#005ED3" stroke-width="1.5" stroke-linecap="round" stroke-linejoin="round"/>
</svg>
