<svg width="60" height="60" viewBox="0 0 60 60" fill="none" xmlns="http://www.w3.org/2000/svg">
<path d="M48.6666 22C48.6666 25.8667 47.5199 29.4134 45.5466 32.3734C42.6666 36.6401 38.1066 39.6534 32.7999 40.4267C31.8933 40.5867 30.9599 40.6667 29.9999 40.6667C29.0399 40.6667 28.1066 40.5867 27.1999 40.4267C21.8933 39.6534 17.3333 36.6401 14.4533 32.3734C12.4799 29.4134 11.3333 25.8667 11.3333 22C11.3333 11.68 19.6799 3.33337 29.9999 3.33337C40.3199 3.33337 48.6666 11.68 48.6666 22Z" stroke="white" stroke-width="3" stroke-linecap="round" stroke-linejoin="round"/>
<path d="M54.6668 47.2534L50.2668 48.2933C49.2801 48.5333 48.5068 49.2801 48.2935 50.2667L47.3601 54.1867C46.8535 56.3201 44.1335 56.9601 42.7201 55.2801L30.0001 40.6667L17.2801 55.3067C15.8668 56.9867 13.1468 56.3467 12.6401 54.2133L11.7068 50.2933C11.4668 49.3067 10.6935 48.5334 9.73346 48.32L5.33346 47.2801C3.3068 46.8001 2.5868 44.2667 4.05346 42.8L14.4535 32.4C17.3335 36.6667 21.8935 39.6801 27.2001 40.4534C28.1068 40.6134 29.0401 40.6934 30.0001 40.6934C30.9601 40.6934 31.8935 40.6134 32.8001 40.4534C38.1068 39.6801 42.6668 36.6667 45.5468 32.4L55.9468 42.8C57.4135 44.24 56.6935 46.7734 54.6668 47.2534Z" stroke="white" stroke-width="3" stroke-linecap="round" stroke-linejoin="round"/>
<path d="M31.5465 13.9466L33.1198 17.0933C33.3332 17.5199 33.8932 17.9466 34.3998 18.0266L37.2532 18.5066C39.0665 18.7999 39.4932 20.1333 38.1865 21.44L35.9732 23.6532C35.5998 24.0266 35.3865 24.7466 35.5198 25.28L36.1598 28.0266C36.6665 30.1866 35.5198 31.0399 33.5998 29.8932L30.9332 28.3199C30.4532 28.0266 29.6532 28.0266 29.1732 28.3199L26.5065 29.8932C24.5865 31.0132 23.4398 30.1866 23.9465 28.0266L24.5865 25.28C24.6932 24.7733 24.5065 24.0266 24.1332 23.6532L21.9198 21.44C20.6132 20.1333 21.0398 18.8266 22.8532 18.5066L25.7065 18.0266C26.1865 17.9466 26.7465 17.5199 26.9598 17.0933L28.5332 13.9466C29.3065 12.24 30.6932 12.24 31.5465 13.9466Z" stroke="white" stroke-width="3" stroke-linecap="round" stroke-linejoin="round"/>
</svg>
