<svg width="28" height="28" viewBox="0 0 28 28" fill="none" xmlns="http://www.w3.org/2000/svg">
<path d="M19.833 21.5017H15.1663L9.97466 24.955C9.20466 25.4683 8.16634 24.92 8.16634 23.9867V21.5017C4.66634 21.5017 2.33301 19.1684 2.33301 15.6684V8.66829C2.33301 5.16829 4.66634 2.83496 8.16634 2.83496H19.833C23.333 2.83496 25.6663 5.16829 25.6663 8.66829V15.6684C25.6663 19.1684 23.333 21.5017 19.833 21.5017Z" stroke="#005ED3" stroke-width="1.5" stroke-miterlimit="10" stroke-linecap="round" stroke-linejoin="round"/>
<path d="M14.0001 13.2534V13.0085C14.0001 12.2151 14.4901 11.7951 14.9801 11.4568C15.4585 11.1301 15.9367 10.7101 15.9367 9.94012C15.9367 8.86679 15.0734 8.00342 14.0001 8.00342C12.9268 8.00342 12.0635 8.86679 12.0635 9.94012" stroke="#005ED3" stroke-width="1.5" stroke-linecap="round" stroke-linejoin="round"/>
<path d="M13.9951 16.0418H14.0056" stroke="#005ED3" stroke-width="1.5" stroke-linecap="round" stroke-linejoin="round"/>
</svg>
