<svg width="68" height="68" viewBox="0 0 68 68" fill="none" xmlns="http://www.w3.org/2000/svg">
<path d="M55.25 12.75H12.75C11.6228 12.75 10.5418 13.1978 9.7448 13.9948C8.94777 14.7918 8.5 15.8728 8.5 17V46.75C8.5 47.8772 8.94777 48.9582 9.7448 49.7552C10.5418 50.5522 11.6228 51 12.75 51H55.25C56.3772 51 57.4582 50.5522 58.2552 49.7552C59.0522 48.9582 59.5 47.8772 59.5 46.75V17C59.5 15.8728 59.0522 14.7918 58.2552 13.9948C57.4582 13.1978 56.3772 12.75 55.25 12.75ZM32.0821 38.8203C31.0852 39.4849 29.75 38.7703 29.75 37.5722V26.1778C29.75 24.9797 31.0852 24.2651 32.0821 24.9297L40.6279 30.6269C41.5185 31.2207 41.5185 32.5293 40.6279 33.1231L32.0821 38.8203Z" fill="white" fill-opacity="0.2" stroke="white" stroke-width="2.5"/>
<path d="M42.5 59.5H25.5" stroke="white" stroke-width="2.5" stroke-linecap="round" stroke-linejoin="round"/>
</svg>
