<svg width="28" height="28" viewBox="0 0 28 28" fill="none" xmlns="http://www.w3.org/2000/svg">
<g clip-path="url(#clip0_2398_14523)">
<path d="M26.4077 11.931C25.9768 11.6132 25.4338 11.2164 25.3681 10.9571C25.3957 10.4552 25.5391 9.96647 25.7869 9.52914C26.1667 8.65751 26.5587 7.75426 26.1229 7.00315C25.6871 6.25203 24.6961 6.13031 23.7429 6.02926C23.2489 6.02595 22.7622 5.90977 22.3199 5.68962C22.0994 5.24578 21.9836 4.75727 21.9814 4.26168C21.8743 3.3085 21.7635 2.32246 21.0075 1.88176C20.2516 1.44107 19.3471 1.82698 18.4755 2.21164C18.0377 2.45935 17.5486 2.60264 17.0464 2.63043C16.7834 2.55984 16.3878 2.02174 16.0725 1.5908C15.5198 0.84579 14.8977 0.000976562 13.9993 0.000976562C13.1009 0.000976562 12.4789 0.84579 11.9298 1.5908C11.6109 2.02294 11.2152 2.56469 10.9559 2.63163C10.4541 2.60138 9.96555 2.45827 9.5268 2.21284C8.65031 1.82693 7.74707 1.44227 6.9984 1.87566C6.24974 2.30905 6.12437 3.3024 6.01721 4.26162C6.01373 4.7555 5.898 5.24213 5.67877 5.68471C5.23733 5.90172 4.75247 6.01573 4.26059 6.01824C3.30622 6.12535 2.31892 6.23617 1.87948 6.99213C1.44004 7.7481 1.82601 8.65146 2.21067 9.52429C2.45929 9.96305 2.60263 10.4535 2.62945 10.9571C2.55886 11.22 2.02076 11.6169 1.58982 11.931C0.844814 12.4788 0 13.1021 0 14.0005C0 14.8989 0.844814 15.5222 1.59108 16.07C2.02202 16.3877 2.56497 16.7846 2.63071 17.0438C2.60309 17.5458 2.45975 18.0345 2.21192 18.4718C1.83211 19.3434 1.44015 20.2467 1.87594 20.9978C2.31173 21.7489 3.30268 21.8706 4.25585 21.9717C4.7499 21.975 5.23665 22.0912 5.67894 22.3113C5.89943 22.7551 6.01521 23.2437 6.01738 23.7392C6.12449 24.6924 6.2353 25.6785 6.99127 26.1192C7.74724 26.5599 8.64443 26.163 9.51727 25.7832C9.95944 25.5382 10.4514 25.3967 10.9562 25.3693C11.2191 25.4399 11.6147 25.978 11.93 26.4089C12.479 27.1539 13.1011 27.9988 13.9995 27.9988C14.8979 27.9988 15.52 27.1539 16.069 26.4089C16.388 25.9768 16.7836 25.435 17.0429 25.3681C17.5451 25.3965 18.034 25.5397 18.4721 25.7869C19.3437 26.1667 20.2469 26.5563 20.9968 26.1241C21.7467 25.6919 21.8708 24.6973 21.978 23.743C21.9815 23.2491 22.0972 22.7624 22.3164 22.3199C22.7587 22.1011 23.2449 21.9858 23.7383 21.9827C24.6926 21.8756 25.6799 21.7648 26.1194 21.0088C26.5588 20.2528 26.162 19.3556 25.7834 18.4828C25.5356 18.0418 25.3939 17.5491 25.3695 17.0439C25.4401 16.781 25.9782 16.3841 26.4091 16.07C27.1542 15.521 28.0002 14.8977 28.0002 14.0005C28.0002 13.1033 27.1539 12.4788 26.4077 11.931Z" fill="url(#paint0_linear_2398_14523)"/>
<path d="M10.3474 17.0447C10.1558 17.0447 9.97538 16.9545 9.86046 16.8012L7.30405 13.3927V16.436C7.30405 16.7722 7.03151 17.0447 6.69536 17.0447C6.3592 17.0447 6.08667 16.7722 6.08667 16.436V11.5667C6.08667 11.2305 6.3592 10.958 6.69536 10.958C6.88692 10.958 7.06735 11.0482 7.18227 11.2015L9.73868 14.61V11.5667C9.73868 11.2305 10.0112 10.958 10.3474 10.958C10.6835 10.958 10.9561 11.2305 10.9561 11.5667V16.436C10.9559 16.6979 10.7882 16.9303 10.5397 17.013C10.4778 17.034 10.4128 17.0447 10.3474 17.0447Z" fill="#FAFAFA"/>
<path d="M15.2168 17.0447H12.7821C12.4459 17.0447 12.1734 16.7722 12.1734 16.436V11.5667C12.1734 11.2305 12.4459 10.958 12.7821 10.958H15.2168C15.5529 10.958 15.8255 11.2305 15.8255 11.5667C15.8255 11.9029 15.5529 12.1754 15.2168 12.1754H13.3908V15.8274H15.2168C15.5529 15.8274 15.8255 16.0999 15.8255 16.4361C15.8255 16.7722 15.5529 17.0447 15.2168 17.0447Z" fill="#FAFAFA"/>
<path d="M15.2168 14.61H12.7821C12.4459 14.61 12.1734 14.3374 12.1734 14.0013C12.1734 13.6651 12.4459 13.3926 12.7821 13.3926H15.2168C15.5529 13.3926 15.8255 13.6651 15.8255 14.0013C15.8255 14.3374 15.5529 14.61 15.2168 14.61Z" fill="#FAFAFA"/>
<path d="M21.3034 17.0443C21.0411 17.0446 20.808 16.8769 20.7252 16.628L20.0861 14.7082L19.447 16.628C19.3692 16.8906 19.1188 17.0635 18.8456 17.0431C18.5752 17.0328 18.3441 16.8454 18.2783 16.5829L17.061 11.7136C16.9796 11.3872 17.1783 11.0566 17.5047 10.9753C17.8311 10.8939 18.1617 11.0926 18.2431 11.419L18.9528 14.2602L19.5091 12.5913C19.6537 12.2722 20.0296 12.1309 20.3486 12.2755C20.4887 12.3391 20.6008 12.4512 20.6644 12.5913L21.2207 14.2602L21.9303 11.419C22.0117 11.0926 22.3422 10.8939 22.6687 10.9753C22.9951 11.0566 23.1938 11.3871 23.1124 11.7136L21.8951 16.5829C21.8293 16.8454 21.5981 17.0328 21.3278 17.0431L21.3034 17.0443Z" fill="#FAFAFA"/>
</g>
<defs>
<linearGradient id="paint0_linear_2398_14523" x1="14.0001" y1="0.000976948" x2="26.9492" y2="24.6749" gradientUnits="userSpaceOnUse">
<stop stop-color="#02B76B"/>
<stop offset="1" stop-color="#00943B"/>
</linearGradient>
<clipPath id="clip0_2398_14523">
<rect width="28" height="28" fill="white"/>
</clipPath>
</defs>
</svg>
