<svg width="81" height="80" viewBox="0 0 81 80" fill="none" xmlns="http://www.w3.org/2000/svg">
<circle cx="40.5" cy="40" r="40" fill="#E6F1FE"/>
<ellipse cx="40.5" cy="40" rx="27" ry="27" fill="url(#paint0_linear_1340_7056)"/>
<g clip-path="url(#clip0_1340_7056)">
<path d="M51.3162 38.7885C50.7181 38.7885 50.2329 38.3033 50.2329 37.7053C50.2329 34.6665 49.0499 31.8109 46.9016 29.6614C46.4781 29.2379 46.4781 28.5533 46.9016 28.1296C47.3251 27.7061 48.0099 27.7061 48.4334 28.1296C50.9913 30.6874 52.3995 34.0881 52.3995 37.7053C52.3995 38.3033 51.9143 38.7885 51.3162 38.7885Z" fill="white"/>
<path d="M29.6497 38.7885C29.0518 38.7885 28.5664 38.3033 28.5664 37.7053C28.5664 34.0881 29.9748 30.6874 32.5325 28.1296C32.956 27.7061 33.6408 27.7061 34.0643 28.1296C34.488 28.5533 34.488 29.2379 34.0643 29.6614C31.916 31.8097 30.7331 34.6665 30.7331 37.7053C30.7331 38.3033 30.2477 38.7885 29.6497 38.7885Z" fill="white"/>
<path d="M50.6435 45.3225C49.0054 43.9379 48.0661 41.9142 48.0661 39.7703V36.75C48.0661 32.9378 45.2343 29.7821 41.5661 29.2534V28.0833C41.5661 27.4842 41.0807 27 40.4829 27C39.8848 27 39.3994 27.4842 39.3994 28.0833V29.2534C35.7303 29.7821 32.8994 32.9378 32.8994 36.75V39.7703C32.8994 41.9142 31.9602 43.9379 30.3125 45.331C29.891 45.6919 29.6494 46.2161 29.6494 46.7708C29.6494 47.8163 30.4998 48.6667 31.5454 48.6667H49.4204C50.4658 48.6667 51.3161 47.8163 51.3161 46.7708C51.3161 46.2161 51.0745 45.6919 50.6435 45.3225Z" fill="white"/>
<path d="M40.4831 53C42.4449 53 44.0862 51.6013 44.4633 49.75H36.5029C36.8798 51.6013 38.5211 53 40.4831 53Z" fill="white"/>
</g>
<defs>
<linearGradient id="paint0_linear_1340_7056" x1="60" y1="59.5" x2="18.2038" y2="27.2078" gradientUnits="userSpaceOnUse">
<stop stop-color="#0066FF"/>
<stop offset="1" stop-color="#4EAAFF"/>
</linearGradient>
<clipPath id="clip0_1340_7056">
<rect width="26" height="26" fill="white" transform="translate(27.5 27)"/>
</clipPath>
</defs>
</svg>
