<svg width="24" height="24" viewBox="0 0 24 24" fill="none" xmlns="http://www.w3.org/2000/svg">
<path fill-rule="evenodd" clip-rule="evenodd" d="M3.00087 14.1859V13.9503C3.03489 13.253 3.25475 12.5773 3.63779 11.9931C4.27536 11.2912 4.7118 10.4311 4.90134 9.50301C4.90134 8.78571 4.90134 8.05816 4.96298 7.34086C5.28144 3.88758 8.64065 1.5 11.9588 1.5H12.0409C15.3591 1.5 18.7183 3.88758 19.047 7.34086C19.1086 8.05816 19.047 8.78571 19.0984 9.50301C19.2905 10.4332 19.7265 11.296 20.3619 12.0033C20.7478 12.5824 20.968 13.2556 20.9988 13.9503V14.1757C21.0218 15.1125 20.7043 16.026 20.1051 16.7477C19.3133 17.5916 18.2387 18.1166 17.0849 18.2233C13.7015 18.5922 10.2879 18.5922 6.90454 18.2233C5.75203 18.112 4.67904 17.5878 3.88434 16.7477C3.29435 16.0255 2.9812 15.1174 3.00087 14.1859Z" stroke="#666C8A" stroke-width="1.5" stroke-linecap="round" stroke-linejoin="round"/>
<path d="M9 20.5C9.62251 21.5916 10.5367 22.298 11.5401 22.4629C12.5436 22.6279 13.5537 22.2378 14.3468 21.379C14.5907 21.1249 14.8102 20.8296 15 20.5" stroke="#666C8A" stroke-width="1.5" stroke-linecap="round" stroke-linejoin="round"/>
<circle cx="18" cy="5" r="4" fill="#EA3829" stroke="white" stroke-width="1.5"/>
</svg>
