<svg width="180" height="159" viewBox="0 0 180 159" fill="none" xmlns="http://www.w3.org/2000/svg">
<path d="M89.9171 135.691C125.332 135.691 154.044 106.98 154.044 71.4383C154.044 35.8967 125.206 7.18524 89.9171 7.18524C54.502 7.18524 25.7905 35.8967 25.7905 71.4383C25.7905 106.98 54.502 135.691 89.9171 135.691Z" fill="#EAEEF9"/>
<path d="M149.87 29.3206C152.734 29.3206 155.056 26.9989 155.056 24.1349C155.056 21.2708 152.734 18.9491 149.87 18.9491C147.006 18.9491 144.684 21.2708 144.684 24.1349C144.684 26.9989 147.006 29.3206 149.87 29.3206Z" fill="#EAEEF9"/>
<path d="M157.458 9.08301C159.414 9.08301 161 7.49742 161 5.5415C161 3.58559 159.414 2 157.458 2C155.503 2 153.917 3.58559 153.917 5.5415C153.917 7.49742 155.503 9.08301 157.458 9.08301Z" fill="#EAEEF9"/>
<path d="M29.2056 29.1942C31.1615 29.1942 32.7471 27.6086 32.7471 25.6527C32.7471 23.6968 31.1615 22.1112 29.2056 22.1112C27.2496 22.1112 25.6641 23.6968 25.6641 25.6527C25.6641 27.6086 27.2496 29.1942 29.2056 29.1942Z" fill="#EAEEF9"/>
<path d="M7.57708 97.4936C11.2095 97.4936 14.1542 94.549 14.1542 90.9166C14.1542 87.2841 11.2095 84.3395 7.57708 84.3395C3.94466 84.3395 1 87.2841 1 90.9166C1 94.549 3.94466 97.4936 7.57708 97.4936Z" fill="#EAEEF9"/>
<g filter="url(#filter0_d_2095_33619)">
<path d="M133.553 39.3122L134.565 120.767C134.565 123.549 132.288 125.7 129.506 125.7H50.0749C47.2923 125.7 45.0156 123.423 45.0156 120.767V16.0395C45.0156 13.2569 47.2923 11.1067 50.0749 11.1067H107.624L133.553 39.3122Z" fill="url(#paint0_linear_2095_33619)"/>
</g>
<path d="M83.7193 109.384H80.8102C80.1778 109.384 79.6719 108.751 79.6719 107.992C79.6719 107.233 80.1778 106.601 80.8102 106.601H83.7193C84.3517 106.601 84.8577 107.233 84.8577 107.992C84.8577 108.878 84.3517 109.384 83.7193 109.384Z" fill="#CED7E2"/>
<path d="M74.8658 109.384H57.9172C57.2847 109.384 56.7788 108.751 56.7788 107.992C56.7788 107.233 57.2847 106.601 57.9172 106.601H74.8658C75.4982 106.601 76.0041 107.233 76.0041 107.992C76.0041 108.878 75.4982 109.384 74.8658 109.384Z" fill="#D5DDEA"/>
<path d="M96.4943 28.1813H58.4231C57.5377 28.1813 56.7788 27.4224 56.7788 26.537C56.7788 25.6517 57.5377 24.8928 58.4231 24.8928H96.4943C97.3796 24.8928 98.1385 25.6517 98.1385 26.537C98.1385 27.4224 97.3796 28.1813 96.4943 28.1813Z" fill="#D5DDEA"/>
<path d="M73.095 37.2885H58.4231C57.5377 37.2885 56.7788 36.5296 56.7788 35.6443C56.7788 34.7589 57.5377 34 58.4231 34H72.9685C73.8539 34 74.6128 34.7589 74.6128 35.6443C74.6128 36.5296 73.8539 37.2885 73.095 37.2885Z" fill="#D5DDEA"/>
<path d="M107.625 11.1067V33.6205C107.625 36.7826 110.408 39.3122 113.57 39.3122H133.554" fill="#D5DDEA"/>
<path d="M139.625 127.597C138.36 127.597 137.095 127.091 136.083 125.953L114.961 104.83L114.202 105.336C107.372 110.395 99.4034 113.051 91.3085 113.051C81.5694 113.051 71.8303 109.131 64.6208 102.3C57.0318 95.091 52.8579 85.3518 52.8579 74.7273C52.8579 53.6048 70.0595 36.4032 91.1821 36.4032C105.601 36.4032 118.249 43.9921 125.079 56.8933C131.783 69.668 130.897 84.593 122.676 96.6088L122.17 97.3677L143.419 118.617C145.569 120.767 145.064 122.917 144.684 124.055C143.672 126.079 141.648 127.597 139.625 127.597ZM91.1821 46.9012C75.7512 46.9012 63.3559 59.423 63.3559 74.7273C63.3559 92.1819 77.6484 102.68 91.5615 102.68C100.036 102.68 107.751 98.8855 113.19 92.0554C119.894 83.7076 121.032 72.4507 116.352 62.7115C111.546 52.9724 101.933 46.9012 91.1821 46.9012Z" fill="#989FB0"/>
<path d="M79.1664 79.2804C80.8107 79.2804 82.202 77.8891 82.202 76.2449C82.202 74.6006 80.8107 73.2093 79.1664 73.2093C77.5222 73.2093 76.1309 74.6006 76.1309 76.2449C76.1309 77.8891 77.5222 79.2804 79.1664 79.2804Z" fill="#989FB0"/>
<path d="M102.439 79.2804C104.084 79.2804 105.475 77.8891 105.475 76.2449C105.475 74.6006 104.084 73.2093 102.439 73.2093C100.795 73.2093 99.4038 74.6006 99.4038 76.2449C99.4038 78.0156 100.795 79.2804 102.439 79.2804Z" fill="#989FB0"/>
<path d="M79.0476 66.2021L72.3701 69.8076L73.2715 71.477L79.949 67.8715L79.0476 66.2021Z" fill="#989FB0"/>
<path d="M102.026 66.1543L101.125 67.8239L107.803 71.4286L108.704 69.759L102.026 66.1543Z" fill="#989FB0"/>
<path d="M90.8027 86.3637C92.7587 86.3637 94.3442 85.1745 94.3442 83.7076C94.3442 82.2406 92.7587 81.0515 90.8027 81.0515C88.8468 81.0515 87.2612 82.2406 87.2612 83.7076C87.2612 85.1745 88.8468 86.3637 90.8027 86.3637Z" fill="#989FB0"/>
<defs>
<filter id="filter0_d_2095_33619" x="23.0156" y="0.106689" width="133.549" height="158.593" filterUnits="userSpaceOnUse" color-interpolation-filters="sRGB">
<feFlood flood-opacity="0" result="BackgroundImageFix"/>
<feColorMatrix in="SourceAlpha" type="matrix" values="0 0 0 0 0 0 0 0 0 0 0 0 0 0 0 0 0 0 127 0" result="hardAlpha"/>
<feOffset dy="11"/>
<feGaussianBlur stdDeviation="11"/>
<feColorMatrix type="matrix" values="0 0 0 0 0.397708 0 0 0 0 0.47749 0 0 0 0 0.575 0 0 0 0.27 0"/>
<feBlend mode="normal" in2="BackgroundImageFix" result="effect1_dropShadow_2095_33619"/>
<feBlend mode="normal" in="SourceGraphic" in2="effect1_dropShadow_2095_33619" result="shape"/>
</filter>
<linearGradient id="paint0_linear_2095_33619" x1="89.7612" y1="8.45604" x2="89.7612" y2="126.935" gradientUnits="userSpaceOnUse">
<stop stop-color="#FDFEFF"/>
<stop offset="0.9964" stop-color="#ECF0F5"/>
</linearGradient>
</defs>
</svg>
