<svg width="20" height="20" viewBox="0 0 20 20" fill="none" xmlns="http://www.w3.org/2000/svg">
<path fill-rule="evenodd" clip-rule="evenodd" d="M13.8983 5.22196C14.2359 5.53471 14.2561 6.06197 13.9434 6.39962L6.43816 14.5024C5.8236 15.1659 4.79881 15.1659 4.18424 14.5024L1.054 11.1229C0.741253 10.7852 0.761438 10.258 1.09909 9.94525C1.43673 9.6325 1.96399 9.65275 2.27673 9.99033L5.3112 13.2664L12.7207 5.26706C13.0334 4.92941 13.5607 4.90922 13.8983 5.22196ZM18.0654 5.22196C18.4029 5.53471 18.4232 6.06197 18.1104 6.39962L10.6052 14.5024C10.2924 14.84 9.7652 14.8602 9.42753 14.5475C9.08986 14.2347 9.0697 13.7075 9.38245 13.3698L16.8877 5.26706C17.2004 4.92941 17.7277 4.90922 18.0654 5.22196Z" fill="#969DB8"/>
</svg>
