<svg width="32" height="32" viewBox="0 0 32 32" fill="none" xmlns="http://www.w3.org/2000/svg">
<path d="M16.55 23.838L22.85 27.838C23.6625 28.3505 24.6625 27.588 24.425 26.6505L22.6 19.4755C22.5506 19.2766 22.5585 19.0679 22.6226 18.8732C22.6868 18.6786 22.8046 18.5061 22.9625 18.3755L28.6125 13.663C29.35 13.0505 28.975 11.813 28.0125 11.7505L20.6375 11.2755C20.4363 11.2638 20.2428 11.1937 20.0808 11.0739C19.9187 10.954 19.7951 10.7895 19.725 10.6005L16.975 3.67552C16.9022 3.4754 16.7696 3.30252 16.5952 3.18036C16.4207 3.0582 16.2129 2.99268 16 2.99268C15.787 2.99268 15.5793 3.0582 15.4048 3.18036C15.2304 3.30252 15.0978 3.4754 15.025 3.67552L12.275 10.6005C12.2049 10.7895 12.0813 10.954 11.9192 11.0739C11.7572 11.1937 11.5637 11.2638 11.3625 11.2755L3.98749 11.7505C3.02499 11.813 2.64999 13.0505 3.38749 13.663L9.0375 18.3755C9.19541 18.5061 9.31323 18.6786 9.37736 18.8732C9.4415 19.0679 9.44934 19.2766 9.39999 19.4755L7.71249 26.1255C7.42499 27.2505 8.62499 28.163 9.58749 27.5505L15.45 23.838C15.6144 23.7335 15.8052 23.678 16 23.678C16.1948 23.678 16.3856 23.7335 16.55 23.838Z" fill="white" stroke="#005ED3" stroke-width="1.5" stroke-linecap="round" stroke-linejoin="round"/>
<path opacity="0.2" d="M16 23.6755C15.8054 23.6795 15.6155 23.7356 15.45 23.838L9.58749 27.5505C8.62499 28.163 7.42499 27.2505 7.71249 26.1255L9.39999 19.4755C9.44934 19.2766 9.4415 19.0678 9.37736 18.8732C9.31323 18.6786 9.19541 18.5061 9.0375 18.3755L3.38749 13.663C2.64999 13.0505 3.02499 11.813 3.98749 11.7505L11.3625 11.2755C11.5637 11.2638 11.7572 11.1937 11.9192 11.0738C12.0813 10.954 12.2049 10.7895 12.275 10.6005L15.025 3.67549C15.0991 3.47684 15.2322 3.30565 15.4066 3.18496C15.5809 3.06428 15.788 2.9999 16 3.00049V23.6755Z" fill="#005ED3"/>
<path d="M16 3.00049V23.6755" stroke="#005ED3" stroke-width="1.5" stroke-linecap="round" stroke-linejoin="round"/>
</svg>
