<svg width="28" height="28" viewBox="0 0 28 28" fill="none" xmlns="http://www.w3.org/2000/svg">
<path opacity="0.2" d="M4.375 8.75H9.625V5.25C9.625 5.01794 9.53281 4.79538 9.36872 4.63128C9.20462 4.46719 8.98206 4.375 8.75 4.375H5.25C5.01794 4.375 4.79538 4.46719 4.63128 4.63128C4.46719 4.79538 4.375 5.01794 4.375 5.25V8.75Z" fill="#969DB8"/>
<path opacity="0.2" d="M9.625 19.25H14.875V5.25C14.875 5.01794 14.7828 4.79538 14.6187 4.63128C14.4546 4.46719 14.2321 4.375 14 4.375H10.5C10.2679 4.375 10.0454 4.46719 9.88128 4.63128C9.71719 4.79538 9.625 5.01794 9.625 5.25V19.25Z" fill="#969DB8"/>
<path opacity="0.2" d="M18.7246 19.6001L23.7996 18.2329L24.7074 21.6126C24.7371 21.7239 24.7445 21.84 24.7292 21.9542C24.714 22.0684 24.6763 22.1784 24.6183 22.278C24.5604 22.3776 24.4834 22.4648 24.3917 22.5345C24.3 22.6043 24.1954 22.6552 24.084 22.6845L20.7043 23.5923C20.481 23.6526 20.2428 23.6221 20.0419 23.5073C19.8411 23.3925 19.6938 23.2028 19.6324 22.9798L18.7246 19.6001Z" fill="#969DB8"/>
<path opacity="0.2" d="M16.0121 9.45003L21.0871 8.09378L20.1793 4.7141C20.1178 4.4906 19.971 4.30015 19.7706 4.1836C19.5703 4.06704 19.3322 4.03368 19.1075 4.09066L15.7278 4.99847C15.5043 5.06005 15.3138 5.20677 15.1973 5.40716C15.0807 5.60755 15.0473 5.84564 15.1043 6.07035L16.0121 9.45003Z" fill="#969DB8"/>
<path d="M8.75 4.375H5.25C4.76675 4.375 4.375 4.76675 4.375 5.25V22.75C4.375 23.2332 4.76675 23.625 5.25 23.625H8.75C9.23325 23.625 9.625 23.2332 9.625 22.75V5.25C9.625 4.76675 9.23325 4.375 8.75 4.375Z" stroke="#969DB8" stroke-width="1.5" stroke-linecap="round" stroke-linejoin="round"/>
<path d="M4.375 8.75H9.625" stroke="#969DB8" stroke-width="1.5" stroke-linecap="round" stroke-linejoin="round"/>
<path d="M14 4.375H10.5C10.0168 4.375 9.625 4.76675 9.625 5.25V22.75C9.625 23.2332 10.0168 23.625 10.5 23.625H14C14.4832 23.625 14.875 23.2332 14.875 22.75V5.25C14.875 4.76675 14.4832 4.375 14 4.375Z" stroke="#969DB8" stroke-width="1.5" stroke-linecap="round" stroke-linejoin="round"/>
<path d="M9.625 19.25H14.875" stroke="#969DB8" stroke-width="1.5" stroke-linecap="round" stroke-linejoin="round"/>
<path d="M19.1019 4.09496L15.7212 5.00083C15.2544 5.1259 14.9774 5.6057 15.1024 6.07248L19.6318 22.9762C19.7569 23.443 20.2366 23.72 20.7034 23.5949L24.0842 22.689C24.551 22.564 24.828 22.0842 24.7029 21.6174L20.1736 4.71368C20.0485 4.2469 19.5687 3.96989 19.1019 4.09496Z" stroke="#969DB8" stroke-width="1.5" stroke-linecap="round" stroke-linejoin="round"/>
<path d="M18.7246 19.6001L23.7996 18.2329" stroke="#969DB8" stroke-width="1.5" stroke-linecap="round" stroke-linejoin="round"/>
<path d="M16.0127 9.45L21.0877 8.09375" stroke="#969DB8" stroke-width="1.5" stroke-linecap="round" stroke-linejoin="round"/>
</svg>
