<svg width="28" height="28" viewBox="0 0 28 28" fill="none" xmlns="http://www.w3.org/2000/svg">
<path d="M22.7113 10.2665C22.7113 12.071 22.1762 13.7261 21.2553 15.1074C19.9113 17.0985 17.7833 18.5048 15.3068 18.8656C14.8837 18.9403 14.4482 18.9776 14.0002 18.9776C13.5522 18.9776 13.1166 18.9403 12.6935 18.8656C10.2171 18.5048 8.08906 17.0985 6.74506 15.1074C5.82417 13.7261 5.28906 12.071 5.28906 10.2665C5.28906 5.45053 9.18417 1.55542 14.0002 1.55542C18.8162 1.55542 22.7113 5.45053 22.7113 10.2665Z" stroke="#969DB8" stroke-width="1.5" stroke-linecap="round" stroke-linejoin="round"/>
<path opacity="0.2" d="M22.7113 10.2665C22.7113 12.071 22.1762 13.7261 21.2553 15.1074C19.9113 17.0985 17.7833 18.5048 15.3068 18.8656C14.8837 18.9403 14.4482 18.9776 14.0002 18.9776C13.5522 18.9776 13.1166 18.9403 12.6935 18.8656C10.2171 18.5048 8.08906 17.0985 6.74506 15.1074C5.82417 13.7261 5.28906 12.071 5.28906 10.2665C5.28906 5.45053 9.18417 1.55542 14.0002 1.55542C18.8162 1.55542 22.7113 5.45053 22.7113 10.2665Z" fill="#969DB8"/>
<path d="M25.5105 22.0517L23.4571 22.537C22.9967 22.649 22.6358 22.9975 22.5362 23.4579L22.1007 25.2872C21.8642 26.2828 20.5949 26.5815 19.9354 25.7975L13.9994 18.9779L8.06336 25.8099C7.4038 26.5939 6.13447 26.2952 5.89803 25.2997L5.46247 23.4703C5.35047 23.0099 4.98958 22.649 4.54158 22.5495L2.48825 22.0641C1.54247 21.8401 1.20647 20.6579 1.89092 19.9734L6.74425 15.1201C8.08825 17.1112 10.2162 18.5175 12.6927 18.8784C13.1158 18.953 13.5514 18.9904 13.9994 18.9904C14.4474 18.9904 14.8829 18.953 15.306 18.8784C17.7825 18.5175 19.9105 17.1112 21.2545 15.1201L26.1078 19.9734C26.7922 20.6454 26.4562 21.8277 25.5105 22.0517Z" stroke="#969DB8" stroke-width="1.5" stroke-linecap="round" stroke-linejoin="round"/>
<path d="M14.7214 6.50847L15.4556 7.9769C15.5552 8.17601 15.8165 8.37513 16.053 8.41246L17.3845 8.63646C18.2307 8.77334 18.4298 9.39557 17.8201 10.0054L16.7872 11.0382C16.613 11.2124 16.5134 11.5485 16.5756 11.7974L16.8743 13.0791C17.1107 14.0871 16.5756 14.4853 15.6796 13.9502L14.4352 13.216C14.2112 13.0791 13.8378 13.0791 13.6138 13.216L12.3694 13.9502C11.4734 14.4729 10.9383 14.0871 11.1747 13.0791L11.4734 11.7974C11.5232 11.5609 11.4361 11.2124 11.2618 11.0382L10.229 10.0054C9.61917 9.39557 9.81829 8.78579 10.6645 8.63646L11.9961 8.41246C12.2201 8.37513 12.4814 8.17601 12.581 7.9769L13.3152 6.50847C13.6761 5.71202 14.3232 5.71202 14.7214 6.50847Z" stroke="#969DB8" stroke-width="1.5" stroke-linecap="round" stroke-linejoin="round"/>
</svg>
