<svg width="64" height="64" viewBox="0 0 64 64" fill="none" xmlns="http://www.w3.org/2000/svg">
<g filter="url(#filter0_d_3809_20234)">
<circle cx="32" cy="26" r="24" fill="white"/>
<circle cx="32" cy="26" r="23.5" stroke="#D1D4E0"/>
</g>
<path opacity="0.2" d="M32 36.5C37.799 36.5 42.5 31.799 42.5 26C42.5 20.201 37.799 15.5 32 15.5C26.201 15.5 21.5 20.201 21.5 26C21.5 31.799 26.201 36.5 32 36.5Z" fill="#005ED3"/>
<path d="M32 36.5C37.799 36.5 42.5 31.799 42.5 26C42.5 20.201 37.799 15.5 32 15.5C26.201 15.5 21.5 20.201 21.5 26C21.5 31.799 26.201 36.5 32 36.5Z" stroke="#005ED3" stroke-width="1.5" stroke-linecap="round" stroke-linejoin="round"/>
<path d="M31.125 25.125H32V31.25H32.875" stroke="#005ED3" stroke-width="2" stroke-linecap="round" stroke-linejoin="round"/>
<path d="M31.7812 22.5C32.5061 22.5 33.0938 21.9124 33.0938 21.1875C33.0938 20.4626 32.5061 19.875 31.7812 19.875C31.0564 19.875 30.4688 20.4626 30.4688 21.1875C30.4688 21.9124 31.0564 22.5 31.7812 22.5Z" fill="#005ED3"/>
<defs>
<filter id="filter0_d_3809_20234" x="0" y="0" width="64" height="64" filterUnits="userSpaceOnUse" color-interpolation-filters="sRGB">
<feFlood flood-opacity="0" result="BackgroundImageFix"/>
<feColorMatrix in="SourceAlpha" type="matrix" values="0 0 0 0 0 0 0 0 0 0 0 0 0 0 0 0 0 0 127 0" result="hardAlpha"/>
<feOffset dy="6"/>
<feGaussianBlur stdDeviation="4"/>
<feComposite in2="hardAlpha" operator="out"/>
<feColorMatrix type="matrix" values="0 0 0 0 0.163472 0 0 0 0 0.165458 0 0 0 0 0.183333 0 0 0 0.15 0"/>
<feBlend mode="multiply" in2="BackgroundImageFix" result="effect1_dropShadow_3809_20234"/>
<feBlend mode="normal" in="SourceGraphic" in2="effect1_dropShadow_3809_20234" result="shape"/>
</filter>
</defs>
</svg>
