<svg width="362" height="224" viewBox="0 0 362 224" fill="none" xmlns="http://www.w3.org/2000/svg">
<g clip-path="url(#clip0_1326_9643)">
<path d="M88.6044 89.4405C89.1758 88.7933 89.7467 88.1961 90.3177 87.5989C91.2692 86.6036 92.2203 85.6583 93.1086 84.7127C93.2352 84.6133 93.2985 84.5636 93.4866 84.6147C94.1132 84.8184 94.8031 84.9724 95.4302 85.1261C95.6811 85.1776 95.6811 85.1776 95.4908 85.3766C93.3987 87.4162 91.1778 89.8054 89.3361 91.9465C89.1454 92.1956 88.9564 92.2446 88.5802 92.1424C88.0789 91.9894 87.5775 91.8365 87.0756 91.7335C86.9504 91.6828 86.888 91.6324 86.8261 91.532C85.8474 88.5243 85.3746 85.1692 84.8354 82.214C84.8367 82.0639 84.8367 82.0639 85.0248 82.115C85.6514 82.3187 86.2781 82.5224 86.9047 82.7261C87.0928 82.7772 87.0923 82.8272 87.1538 82.9777C87.5763 84.9315 87.9341 87.0851 88.4814 89.1396C88.5433 89.2401 88.6053 89.3405 88.6044 89.4405ZM106.908 87.6929C106.972 87.5432 106.91 87.4428 106.722 87.4417C106.219 87.3888 105.717 87.3359 105.152 87.2327C104.964 87.1816 104.838 87.2809 104.773 87.4306C104.644 87.8802 104.514 88.3298 104.447 88.7798C104.186 89.8791 103.862 90.928 103.664 92.0777C103.663 92.1277 103.662 92.2278 103.536 92.2771C103.41 92.2764 103.411 92.2264 103.349 92.176C103.349 92.176 103.349 92.126 103.286 92.1256C102.727 91.4219 102.23 90.7686 101.733 90.0653C101.361 89.5629 101.051 89.0607 100.678 88.5583C100.182 87.855 99.7484 87.152 99.2524 86.3986C99.1909 86.2482 99.0656 86.1974 98.8775 86.1463C98.25 86.0427 97.6858 85.8894 97.1215 85.7361C96.8078 85.6843 96.8078 85.6843 96.7427 85.9341C96.4187 87.0331 96.0942 88.1821 95.7697 89.331C95.4439 90.6301 95.1176 91.9792 94.8541 93.3287C94.7891 93.5785 94.8519 93.5789 95.1028 93.6303C95.5418 93.7329 95.9813 93.7854 96.4203 93.888C96.8593 93.9906 96.8593 93.9906 96.9257 93.5906C97.1914 91.991 97.5832 90.342 98.0369 88.7935C98.0378 88.6934 98.0391 88.5433 98.1648 88.544C98.2905 88.5447 98.2892 88.6948 98.3516 88.7452C98.7856 89.3982 99.2202 90.0011 99.6547 90.6039C100.089 91.2068 100.524 91.7597 100.959 92.3626C101.518 93.1163 102.139 93.9204 102.761 94.6745C102.885 94.8253 103.01 94.876 103.199 94.8771C103.764 94.9303 104.329 94.9836 104.894 95.0368C105.208 95.0886 105.271 95.0389 105.273 94.7888C105.473 93.539 105.735 92.3396 105.997 91.1903C106.259 89.9909 106.583 88.8419 106.908 87.6929ZM119.789 87.966C119.474 87.9643 119.474 87.9643 119.409 88.2141C119.344 88.5139 119.278 88.8138 119.15 89.1132C119.085 89.313 119.085 89.3631 119.399 89.3648C120.405 89.3205 121.411 89.2762 122.417 89.2318C122.92 89.1846 122.92 89.1846 122.854 89.5846C122.462 91.1835 122.134 92.7828 121.739 94.7319C121.674 94.9818 121.737 95.0321 121.988 94.9835C122.492 94.9364 122.995 94.8892 123.498 94.842C123.938 94.7944 123.938 94.7944 124.005 94.3945C124.399 92.4454 124.727 90.8961 125.118 89.3472C125.184 89.0474 125.184 89.0474 125.687 89.0002C126.756 88.9062 127.825 88.8121 128.832 88.6677C129.21 88.6198 129.21 88.6198 129.275 88.37C129.34 88.0702 129.405 87.8204 129.471 87.5205C129.536 87.2707 129.536 87.2707 129.158 87.3186C127.585 87.5099 126.013 87.6511 124.441 87.7422C122.994 87.8841 121.36 87.9749 119.789 87.966ZM108.982 87.6546C108.731 87.6532 108.668 87.6529 108.603 87.8526C107.954 90.1506 107.369 92.3989 106.969 94.9485C106.904 95.1983 106.967 95.1986 107.217 95.2501C107.783 95.3033 108.348 95.3065 108.913 95.3598C109.227 95.3616 109.227 95.3616 109.293 95.1117C109.425 94.3119 109.558 93.5121 109.753 92.7627C109.819 92.5129 109.819 92.5129 110.133 92.5146C111.326 92.5714 112.52 92.5782 113.714 92.585C114.091 92.5871 114.532 92.5396 114.909 92.4917C115.601 92.3955 116.232 92.1989 116.863 91.8523C117.685 91.3065 118.067 90.7083 118.199 90.0085C118.269 89.2584 117.959 88.7563 117.145 88.4014C116.582 88.148 115.892 88.044 115.201 87.9901C114.196 87.9344 113.19 87.9287 112.185 87.8729C111.055 87.8165 109.987 87.7604 108.982 87.6546ZM114.751 89.1384C115.064 89.1902 115.378 89.242 115.565 89.3932C116.002 89.6958 115.999 90.0961 115.744 90.545C115.551 90.9442 115.173 91.1422 114.669 91.2894C114.291 91.3874 113.913 91.4353 113.599 91.4335C112.531 91.4274 111.462 91.4214 110.394 91.3653C110.08 91.3635 110.081 91.3135 110.145 91.1137C110.277 90.464 110.471 89.8647 110.602 89.265C110.666 89.1152 110.729 89.0655 110.981 89.067C111.546 89.1202 112.111 89.1234 112.802 89.1774C113.306 89.0801 114.06 89.0844 114.751 89.1384ZM70.0146 81.0293C69.9531 80.8788 69.9544 80.7287 69.9558 80.5786C69.8987 79.9278 69.9669 79.3278 70.2232 78.7788C70.6088 77.8303 71.3058 77.1838 72.3144 76.8393C73.134 76.5437 74.0767 76.549 75.0804 76.7549C75.6446 76.9082 76.2084 77.1115 76.7713 77.4149C77.4594 77.7691 78.0838 78.2229 78.5812 78.8262C78.5807 78.8762 78.6436 78.8766 78.6436 78.8766C79.0843 78.779 79.5871 78.7818 80.0898 78.7847C80.2783 78.7858 80.4664 78.8369 80.7173 78.8883C80.7173 78.8883 80.7173 78.8883 80.7802 78.8887C80.9054 78.9394 81.0307 78.9902 81.0931 79.0406C81.4059 79.1924 81.5289 79.4933 81.5262 79.7935C81.524 80.0437 81.4594 80.2435 81.3947 80.4433C81.2022 80.8925 80.9473 81.2913 80.6295 81.6898C79.993 82.5869 79.1694 83.3327 78.2842 83.9282C77.5252 84.4743 76.7047 84.8699 75.8846 85.2155C75.3801 85.4128 74.9389 85.5604 74.4352 85.6576C73.6798 85.8034 72.9252 85.8492 72.1092 85.7445C71.7326 85.6923 71.4188 85.6405 71.0436 85.4383C70.7931 85.3368 70.6055 85.2356 70.4187 85.0344C70.1696 84.7828 70.109 84.5323 70.0484 84.2818C70.0502 84.0817 70.052 83.8815 70.1161 83.7318C70.2449 83.3823 70.4357 83.1332 70.6893 82.8844C71.0062 82.586 71.3231 82.2876 71.6395 82.0392C72.0193 81.7411 72.4623 81.3934 72.8425 81.0453C73.0956 80.8466 73.2864 80.5975 73.4771 80.3484C73.6683 80.0492 73.8604 79.65 73.864 79.2498C73.9304 78.8499 73.7455 78.4485 73.434 78.1466C73.122 77.8946 72.8091 77.7427 72.4321 77.7406C72.1178 77.7388 71.8032 77.7871 71.5509 77.8857C70.9831 78.1327 70.6025 78.5308 70.3467 79.0297C70.0271 79.6283 69.958 80.3284 69.9513 81.0789C70.015 80.9792 70.015 80.9792 70.0146 81.0293ZM78.8299 79.1278C79.3272 79.7311 79.6356 80.3833 79.8175 81.1348C80.0711 80.8861 80.2614 80.687 80.4526 80.3879C80.58 80.1885 80.6442 80.0387 80.7093 79.7889C80.7115 79.5388 80.6505 79.3383 80.4 79.2368C80.2748 79.186 80.1495 79.1353 80.0238 79.1346C79.7101 79.0828 79.4587 79.0813 79.1441 79.1296C79.0184 79.1289 78.8927 79.1282 78.8299 79.1278ZM79.4145 84.0346C78.9701 84.5325 78.4643 84.8799 77.9584 85.2273C77.137 85.723 76.3793 86.119 75.4349 86.3137C74.9313 86.411 74.4281 86.4581 73.863 86.4049C76.6761 88.072 79.5793 86.6875 80.0496 83.2877C79.7955 83.5865 79.6052 83.7855 79.4145 84.0346Z" fill="url(#paint0_linear_1326_9643)"/>
<path d="M155.381 261.755H127.398V257.63V256.419H155.381V261.755ZM155.381 268.411V264.231H127.398V268.411H155.381ZM155.381 283.209V279.028H127.398V283.209H155.381ZM72.263 264.176C72.263 264.176 74.4049 265.936 78.0667 266.266V263.626C75.234 262.745 73.2994 261.92 72.263 261.425V264.176ZM72.263 269.952C72.263 269.952 74.4049 271.712 78.0667 272.042V269.402C75.234 268.521 73.2994 267.696 72.263 267.201V269.952ZM72.263 276.938C72.263 276.938 74.4049 278.698 78.0667 279.028V276.388C75.234 275.508 73.2994 274.683 72.263 274.187V276.938ZM72.263 283.979C72.263 283.979 74.4049 285.739 78.0667 286.07V283.429C75.234 282.549 73.2994 281.724 72.263 281.229V283.979ZM72.263 134.353V131.162C55.4046 122.801 41.7935 108.333 41.6553 108.223L38.8916 109.874C39.4443 110.479 54.0227 125.881 72.263 134.353ZM72.263 142.219V138.919C55.1282 129.787 41.7935 116.145 41.6553 115.98L38.8916 117.685C39.5134 118.345 53.7464 132.868 72.263 142.219ZM72.263 150.141V146.895C56.9246 138.974 42.5535 124.726 42.4153 124.561L39.7207 126.266C40.3425 126.927 55.75 142.219 72.263 150.141ZM45.8699 159.822L43.1753 161.528C43.728 162.133 57.2701 175.775 72.3321 181.826V178.691C58.5137 172.585 45.939 159.932 45.8699 159.822ZM44.8335 143.594L42.1389 145.355C42.7608 145.96 57.201 159.932 72.263 165.983V162.848C58.4446 156.742 44.9717 143.76 44.8335 143.594ZM72.263 197.614V194.478C58.5828 188.372 46.4917 175.5 46.3535 175.335L43.5899 176.985C44.1426 177.59 57.201 191.563 72.263 197.614ZM72.263 210.321C58.8592 204.38 49.3245 193.378 49.2554 193.268L46.4226 194.808C46.8372 195.304 57.2701 207.351 72.3321 213.457V210.321H72.263ZM72.263 205.535V202.4C58.6519 196.349 47.8045 184.412 47.6663 184.302L44.8335 185.897C45.3862 186.447 57.201 199.429 72.263 205.535ZM72.263 173.905V170.769C58.4446 164.608 44.9717 151.626 44.8335 151.516L42.1389 153.276C42.7608 153.826 57.201 167.854 72.263 173.905ZM72.263 189.693V186.557C58.5137 180.451 46.0081 167.579 45.8699 167.414L43.1062 169.064C43.6589 169.724 57.201 183.642 72.263 189.693ZM72.263 158.062V154.816C56.9246 147.005 43.2444 134.078 43.1062 133.968L40.4807 135.728C41.1025 136.333 55.75 150.141 72.263 158.062ZM123.736 139.689C93.8197 138.094 75.9249 129.017 72.263 127.037V130.337C78.7576 133.583 96.0997 140.954 123.529 142.439C129.471 142.769 134.998 142.879 139.973 142.879C160.493 142.879 173.414 140.624 179.079 139.304L179.217 136.388C173.483 137.818 155.035 141.394 123.736 139.689ZM177.145 176.655L177.006 179.571C170.512 180.891 158.282 182.706 139.973 182.706C134.929 182.706 129.471 182.541 123.529 182.266C96.0997 180.781 78.7576 173.41 72.263 170.164V166.864C75.9249 168.899 93.8888 177.921 123.736 179.516C151.995 181.001 169.752 178.251 177.145 176.655ZM177.559 168.954L177.421 171.869C171.064 173.19 158.697 175.06 139.973 175.06C134.929 175.06 129.471 174.95 123.529 174.62C96.0997 173.135 78.7576 165.763 72.263 162.518V159.217C75.9249 161.253 93.8197 170.274 123.736 171.869C152.41 173.41 170.374 170.494 177.559 168.954ZM178.388 152.836L178.25 155.752C172.17 157.072 159.526 159.162 139.973 159.162C134.929 159.162 129.471 159.052 123.529 158.722C96.0997 157.237 78.7576 149.866 72.263 146.62V143.319C75.9249 145.355 93.8197 154.376 123.736 155.972C153.584 157.567 171.824 154.376 178.388 152.836ZM178.803 144.42L178.665 147.335C172.792 148.655 160.01 150.801 139.973 150.801C134.929 150.801 129.471 150.691 123.529 150.361C96.0997 148.875 78.7576 141.504 72.263 138.259V134.958C75.9249 136.993 93.8197 146.015 123.736 147.61C154.344 149.26 172.654 145.905 178.803 144.42ZM177.974 160.537L177.835 163.453C171.617 164.773 159.112 166.754 139.973 166.754C134.929 166.754 129.471 166.644 123.529 166.313C96.0997 164.828 78.7576 157.457 72.263 154.211V150.911C75.9249 152.946 93.8197 161.968 123.736 163.563C153.031 165.158 171.064 162.078 177.974 160.537ZM175.486 208.836L175.348 211.696C168.508 212.962 156.832 214.502 139.973 214.502C134.929 214.502 129.471 214.392 123.529 214.062C96.0997 212.577 78.7576 205.205 72.263 201.96V198.659C75.9249 200.695 93.8197 209.716 123.736 211.311C149.991 212.742 167.264 210.431 175.486 208.836ZM175.141 216.537L175.003 219.398C168.163 220.663 156.555 222.148 140.042 222.148C134.998 222.148 129.54 222.038 123.598 221.708C96.1688 220.223 78.8267 212.852 72.3321 209.606V206.306C75.994 208.341 93.8888 217.362 123.806 218.958C149.646 220.388 166.712 218.188 175.141 216.537ZM174.657 225.669L174.519 228.529C167.61 229.795 156.141 231.17 139.973 231.17C134.929 231.17 129.471 231.06 123.529 230.73C96.0997 229.245 78.7576 221.873 72.263 218.628V215.327C75.9249 217.362 93.8197 226.384 123.736 227.979C149.162 229.355 166.09 227.209 174.657 225.669ZM176.315 192.718L176.177 195.634C169.544 196.954 157.522 198.604 139.973 198.604C134.929 198.604 129.471 198.494 123.529 198.164C96.0997 196.679 78.7576 189.308 72.263 186.062V182.761C75.9249 184.797 93.8888 193.818 123.736 195.414C150.959 196.844 168.439 194.313 176.315 192.718ZM175.901 201.135L175.763 203.995C168.992 205.26 157.177 206.856 139.973 206.856C134.929 206.856 129.471 206.746 123.529 206.416C96.0997 204.93 78.7576 197.559 72.263 194.313V191.013C75.9249 193.048 93.8888 202.07 123.736 203.665C150.475 205.15 167.817 202.73 175.901 201.135ZM176.73 185.017L176.592 187.932C170.028 189.253 157.937 190.958 139.973 190.958C134.929 190.958 129.471 190.848 123.529 190.518C96.0997 189.032 78.7576 181.661 72.263 178.416V175.115C75.9249 177.15 93.8197 186.172 123.736 187.767C151.373 189.253 169.061 186.612 176.73 185.017ZM187.163 164.388L177.766 159.877L177.559 163.673L186.886 168.184L187.163 164.388ZM186.472 176.27L177.214 171.814L177.421 168.019L186.679 172.53L186.472 176.27ZM187.439 159.987L178.043 155.422L178.25 151.626L187.716 156.192L187.439 159.987ZM187.923 151.846L178.388 147.225L178.595 143.429L188.13 148.05L187.923 151.846ZM185.988 184.907L176.868 180.506L177.075 176.71L186.265 181.166L185.988 184.907ZM188.406 143.649L178.803 139.029L179.01 135.233L188.614 139.909L188.406 143.649ZM183.916 219.013L175.141 214.777L175.348 210.981L184.192 215.272L183.916 219.013ZM183.432 227.154L174.726 222.918L174.934 219.123L183.708 223.359L183.432 227.154ZM182.948 235.296L174.312 231.115L174.519 227.319L183.156 231.5L182.948 235.296ZM184.399 210.871L175.555 206.581L175.763 202.785L184.676 207.076L184.399 210.871ZM184.883 202.73L175.901 198.384L176.108 194.588L185.09 198.934L184.883 202.73ZM185.366 194.533L176.315 190.133L176.523 186.337L185.643 190.738L185.366 194.533ZM46.3535 252.844V257.024H52.0191V255.429H48.7717V252.844H46.3535ZM46.3535 245.637V249.818H52.0191V248.223H48.7717V245.637H46.3535ZM155.381 275.838V271.657H127.398V275.838H155.381ZM156.348 245.967V250.698C156.348 250.698 162.428 249.653 163.672 245.967H156.348Z" fill="url(#paint1_linear_1326_9643)"/>
<g opacity="0.7">
<path d="M92.3662 23.4529L108.188 16.3567L118.621 19.2172V23.1229C161.389 27.5237 176.175 45.1267 177.142 51.3428C178.109 57.5589 178.938 76.2072 133.269 74.1168C87.5989 72.0265 65.4895 61.0245 55.7475 50.4077C46.0056 39.7908 54.6421 29.8341 54.6421 29.8341L64.384 32.9146C64.384 32.9146 52.2238 43.0364 75.3696 55.6336C98.5154 68.2308 134.858 70.9813 156.829 65.5353C178.8 60.0894 164.567 43.3664 151.233 37.3704C139.211 31.9794 120.97 25.3233 101.141 26.4785L92.3662 23.4529Z" fill="url(#paint2_linear_1326_9643)"/>
<path d="M39.3047 77.5266L42.3447 108.937C42.3447 108.937 55.5413 123.625 72.1924 131.106V126.98C72.1924 126.98 90.4327 137.707 119.728 139.412C149.023 141.118 167.056 138.532 167.056 138.532L179.147 136.387L181.289 95.2947L171.27 97.055C171.27 97.055 142.528 123.35 106.047 123.68C69.567 124.01 55.7486 110.642 51.0503 103.986C46.3521 97.3301 41.3084 90.0138 39.3047 77.5266Z" fill="url(#paint3_linear_1326_9643)"/>
<path d="M113.029 30.1082L109.367 32.1985L141.91 46.171L113.582 58.3281L85.2542 46.281L89.9524 43.8606L85.5996 41.8252L74.5449 46.501L113.789 63.279L152.688 46.6111L113.029 30.1082Z" fill="url(#paint4_linear_1326_9643)"/>
</g>
<path d="M101.008 26.4782C120.837 25.323 139.078 32.0342 151.1 37.3701C164.434 43.3112 178.667 60.0891 156.696 65.5351C134.725 70.981 98.3826 68.2306 75.2368 55.6333C52.091 43.0361 64.2512 32.9144 64.2512 32.9144L54.5092 29.8338C54.5092 29.8338 45.8728 39.7906 55.6147 50.4074C65.3567 61.0243 87.4661 72.0262 133.136 74.1166C178.806 76.207 177.976 57.5587 177.009 51.3426C176.042 45.1265 161.256 27.5234 118.488 23.1226V19.2169L108.055 16.3564L92.2334 23.4527" stroke="url(#paint5_linear_1326_9643)" stroke-width="1.5" stroke-miterlimit="10" stroke-linecap="round" stroke-linejoin="round"/>
<path d="M91.7695 48.5825L117.493 36.0874" stroke="url(#paint6_linear_1326_9643)" stroke-width="1.5" stroke-miterlimit="10" stroke-linecap="round" stroke-linejoin="round"/>
<path d="M104.979 54.136L129.311 40.9467" stroke="url(#paint7_linear_1326_9643)" stroke-width="1.5" stroke-miterlimit="10" stroke-linecap="round" stroke-linejoin="round"/>
<path d="M109.845 56.2185L134.873 43.7234" stroke="url(#paint8_linear_1326_9643)" stroke-width="1.5" stroke-miterlimit="10" stroke-linecap="round" stroke-linejoin="round"/>
<path d="M98.0264 51.3593L123.042 38.8641" stroke="url(#paint9_linear_1326_9643)" stroke-width="1.5" stroke-miterlimit="10" stroke-linecap="round" stroke-linejoin="round"/>
<path d="M90.6429 44.1374V34.2356L46.2168 17.5127V44.4124" stroke="url(#paint10_linear_1326_9643)" stroke-width="1.5" stroke-miterlimit="10" stroke-linecap="round" stroke-linejoin="round"/>
<path d="M90.6445 34.235L107.848 28.899" stroke="url(#paint11_linear_1326_9643)" stroke-width="1.5" stroke-miterlimit="10" stroke-linecap="round" stroke-linejoin="round"/>
<path d="M52.4355 19.8791V11.1326L62.5921 16.3585L72.6795 10.4175V16.4685L107.847 28.9007V36.9321L90.6434 44.1384L85.5997 41.828L74.545 46.5038L113.789 63.2818L152.688 46.6139L113.029 30.111L109.367 32.2013L141.91 46.1738L113.582 58.3309L85.2542 46.2838L89.9525 43.8634" stroke="url(#paint12_linear_1326_9643)" stroke-width="1.5" stroke-miterlimit="10" stroke-linecap="round" stroke-linejoin="round"/>
<path d="M62.5918 16.3567V23.838" stroke="url(#paint13_linear_1326_9643)" stroke-width="1.5" stroke-miterlimit="10" stroke-linecap="round" stroke-linejoin="round"/>
<path d="M52.4355 11.1316L62.5 5.5" stroke="url(#paint14_linear_1326_9643)" stroke-width="1.5" stroke-miterlimit="10" stroke-linecap="round" stroke-linejoin="round"/>
<path d="M72.6768 10.4169L62.5 5.50012" stroke="url(#paint15_linear_1326_9643)" stroke-width="1.5" stroke-miterlimit="10" stroke-linecap="round" stroke-linejoin="round"/>
<path d="M54.0962 48.4278L40.3469 41.4416V38.4161L28.8086 32.7501L46.2197 30.1096" stroke="url(#paint16_linear_1326_9643)" stroke-width="1.5" stroke-miterlimit="10" stroke-linecap="round" stroke-linejoin="round"/>
<path d="M46.2168 41.4414L51.9514 44.4119" stroke="url(#paint17_linear_1326_9643)" stroke-width="1.5" stroke-miterlimit="10" stroke-linecap="round" stroke-linejoin="round"/>
<path d="M28.8086 32.751V36.7667L32.1941 38.417V43.2028L39.3797 46.6684C39.3797 46.6684 35.1651 79.0691 46.427 97.3323C57.689 115.596 73.442 123.682 107.159 123.627C141.705 123.572 171.276 97.0023 171.276 97.0023L148.199 86.9905C148.199 86.9905 126.09 105.804 94.3077 100.303C62.5255 94.8019 57.9654 73.5131 59.0709 57.6153C59.0709 57.6153 71.0929 79.2341 111.581 82.1497C144.607 84.5701 158.425 80.7744 158.425 80.7744V72.4129" stroke="url(#paint18_linear_1326_9643)" stroke-width="1.5" stroke-miterlimit="10" stroke-linecap="round" stroke-linejoin="round"/>
<path d="M148.193 87.0455L158.419 86.2754L181.357 95.297L171.27 97.0573" stroke="url(#paint19_linear_1326_9643)" stroke-width="1.5" stroke-miterlimit="10" stroke-linecap="round" stroke-linejoin="round"/>
<path d="M158.424 86.2759V80.9399L172.311 86.2759V91.6668" stroke="url(#paint20_linear_1326_9643)" stroke-width="1.5" stroke-miterlimit="10" stroke-linecap="round" stroke-linejoin="round"/>
<path d="M172.308 86.2738L179.977 81.708V94.8003" stroke="url(#paint21_linear_1326_9643)" stroke-width="1.5" stroke-miterlimit="10" stroke-linecap="round" stroke-linejoin="round"/>
<path d="M158.424 80.9384L166.508 75.4375L179.981 81.7086" stroke="url(#paint22_linear_1326_9643)" stroke-width="1.5" stroke-miterlimit="10" stroke-linecap="round" stroke-linejoin="round"/>
<path d="M166.508 75.4369V69.881" stroke="url(#paint23_linear_1326_9643)" stroke-width="1.5" stroke-miterlimit="10" stroke-linecap="round" stroke-linejoin="round"/>
<path d="M163.469 77.5276V71.1465" stroke="url(#paint24_linear_1326_9643)" stroke-width="1.5" stroke-miterlimit="10" stroke-linecap="round" stroke-linejoin="round"/>
<path d="M160.91 79.2899V71.9736" stroke="url(#paint25_linear_1326_9643)" stroke-width="1.5" stroke-miterlimit="10" stroke-linecap="round" stroke-linejoin="round"/>
<path d="M181.359 95.2971L172.101 275.014L180.392 278.314L191.584 90.5663L179.977 85.5054" stroke="url(#paint26_linear_1326_9643)" stroke-width="1.5" stroke-miterlimit="10" stroke-linecap="round" stroke-linejoin="round"/>
<path d="M179.982 83.6343L193.386 89.7403L182.47 277.213L180.397 278.313" stroke="url(#paint27_linear_1326_9643)" stroke-width="1.5" stroke-miterlimit="10" stroke-linecap="round" stroke-linejoin="round"/>
<path d="M191.586 90.565L193.382 89.7399" stroke="url(#paint28_linear_1326_9643)" stroke-width="1.5" stroke-miterlimit="10" stroke-linecap="round" stroke-linejoin="round"/>
<path d="M39.3096 74.2288L50.6406 203.006C50.6406 203.006 56.7207 218.024 82.3538 231.116C109.507 244.979 153.519 243.824 173.901 240.578" stroke="url(#paint29_linear_1326_9643)" stroke-width="1.5" stroke-miterlimit="10" stroke-linecap="round" stroke-linejoin="round"/>
<path d="M50.6409 203.005L35.5098 215.328C35.5098 215.328 40.7608 238.047 72.8885 250.754C104.049 263.076 111.096 260.876 111.096 260.876L136.315 242.667" stroke="url(#paint30_linear_1326_9643)" stroke-width="1.5" stroke-miterlimit="10" stroke-linecap="round" stroke-linejoin="round"/>
<path d="M38.5508 222.533L51.0564 214.227" stroke="url(#paint31_linear_1326_9643)" stroke-width="1.5" stroke-miterlimit="10" stroke-linecap="round" stroke-linejoin="round"/>
<path d="M42.209 228.309L55.2673 220.443" stroke="url(#paint32_linear_1326_9643)" stroke-width="1.5" stroke-miterlimit="10" stroke-linecap="round" stroke-linejoin="round"/>
<path d="M127.402 257.574V294.76C127.402 294.76 88.3651 296.631 69.3648 285.354V272.647L51.0554 262.25L42.2117 268.191C42.2117 268.191 38.8262 261.59 37.6516 244.757C36.5461 227.924 35.5098 215.271 35.5098 215.271" stroke="url(#paint33_linear_1326_9643)" stroke-width="1.5" stroke-miterlimit="10" stroke-linecap="round" stroke-linejoin="round"/>
<path d="M194.148 252.846V207.738L187.377 193.545" stroke="url(#paint34_linear_1326_9643)" stroke-width="1.5" stroke-miterlimit="10" stroke-linecap="round" stroke-linejoin="round"/>
<path d="M186.132 214.997L194.147 207.735" stroke="url(#paint35_linear_1326_9643)" stroke-width="1.5" stroke-miterlimit="10" stroke-linecap="round" stroke-linejoin="round"/>
<path d="M74.5459 46.5029V55.0294" stroke="url(#paint36_linear_1326_9643)" stroke-width="1.5" stroke-miterlimit="10" stroke-linecap="round" stroke-linejoin="round"/>
<path d="M113.794 63.2812V67.0769" stroke="url(#paint37_linear_1326_9643)" stroke-width="1.5" stroke-miterlimit="10" stroke-linecap="round" stroke-linejoin="round"/>
<path d="M152.689 46.6143V58.6614L130.026 68.068" stroke="url(#paint38_linear_1326_9643)" stroke-width="1.5" stroke-miterlimit="10" stroke-linecap="round" stroke-linejoin="round"/>
<path d="M62.1094 35.7748L82.3533 43.2011" stroke="url(#paint39_linear_1326_9643)" stroke-width="1.5" stroke-miterlimit="10" stroke-linecap="round" stroke-linejoin="round"/>
<path d="M152.688 48.0996C152.688 48.0996 167.128 53.6556 163.949 62.6222" stroke="url(#paint40_linear_1326_9643)" stroke-width="1.5" stroke-miterlimit="10" stroke-linecap="round" stroke-linejoin="round"/>
<path d="M56.7188 51.3994C56.7188 51.3994 57.5479 54.7 59.3442 58.0006" stroke="url(#paint41_linear_1326_9643)" stroke-width="1.5" stroke-miterlimit="10" stroke-linecap="round" stroke-linejoin="round"/>
<path d="M-100.812 231.994L-12.513 291.515L18.2329 273.747C18.2329 273.747 -1.73467 243.161 35.575 215.326" stroke="url(#paint42_linear_1326_9643)" stroke-width="1.5" stroke-miterlimit="10" stroke-linecap="round" stroke-linejoin="round"/>
<path d="M37.855 213.456V209.33C37.855 209.33 16.022 219.452 9.87279 239.476C3.7236 259.499 10.9783 272.866 10.9783 272.866L1.58175 279.028L-100.812 210.21" stroke="url(#paint43_linear_1326_9643)" stroke-width="1.5" stroke-miterlimit="10" stroke-linecap="round" stroke-linejoin="round"/>
<path d="M219.149 263.846L241.259 277.213C242.986 278.258 245.473 278.203 247.131 277.048L292.801 245.747C294.736 244.427 294.459 242.007 292.317 240.961L219.425 205.535C217.975 204.82 216.109 204.985 214.865 205.975L203.12 215.217C201.669 216.317 201.669 218.132 202.982 219.343C208.854 224.404 222.396 239.091 219.149 263.846Z" stroke="url(#paint44_linear_1326_9643)" stroke-width="1.5" stroke-miterlimit="10" stroke-linecap="round" stroke-linejoin="round"/>
<path d="M210.377 219.122C215.283 224.293 227.236 239.2 225.301 261.754L241.814 271.711C243.542 272.756 246.029 272.701 247.687 271.546L284.099 246.407C285.964 245.086 285.757 242.721 283.615 241.621L220.81 210.43C219.359 209.715 217.425 209.88 216.181 210.87L210.723 215.216C209.341 216.261 209.203 217.912 210.377 219.122Z" stroke="url(#paint45_linear_1326_9643)" stroke-width="1.5" stroke-miterlimit="10" stroke-linecap="round" stroke-linejoin="round"/>
<path d="M305.027 230.564C304.336 231.059 303.3 231.114 302.54 230.729L230.615 195.467L225.641 199.703L301.02 236.67C302.747 237.495 304.889 237.385 306.478 236.34L349.177 207.735" stroke="url(#paint46_linear_1326_9643)" stroke-width="1.5" stroke-miterlimit="10" stroke-linecap="round" stroke-linejoin="round"/>
<path d="M189.518 198.108L196.081 193.982L206.1 198.988L194.147 207.735" stroke="url(#paint47_linear_1326_9643)" stroke-width="1.5" stroke-miterlimit="10" stroke-linecap="round" stroke-linejoin="round"/>
<path d="M203.678 188.758L215.009 194.424L227.307 185.622C228.274 184.907 228.205 183.642 227.1 183.037L222.885 180.561C220.674 179.241 217.565 179.351 215.423 180.781L203.678 188.758Z" stroke="url(#paint48_linear_1326_9643)" stroke-width="1.5" stroke-miterlimit="10" stroke-linecap="round" stroke-linejoin="round"/>
<path d="M207.611 188.537L214.521 191.783L221.361 186.997C222.881 185.842 222.95 183.917 221.43 182.706C220.048 181.606 217.837 181.551 216.386 182.596L207.611 188.537Z" stroke="url(#paint49_linear_1326_9643)" stroke-width="1.5" stroke-miterlimit="10" stroke-linecap="round" stroke-linejoin="round"/>
<path d="M188.057 180.999L194.828 184.355L211.617 173.848L189.162 162.406" stroke="url(#paint50_linear_1326_9643)" stroke-width="1.5" stroke-miterlimit="10" stroke-linecap="round" stroke-linejoin="round"/>
<path d="M188.617 172.144L201.883 180.01" stroke="url(#paint51_linear_1326_9643)" stroke-width="1.5" stroke-miterlimit="10" stroke-linecap="round" stroke-linejoin="round"/>
<path d="M188.336 176.271L198.562 182.102" stroke="url(#paint52_linear_1326_9643)" stroke-width="1.5" stroke-miterlimit="10" stroke-linecap="round" stroke-linejoin="round"/>
<path d="M189.518 158.391L277.955 201.574C286.799 205.864 298.061 205.314 306.145 200.143C311.465 196.733 310.774 190.077 304.832 187.436L190.692 136.057" stroke="url(#paint53_linear_1326_9643)" stroke-width="1.5" stroke-miterlimit="10" stroke-linecap="round" stroke-linejoin="round"/>
<path d="M295.914 204.049L294.117 195.412L196.49 150.194H189.857" stroke="url(#paint54_linear_1326_9643)" stroke-width="1.5" stroke-miterlimit="10" stroke-linecap="round" stroke-linejoin="round"/>
<path d="M197.114 138.973V148.984L295.916 193.982H309.803" stroke="url(#paint55_linear_1326_9643)" stroke-width="1.5" stroke-miterlimit="10" stroke-linecap="round" stroke-linejoin="round"/>
<path d="M355 186.5L214.385 127.036L207.614 132.702L202.432 130.446C202.225 130.336 202.156 130.171 202.294 130.006C203.261 128.961 206.439 124.78 201.741 120.985C196.283 116.639 191.792 117.849 191.792 117.849" stroke="url(#paint56_linear_1326_9643)" stroke-width="1.5" stroke-miterlimit="10" stroke-linecap="round" stroke-linejoin="round"/>
<path d="M11.4629 93.094V58.658L21.6194 53.9271L38.616 62.0686" stroke="url(#paint57_linear_1326_9643)" stroke-width="1.5" stroke-miterlimit="10" stroke-linecap="round" stroke-linejoin="round"/>
<path d="M11.4629 58.6591L39.3069 74.2268" stroke="url(#paint58_linear_1326_9643)" stroke-width="1.5" stroke-miterlimit="10" stroke-linecap="round" stroke-linejoin="round"/>
<path d="M174.866 46.7203H187.648V87.0974" stroke="url(#paint59_linear_1326_9643)" stroke-width="1.5" stroke-miterlimit="10" stroke-linecap="round" stroke-linejoin="round"/>
<path d="M211.48 49.638L222.673 54.7539L244.161 43.2019L232.346 38.416L211.48 49.638Z" stroke="url(#paint60_linear_1326_9643)" stroke-width="1.5" stroke-miterlimit="10" stroke-linecap="round" stroke-linejoin="round"/>
<path d="M211.48 49.6377V90.5649" stroke="url(#paint61_linear_1326_9643)" stroke-width="1.5" stroke-miterlimit="10" stroke-linecap="round" stroke-linejoin="round"/>
<path d="M222.676 54.752L223 99" stroke="url(#paint62_linear_1326_9643)" stroke-width="1.5" stroke-miterlimit="10" stroke-linecap="round" stroke-linejoin="round"/>
<path d="M244.166 43.2012V71.5862" stroke="url(#paint63_linear_1326_9643)" stroke-width="1.5" stroke-miterlimit="10" stroke-linecap="round" stroke-linejoin="round"/>
<path d="M228.412 79.2885L243.06 84.4594L281.475 65.151L268.416 59.8701L228.412 79.2885Z" stroke="url(#paint64_linear_1326_9643)" stroke-width="1.5" stroke-miterlimit="10" stroke-linecap="round" stroke-linejoin="round"/>
<path d="M228.412 79.2881V112.239" stroke="url(#paint65_linear_1326_9643)" stroke-width="1.5" stroke-miterlimit="10" stroke-linecap="round" stroke-linejoin="round"/>
<path d="M243.055 84.459V117.465" stroke="url(#paint66_linear_1326_9643)" stroke-width="1.5" stroke-miterlimit="10" stroke-linecap="round" stroke-linejoin="round"/>
<path d="M281.479 65.1504V89.0246" stroke="url(#paint67_linear_1326_9643)" stroke-width="1.5" stroke-miterlimit="10" stroke-linecap="round" stroke-linejoin="round"/>
<path d="M248.449 100.356L267.173 109.377L290.112 93.6447L271.802 86.3284L248.449 100.356ZM248.449 100.356V116.749" stroke="url(#paint68_linear_1326_9643)" stroke-width="1.5" stroke-miterlimit="10" stroke-linecap="round" stroke-linejoin="round"/>
<path d="M259.98 105.911V130.776H263.988V143.098L286.443 152.394V138.972H290.726V132.701H307.516V146.948H314.287V163.286L363 185.5" stroke="url(#paint69_linear_1326_9643)" stroke-width="1.5" stroke-miterlimit="10" stroke-linecap="round" stroke-linejoin="round"/>
<path d="M302.197 94.7991V132.701" stroke="url(#paint70_linear_1326_9643)" stroke-width="1.5" stroke-miterlimit="10" stroke-linecap="round" stroke-linejoin="round"/>
<path d="M290.109 89.0239L302.2 94.7999L340.685 73.8412L328.248 70.1006L290.109 89.0239Z" stroke="url(#paint71_linear_1326_9643)" stroke-width="1.5" stroke-miterlimit="10" stroke-linecap="round" stroke-linejoin="round"/>
<path d="M340.687 73.8428V175" stroke="url(#paint72_linear_1326_9643)" stroke-width="1.5" stroke-miterlimit="10" stroke-linecap="round" stroke-linejoin="round"/>
<path d="M269.659 107.673L277.605 115.099L280.714 114.714L287.278 124.066L300.474 112.789L293.012 106.408H290.11V89.0248" stroke="url(#paint73_linear_1326_9643)" stroke-width="1.5" stroke-miterlimit="10" stroke-linecap="round" stroke-linejoin="round"/>
<path d="M282.444 98.9257L290.114 105.637" stroke="url(#paint74_linear_1326_9643)" stroke-width="1.5" stroke-miterlimit="10" stroke-linecap="round" stroke-linejoin="round"/>
<path d="M277.604 115.101L290.109 106.409" stroke="url(#paint75_linear_1326_9643)" stroke-width="1.5" stroke-miterlimit="10" stroke-linecap="round" stroke-linejoin="round"/>
<path d="M280.711 114.715L293.009 106.409" stroke="url(#paint76_linear_1326_9643)" stroke-width="1.5" stroke-miterlimit="10" stroke-linecap="round" stroke-linejoin="round"/>
<path d="M277.604 115.099V148.82" stroke="url(#paint77_linear_1326_9643)" stroke-width="1.5" stroke-miterlimit="10" stroke-linecap="round" stroke-linejoin="round"/>
<path d="M287.278 124.065V138.973" stroke="url(#paint78_linear_1326_9643)" stroke-width="1.5" stroke-miterlimit="10" stroke-linecap="round" stroke-linejoin="round"/>
<path d="M300.469 112.789V132.702" stroke="url(#paint79_linear_1326_9643)" stroke-width="1.5" stroke-miterlimit="10" stroke-linecap="round" stroke-linejoin="round"/>
<path d="M264.336 113.78L274.216 117.356" stroke="url(#paint80_linear_1326_9643)" stroke-width="1.5" stroke-miterlimit="10" stroke-linecap="round" stroke-linejoin="round"/>
<path d="M264.336 118.839L274.216 122.415" stroke="url(#paint81_linear_1326_9643)" stroke-width="1.5" stroke-miterlimit="10" stroke-linecap="round" stroke-linejoin="round"/>
<path d="M264.336 123.846L274.216 127.421" stroke="url(#paint82_linear_1326_9643)" stroke-width="1.5" stroke-miterlimit="10" stroke-linecap="round" stroke-linejoin="round"/>
<path d="M192.826 98.9259C192.826 98.9259 198.699 92.2147 205.746 97.0556C205.746 97.0556 205.885 89.6843 212.586 90.5644C219.288 91.4446 217.008 98.4858 217.008 98.4858C217.008 98.4858 224.747 96.5605 226.128 103.327C227.51 110.093 222.95 112.238 222.95 112.238C222.95 112.238 229.03 109.983 229.859 113.999C229.859 113.999 229.929 108.773 235.041 108.938C240.154 109.048 239.187 116.639 239.187 116.639C239.187 116.639 243.954 116.199 245.336 120.16C245.336 120.16 247.132 115.979 251.14 116.419C255.147 116.859 256.391 119.114 256.391 119.114C256.391 119.114 260.813 118.289 260.122 124.56" stroke="url(#paint83_linear_1326_9643)" stroke-width="1.5" stroke-miterlimit="10" stroke-linecap="round" stroke-linejoin="round"/>
<path d="M192.349 108.168C192.349 108.168 202.367 103.492 207.134 110.534C212.385 118.29 202.851 122.031 202.851 122.031" stroke="url(#paint84_linear_1326_9643)" stroke-width="1.5" stroke-miterlimit="10" stroke-linecap="round" stroke-linejoin="round"/>
<path d="M208.576 116.362C208.576 116.362 224.329 110.696 224.467 122.743C224.467 122.743 231.031 119.773 231.653 125.164C231.653 125.164 235.937 122.358 241.188 125.989C246.369 129.62 244.228 136.111 234.417 135.451" stroke="url(#paint85_linear_1326_9643)" stroke-width="1.5" stroke-miterlimit="10" stroke-linecap="round" stroke-linejoin="round"/>
<path d="M314.29 156.521C314.29 156.521 314.29 146.949 304.617 150.195C299.159 152.01 300.472 158.832 300.472 158.832C300.472 158.832 291.835 150.085 288.864 158.447" stroke="url(#paint86_linear_1326_9643)" stroke-width="1.5" stroke-miterlimit="10" stroke-linecap="round" stroke-linejoin="round"/>
<path d="M2.41406 278.32V96.3399L15.5415 91.6641L41.451 100.081" stroke="url(#paint87_linear_1326_9643)" stroke-width="1.5" stroke-miterlimit="10" stroke-linecap="round" stroke-linejoin="round"/>
<path d="M273.499 4L274.045 24.3876L257.274 14.6415L273.499 4Z" stroke="url(#paint88_linear_1326_9643)" stroke-width="0.55" stroke-miterlimit="10"/>
</g>
<defs>
<linearGradient id="paint0_linear_1326_9643" x1="69.8859" y1="85.8623" x2="129.512" y2="86.3949" gradientUnits="userSpaceOnUse">
<stop stop-color="#57E1FF"/>
<stop offset="0.395833" stop-color="#3392D7"/>
<stop offset="1" stop-color="#459FF4"/>
</linearGradient>
<linearGradient id="paint1_linear_1326_9643" x1="38.8916" y1="197.146" x2="188.614" y2="197.146" gradientUnits="userSpaceOnUse">
<stop stop-color="#57E1FF"/>
<stop offset="0.395833" stop-color="#3392D7"/>
<stop offset="1" stop-color="#459FF4"/>
</linearGradient>
<linearGradient id="paint2_linear_1326_9643" x1="51.1113" y1="45.318" x2="177.413" y2="45.318" gradientUnits="userSpaceOnUse">
<stop stop-color="#57E1FF"/>
<stop offset="0.395833" stop-color="#3392D7"/>
<stop offset="1" stop-color="#459FF4"/>
</linearGradient>
<linearGradient id="paint3_linear_1326_9643" x1="39.3047" y1="108.761" x2="181.289" y2="108.761" gradientUnits="userSpaceOnUse">
<stop stop-color="#57E1FF"/>
<stop offset="0.395833" stop-color="#3392D7"/>
<stop offset="1" stop-color="#459FF4"/>
</linearGradient>
<linearGradient id="paint4_linear_1326_9643" x1="74.5449" y1="46.6936" x2="152.688" y2="46.6936" gradientUnits="userSpaceOnUse">
<stop stop-color="#57E1FF"/>
<stop offset="0.395833" stop-color="#3392D7"/>
<stop offset="1" stop-color="#459FF4"/>
</linearGradient>
<linearGradient id="paint5_linear_1326_9643" x1="50.9785" y1="45.3178" x2="177.28" y2="45.3178" gradientUnits="userSpaceOnUse">
<stop stop-color="#57D7FF"/>
<stop offset="0.395833" stop-color="#33A6D7"/>
<stop offset="1" stop-color="#459FF4"/>
</linearGradient>
<linearGradient id="paint6_linear_1326_9643" x1="91.7695" y1="42.335" x2="117.493" y2="42.335" gradientUnits="userSpaceOnUse">
<stop stop-color="#57D7FF"/>
<stop offset="0.395833" stop-color="#33A6D7"/>
<stop offset="1" stop-color="#459FF4"/>
</linearGradient>
<linearGradient id="paint7_linear_1326_9643" x1="104.979" y1="47.5413" x2="129.311" y2="47.5413" gradientUnits="userSpaceOnUse">
<stop stop-color="#57D7FF"/>
<stop offset="0.395833" stop-color="#33A6D7"/>
<stop offset="1" stop-color="#459FF4"/>
</linearGradient>
<linearGradient id="paint8_linear_1326_9643" x1="109.845" y1="49.971" x2="134.873" y2="49.971" gradientUnits="userSpaceOnUse">
<stop stop-color="#57D7FF"/>
<stop offset="0.395833" stop-color="#33A6D7"/>
<stop offset="1" stop-color="#459FF4"/>
</linearGradient>
<linearGradient id="paint9_linear_1326_9643" x1="98.0264" y1="45.1117" x2="123.042" y2="45.1117" gradientUnits="userSpaceOnUse">
<stop stop-color="#57D7FF"/>
<stop offset="0.395833" stop-color="#33A6D7"/>
<stop offset="1" stop-color="#459FF4"/>
</linearGradient>
<linearGradient id="paint10_linear_1326_9643" x1="46.2168" y1="30.9626" x2="90.6429" y2="30.9626" gradientUnits="userSpaceOnUse">
<stop stop-color="#57D7FF"/>
<stop offset="0.395833" stop-color="#33A6D7"/>
<stop offset="1" stop-color="#459FF4"/>
</linearGradient>
<linearGradient id="paint11_linear_1326_9643" x1="90.6445" y1="31.567" x2="107.848" y2="31.567" gradientUnits="userSpaceOnUse">
<stop stop-color="#57D7FF"/>
<stop offset="0.395833" stop-color="#33A6D7"/>
<stop offset="1" stop-color="#459FF4"/>
</linearGradient>
<linearGradient id="paint12_linear_1326_9643" x1="52.4355" y1="36.8496" x2="152.688" y2="36.8496" gradientUnits="userSpaceOnUse">
<stop stop-color="#57D7FF"/>
<stop offset="0.395833" stop-color="#33A6D7"/>
<stop offset="1" stop-color="#459FF4"/>
</linearGradient>
<linearGradient id="paint13_linear_1326_9643" x1="62.5918" y1="20.0973" x2="63.5918" y2="20.0973" gradientUnits="userSpaceOnUse">
<stop stop-color="#57D7FF"/>
<stop offset="0.395833" stop-color="#33A6D7"/>
<stop offset="1" stop-color="#459FF4"/>
</linearGradient>
<linearGradient id="paint14_linear_1326_9643" x1="52.4355" y1="10.2515" x2="59.6902" y2="10.2515" gradientUnits="userSpaceOnUse">
<stop stop-color="#57D7FF"/>
<stop offset="0.395833" stop-color="#33A6D7"/>
<stop offset="1" stop-color="#459FF4"/>
</linearGradient>
<linearGradient id="paint15_linear_1326_9643" x1="63.833" y1="9.81177" x2="72.6768" y2="9.81177" gradientUnits="userSpaceOnUse">
<stop stop-color="#57D7FF"/>
<stop offset="0.395833" stop-color="#33A6D7"/>
<stop offset="1" stop-color="#459FF4"/>
</linearGradient>
<linearGradient id="paint16_linear_1326_9643" x1="28.8086" y1="39.2687" x2="54.0962" y2="39.2687" gradientUnits="userSpaceOnUse">
<stop stop-color="#57D7FF"/>
<stop offset="0.395833" stop-color="#33A6D7"/>
<stop offset="1" stop-color="#459FF4"/>
</linearGradient>
<linearGradient id="paint17_linear_1326_9643" x1="46.2168" y1="42.9267" x2="51.9514" y2="42.9267" gradientUnits="userSpaceOnUse">
<stop stop-color="#57D7FF"/>
<stop offset="0.395833" stop-color="#33A6D7"/>
<stop offset="1" stop-color="#459FF4"/>
</linearGradient>
<linearGradient id="paint18_linear_1326_9643" x1="28.8086" y1="78.1891" x2="171.276" y2="78.1891" gradientUnits="userSpaceOnUse">
<stop stop-color="#57D7FF"/>
<stop offset="0.395833" stop-color="#33A6D7"/>
<stop offset="1" stop-color="#459FF4"/>
</linearGradient>
<linearGradient id="paint19_linear_1326_9643" x1="148.193" y1="91.6663" x2="181.357" y2="91.6663" gradientUnits="userSpaceOnUse">
<stop stop-color="#57D7FF"/>
<stop offset="0.395833" stop-color="#33A6D7"/>
<stop offset="1" stop-color="#459FF4"/>
</linearGradient>
<linearGradient id="paint20_linear_1326_9643" x1="158.424" y1="86.3034" x2="172.311" y2="86.3034" gradientUnits="userSpaceOnUse">
<stop stop-color="#57D7FF"/>
<stop offset="0.395833" stop-color="#33A6D7"/>
<stop offset="1" stop-color="#459FF4"/>
</linearGradient>
<linearGradient id="paint21_linear_1326_9643" x1="172.308" y1="88.2542" x2="179.977" y2="88.2542" gradientUnits="userSpaceOnUse">
<stop stop-color="#57D7FF"/>
<stop offset="0.395833" stop-color="#33A6D7"/>
<stop offset="1" stop-color="#459FF4"/>
</linearGradient>
<linearGradient id="paint22_linear_1326_9643" x1="158.424" y1="78.573" x2="179.981" y2="78.573" gradientUnits="userSpaceOnUse">
<stop stop-color="#57D7FF"/>
<stop offset="0.395833" stop-color="#33A6D7"/>
<stop offset="1" stop-color="#459FF4"/>
</linearGradient>
<linearGradient id="paint23_linear_1326_9643" x1="166.508" y1="72.659" x2="167.508" y2="72.659" gradientUnits="userSpaceOnUse">
<stop stop-color="#57D7FF"/>
<stop offset="0.395833" stop-color="#33A6D7"/>
<stop offset="1" stop-color="#459FF4"/>
</linearGradient>
<linearGradient id="paint24_linear_1326_9643" x1="163.469" y1="74.337" x2="164.469" y2="74.337" gradientUnits="userSpaceOnUse">
<stop stop-color="#57D7FF"/>
<stop offset="0.395833" stop-color="#33A6D7"/>
<stop offset="1" stop-color="#459FF4"/>
</linearGradient>
<linearGradient id="paint25_linear_1326_9643" x1="160.91" y1="75.6318" x2="161.91" y2="75.6318" gradientUnits="userSpaceOnUse">
<stop stop-color="#57D7FF"/>
<stop offset="0.395833" stop-color="#33A6D7"/>
<stop offset="1" stop-color="#459FF4"/>
</linearGradient>
<linearGradient id="paint26_linear_1326_9643" x1="172.101" y1="181.91" x2="191.584" y2="181.91" gradientUnits="userSpaceOnUse">
<stop stop-color="#57D7FF"/>
<stop offset="0.395833" stop-color="#33A6D7"/>
<stop offset="1" stop-color="#459FF4"/>
</linearGradient>
<linearGradient id="paint27_linear_1326_9643" x1="179.982" y1="180.974" x2="193.386" y2="180.974" gradientUnits="userSpaceOnUse">
<stop stop-color="#57D7FF"/>
<stop offset="0.395833" stop-color="#33A6D7"/>
<stop offset="1" stop-color="#459FF4"/>
</linearGradient>
<linearGradient id="paint28_linear_1326_9643" x1="191.586" y1="90.1524" x2="193.382" y2="90.1524" gradientUnits="userSpaceOnUse">
<stop stop-color="#57D7FF"/>
<stop offset="0.395833" stop-color="#33A6D7"/>
<stop offset="1" stop-color="#459FF4"/>
</linearGradient>
<linearGradient id="paint29_linear_1326_9643" x1="39.3096" y1="158.448" x2="173.901" y2="158.448" gradientUnits="userSpaceOnUse">
<stop stop-color="#57D7FF"/>
<stop offset="0.395833" stop-color="#33A6D7"/>
<stop offset="1" stop-color="#459FF4"/>
</linearGradient>
<linearGradient id="paint30_linear_1326_9643" x1="35.5098" y1="232.017" x2="136.315" y2="232.017" gradientUnits="userSpaceOnUse">
<stop stop-color="#57D7FF"/>
<stop offset="0.395833" stop-color="#33A6D7"/>
<stop offset="1" stop-color="#459FF4"/>
</linearGradient>
<linearGradient id="paint31_linear_1326_9643" x1="38.5508" y1="218.38" x2="51.0564" y2="218.38" gradientUnits="userSpaceOnUse">
<stop stop-color="#57D7FF"/>
<stop offset="0.395833" stop-color="#33A6D7"/>
<stop offset="1" stop-color="#459FF4"/>
</linearGradient>
<linearGradient id="paint32_linear_1326_9643" x1="42.209" y1="224.376" x2="55.2673" y2="224.376" gradientUnits="userSpaceOnUse">
<stop stop-color="#57D7FF"/>
<stop offset="0.395833" stop-color="#33A6D7"/>
<stop offset="1" stop-color="#459FF4"/>
</linearGradient>
<linearGradient id="paint33_linear_1326_9643" x1="35.5098" y1="255.074" x2="127.402" y2="255.074" gradientUnits="userSpaceOnUse">
<stop stop-color="#57D7FF"/>
<stop offset="0.395833" stop-color="#33A6D7"/>
<stop offset="1" stop-color="#459FF4"/>
</linearGradient>
<linearGradient id="paint34_linear_1326_9643" x1="187.377" y1="223.195" x2="194.148" y2="223.195" gradientUnits="userSpaceOnUse">
<stop stop-color="#57D7FF"/>
<stop offset="0.395833" stop-color="#33A6D7"/>
<stop offset="1" stop-color="#459FF4"/>
</linearGradient>
<linearGradient id="paint35_linear_1326_9643" x1="186.132" y1="211.366" x2="194.147" y2="211.366" gradientUnits="userSpaceOnUse">
<stop stop-color="#57D7FF"/>
<stop offset="0.395833" stop-color="#33A6D7"/>
<stop offset="1" stop-color="#459FF4"/>
</linearGradient>
<linearGradient id="paint36_linear_1326_9643" x1="74.5459" y1="50.7662" x2="75.5459" y2="50.7662" gradientUnits="userSpaceOnUse">
<stop stop-color="#57D7FF"/>
<stop offset="0.395833" stop-color="#33A6D7"/>
<stop offset="1" stop-color="#459FF4"/>
</linearGradient>
<linearGradient id="paint37_linear_1326_9643" x1="113.794" y1="65.1791" x2="114.794" y2="65.1791" gradientUnits="userSpaceOnUse">
<stop stop-color="#57D7FF"/>
<stop offset="0.395833" stop-color="#33A6D7"/>
<stop offset="1" stop-color="#459FF4"/>
</linearGradient>
<linearGradient id="paint38_linear_1326_9643" x1="130.026" y1="57.3411" x2="152.689" y2="57.3411" gradientUnits="userSpaceOnUse">
<stop stop-color="#57D7FF"/>
<stop offset="0.395833" stop-color="#33A6D7"/>
<stop offset="1" stop-color="#459FF4"/>
</linearGradient>
<linearGradient id="paint39_linear_1326_9643" x1="62.1094" y1="39.4879" x2="82.3533" y2="39.4879" gradientUnits="userSpaceOnUse">
<stop stop-color="#57D7FF"/>
<stop offset="0.395833" stop-color="#33A6D7"/>
<stop offset="1" stop-color="#459FF4"/>
</linearGradient>
<linearGradient id="paint40_linear_1326_9643" x1="152.687" y1="55.3609" x2="164.406" y2="55.3609" gradientUnits="userSpaceOnUse">
<stop stop-color="#57D7FF"/>
<stop offset="0.395833" stop-color="#33A6D7"/>
<stop offset="1" stop-color="#459FF4"/>
</linearGradient>
<linearGradient id="paint41_linear_1326_9643" x1="56.7187" y1="54.7" x2="59.3442" y2="54.7" gradientUnits="userSpaceOnUse">
<stop stop-color="#57D7FF"/>
<stop offset="0.395833" stop-color="#33A6D7"/>
<stop offset="1" stop-color="#459FF4"/>
</linearGradient>
<linearGradient id="paint42_linear_1326_9643" x1="-100.813" y1="253.421" x2="35.575" y2="253.421" gradientUnits="userSpaceOnUse">
<stop stop-color="#57D7FF"/>
<stop offset="0.395833" stop-color="#33A6D7"/>
<stop offset="1" stop-color="#459FF4"/>
</linearGradient>
<linearGradient id="paint43_linear_1326_9643" x1="-100.813" y1="244.179" x2="37.855" y2="244.179" gradientUnits="userSpaceOnUse">
<stop stop-color="#57D7FF"/>
<stop offset="0.395833" stop-color="#33A6D7"/>
<stop offset="1" stop-color="#459FF4"/>
</linearGradient>
<linearGradient id="paint44_linear_1326_9643" x1="202.014" y1="241.527" x2="294.101" y2="241.527" gradientUnits="userSpaceOnUse">
<stop stop-color="#57D7FF"/>
<stop offset="0.395833" stop-color="#33A6D7"/>
<stop offset="1" stop-color="#459FF4"/>
</linearGradient>
<linearGradient id="paint45_linear_1326_9643" x1="209.583" y1="241.223" x2="285.371" y2="241.223" gradientUnits="userSpaceOnUse">
<stop stop-color="#57D7FF"/>
<stop offset="0.395833" stop-color="#33A6D7"/>
<stop offset="1" stop-color="#459FF4"/>
</linearGradient>
<linearGradient id="paint46_linear_1326_9643" x1="225.641" y1="216.342" x2="349.177" y2="216.342" gradientUnits="userSpaceOnUse">
<stop stop-color="#57D7FF"/>
<stop offset="0.395833" stop-color="#33A6D7"/>
<stop offset="1" stop-color="#459FF4"/>
</linearGradient>
<linearGradient id="paint47_linear_1326_9643" x1="189.518" y1="200.858" x2="206.1" y2="200.858" gradientUnits="userSpaceOnUse">
<stop stop-color="#57D7FF"/>
<stop offset="0.395833" stop-color="#33A6D7"/>
<stop offset="1" stop-color="#459FF4"/>
</linearGradient>
<linearGradient id="paint48_linear_1326_9643" x1="203.678" y1="187.03" x2="227.984" y2="187.03" gradientUnits="userSpaceOnUse">
<stop stop-color="#57D7FF"/>
<stop offset="0.395833" stop-color="#33A6D7"/>
<stop offset="1" stop-color="#459FF4"/>
</linearGradient>
<linearGradient id="paint49_linear_1326_9643" x1="207.611" y1="186.814" x2="222.536" y2="186.814" gradientUnits="userSpaceOnUse">
<stop stop-color="#57D7FF"/>
<stop offset="0.395833" stop-color="#33A6D7"/>
<stop offset="1" stop-color="#459FF4"/>
</linearGradient>
<linearGradient id="paint50_linear_1326_9643" x1="188.057" y1="173.38" x2="211.617" y2="173.38" gradientUnits="userSpaceOnUse">
<stop stop-color="#57D7FF"/>
<stop offset="0.395833" stop-color="#33A6D7"/>
<stop offset="1" stop-color="#459FF4"/>
</linearGradient>
<linearGradient id="paint51_linear_1326_9643" x1="188.617" y1="176.077" x2="201.883" y2="176.077" gradientUnits="userSpaceOnUse">
<stop stop-color="#57D7FF"/>
<stop offset="0.395833" stop-color="#33A6D7"/>
<stop offset="1" stop-color="#459FF4"/>
</linearGradient>
<linearGradient id="paint52_linear_1326_9643" x1="188.336" y1="179.186" x2="198.562" y2="179.186" gradientUnits="userSpaceOnUse">
<stop stop-color="#57D7FF"/>
<stop offset="0.395833" stop-color="#33A6D7"/>
<stop offset="1" stop-color="#459FF4"/>
</linearGradient>
<linearGradient id="paint53_linear_1326_9643" x1="189.518" y1="170.251" x2="309.745" y2="170.251" gradientUnits="userSpaceOnUse">
<stop stop-color="#57D7FF"/>
<stop offset="0.395833" stop-color="#33A6D7"/>
<stop offset="1" stop-color="#459FF4"/>
</linearGradient>
<linearGradient id="paint54_linear_1326_9643" x1="189.857" y1="177.122" x2="295.914" y2="177.122" gradientUnits="userSpaceOnUse">
<stop stop-color="#57D7FF"/>
<stop offset="0.395833" stop-color="#33A6D7"/>
<stop offset="1" stop-color="#459FF4"/>
</linearGradient>
<linearGradient id="paint55_linear_1326_9643" x1="197.114" y1="166.477" x2="309.803" y2="166.477" gradientUnits="userSpaceOnUse">
<stop stop-color="#57D7FF"/>
<stop offset="0.395833" stop-color="#33A6D7"/>
<stop offset="1" stop-color="#459FF4"/>
</linearGradient>
<linearGradient id="paint56_linear_1326_9643" x1="191.792" y1="150.75" x2="349.114" y2="150.75" gradientUnits="userSpaceOnUse">
<stop stop-color="#57D7FF"/>
<stop offset="0.395833" stop-color="#33A6D7"/>
<stop offset="1" stop-color="#459FF4"/>
</linearGradient>
<linearGradient id="paint57_linear_1326_9643" x1="11.4629" y1="73.5106" x2="38.616" y2="73.5106" gradientUnits="userSpaceOnUse">
<stop stop-color="#57D7FF"/>
<stop offset="0.395833" stop-color="#33A6D7"/>
<stop offset="1" stop-color="#459FF4"/>
</linearGradient>
<linearGradient id="paint58_linear_1326_9643" x1="11.4629" y1="66.4429" x2="39.3069" y2="66.4429" gradientUnits="userSpaceOnUse">
<stop stop-color="#57D7FF"/>
<stop offset="0.395833" stop-color="#33A6D7"/>
<stop offset="1" stop-color="#459FF4"/>
</linearGradient>
<linearGradient id="paint59_linear_1326_9643" x1="174.866" y1="66.9089" x2="187.648" y2="66.9089" gradientUnits="userSpaceOnUse">
<stop stop-color="#57D7FF"/>
<stop offset="0.395833" stop-color="#33A6D7"/>
<stop offset="1" stop-color="#459FF4"/>
</linearGradient>
<linearGradient id="paint60_linear_1326_9643" x1="211.48" y1="46.5849" x2="244.161" y2="46.5849" gradientUnits="userSpaceOnUse">
<stop stop-color="#57D7FF"/>
<stop offset="0.395833" stop-color="#33A6D7"/>
<stop offset="1" stop-color="#459FF4"/>
</linearGradient>
<linearGradient id="paint61_linear_1326_9643" x1="211.48" y1="70.1013" x2="212.48" y2="70.1013" gradientUnits="userSpaceOnUse">
<stop stop-color="#57D7FF"/>
<stop offset="0.395833" stop-color="#33A6D7"/>
<stop offset="1" stop-color="#459FF4"/>
</linearGradient>
<linearGradient id="paint62_linear_1326_9643" x1="222.773" y1="68.0787" x2="223.773" y2="68.0714" gradientUnits="userSpaceOnUse">
<stop stop-color="#57D7FF"/>
<stop offset="0.395833" stop-color="#33A6D7"/>
<stop offset="1" stop-color="#459FF4"/>
</linearGradient>
<linearGradient id="paint63_linear_1326_9643" x1="244.166" y1="57.3937" x2="245.166" y2="57.3937" gradientUnits="userSpaceOnUse">
<stop stop-color="#57D7FF"/>
<stop offset="0.395833" stop-color="#33A6D7"/>
<stop offset="1" stop-color="#459FF4"/>
</linearGradient>
<linearGradient id="paint64_linear_1326_9643" x1="228.412" y1="72.1648" x2="281.475" y2="72.1648" gradientUnits="userSpaceOnUse">
<stop stop-color="#57D7FF"/>
<stop offset="0.395833" stop-color="#33A6D7"/>
<stop offset="1" stop-color="#459FF4"/>
</linearGradient>
<linearGradient id="paint65_linear_1326_9643" x1="228.412" y1="95.7635" x2="229.412" y2="95.7635" gradientUnits="userSpaceOnUse">
<stop stop-color="#57D7FF"/>
<stop offset="0.395833" stop-color="#33A6D7"/>
<stop offset="1" stop-color="#459FF4"/>
</linearGradient>
<linearGradient id="paint66_linear_1326_9643" x1="243.055" y1="100.962" x2="244.055" y2="100.962" gradientUnits="userSpaceOnUse">
<stop stop-color="#57D7FF"/>
<stop offset="0.395833" stop-color="#33A6D7"/>
<stop offset="1" stop-color="#459FF4"/>
</linearGradient>
<linearGradient id="paint67_linear_1326_9643" x1="281.479" y1="77.0875" x2="282.479" y2="77.0875" gradientUnits="userSpaceOnUse">
<stop stop-color="#57D7FF"/>
<stop offset="0.395833" stop-color="#33A6D7"/>
<stop offset="1" stop-color="#459FF4"/>
</linearGradient>
<linearGradient id="paint68_linear_1326_9643" x1="248.449" y1="101.539" x2="290.112" y2="101.539" gradientUnits="userSpaceOnUse">
<stop stop-color="#57D7FF"/>
<stop offset="0.395833" stop-color="#33A6D7"/>
<stop offset="1" stop-color="#459FF4"/>
</linearGradient>
<linearGradient id="paint69_linear_1326_9643" x1="259.98" y1="142.08" x2="349.109" y2="142.08" gradientUnits="userSpaceOnUse">
<stop stop-color="#57D7FF"/>
<stop offset="0.395833" stop-color="#33A6D7"/>
<stop offset="1" stop-color="#459FF4"/>
</linearGradient>
<linearGradient id="paint70_linear_1326_9643" x1="302.197" y1="113.75" x2="303.197" y2="113.75" gradientUnits="userSpaceOnUse">
<stop stop-color="#57D7FF"/>
<stop offset="0.395833" stop-color="#33A6D7"/>
<stop offset="1" stop-color="#459FF4"/>
</linearGradient>
<linearGradient id="paint71_linear_1326_9643" x1="290.109" y1="82.4502" x2="340.685" y2="82.4502" gradientUnits="userSpaceOnUse">
<stop stop-color="#57D7FF"/>
<stop offset="0.395833" stop-color="#33A6D7"/>
<stop offset="1" stop-color="#459FF4"/>
</linearGradient>
<linearGradient id="paint72_linear_1326_9643" x1="340.687" y1="93.8113" x2="341.687" y2="93.8113" gradientUnits="userSpaceOnUse">
<stop stop-color="#57D7FF"/>
<stop offset="0.395833" stop-color="#33A6D7"/>
<stop offset="1" stop-color="#459FF4"/>
</linearGradient>
<linearGradient id="paint73_linear_1326_9643" x1="269.659" y1="106.545" x2="300.474" y2="106.545" gradientUnits="userSpaceOnUse">
<stop stop-color="#57D7FF"/>
<stop offset="0.395833" stop-color="#33A6D7"/>
<stop offset="1" stop-color="#459FF4"/>
</linearGradient>
<linearGradient id="paint74_linear_1326_9643" x1="282.444" y1="102.281" x2="290.114" y2="102.281" gradientUnits="userSpaceOnUse">
<stop stop-color="#57D7FF"/>
<stop offset="0.395833" stop-color="#33A6D7"/>
<stop offset="1" stop-color="#459FF4"/>
</linearGradient>
<linearGradient id="paint75_linear_1326_9643" x1="277.604" y1="110.755" x2="290.109" y2="110.755" gradientUnits="userSpaceOnUse">
<stop stop-color="#57D7FF"/>
<stop offset="0.395833" stop-color="#33A6D7"/>
<stop offset="1" stop-color="#459FF4"/>
</linearGradient>
<linearGradient id="paint76_linear_1326_9643" x1="280.711" y1="110.562" x2="293.009" y2="110.562" gradientUnits="userSpaceOnUse">
<stop stop-color="#57D7FF"/>
<stop offset="0.395833" stop-color="#33A6D7"/>
<stop offset="1" stop-color="#459FF4"/>
</linearGradient>
<linearGradient id="paint77_linear_1326_9643" x1="277.604" y1="131.959" x2="278.604" y2="131.959" gradientUnits="userSpaceOnUse">
<stop stop-color="#57D7FF"/>
<stop offset="0.395833" stop-color="#33A6D7"/>
<stop offset="1" stop-color="#459FF4"/>
</linearGradient>
<linearGradient id="paint78_linear_1326_9643" x1="287.278" y1="131.519" x2="288.278" y2="131.519" gradientUnits="userSpaceOnUse">
<stop stop-color="#57D7FF"/>
<stop offset="0.395833" stop-color="#33A6D7"/>
<stop offset="1" stop-color="#459FF4"/>
</linearGradient>
<linearGradient id="paint79_linear_1326_9643" x1="300.469" y1="122.745" x2="301.469" y2="122.745" gradientUnits="userSpaceOnUse">
<stop stop-color="#57D7FF"/>
<stop offset="0.395833" stop-color="#33A6D7"/>
<stop offset="1" stop-color="#459FF4"/>
</linearGradient>
<linearGradient id="paint80_linear_1326_9643" x1="264.336" y1="115.568" x2="274.216" y2="115.568" gradientUnits="userSpaceOnUse">
<stop stop-color="#57D7FF"/>
<stop offset="0.395833" stop-color="#33A6D7"/>
<stop offset="1" stop-color="#459FF4"/>
</linearGradient>
<linearGradient id="paint81_linear_1326_9643" x1="264.336" y1="120.627" x2="274.216" y2="120.627" gradientUnits="userSpaceOnUse">
<stop stop-color="#57D7FF"/>
<stop offset="0.395833" stop-color="#33A6D7"/>
<stop offset="1" stop-color="#459FF4"/>
</linearGradient>
<linearGradient id="paint82_linear_1326_9643" x1="264.336" y1="125.634" x2="274.216" y2="125.634" gradientUnits="userSpaceOnUse">
<stop stop-color="#57D7FF"/>
<stop offset="0.395833" stop-color="#33A6D7"/>
<stop offset="1" stop-color="#459FF4"/>
</linearGradient>
<linearGradient id="paint83_linear_1326_9643" x1="192.826" y1="107.526" x2="260.195" y2="107.526" gradientUnits="userSpaceOnUse">
<stop stop-color="#57D7FF"/>
<stop offset="0.395833" stop-color="#33A6D7"/>
<stop offset="1" stop-color="#459FF4"/>
</linearGradient>
<linearGradient id="paint84_linear_1326_9643" x1="192.349" y1="114.339" x2="208.713" y2="114.339" gradientUnits="userSpaceOnUse">
<stop stop-color="#57D7FF"/>
<stop offset="0.395833" stop-color="#33A6D7"/>
<stop offset="1" stop-color="#459FF4"/>
</linearGradient>
<linearGradient id="paint85_linear_1326_9643" x1="208.576" y1="125.264" x2="243.922" y2="125.264" gradientUnits="userSpaceOnUse">
<stop stop-color="#57D7FF"/>
<stop offset="0.395833" stop-color="#33A6D7"/>
<stop offset="1" stop-color="#459FF4"/>
</linearGradient>
<linearGradient id="paint86_linear_1326_9643" x1="288.864" y1="154.178" x2="314.29" y2="154.178" gradientUnits="userSpaceOnUse">
<stop stop-color="#57D7FF"/>
<stop offset="0.395833" stop-color="#33A6D7"/>
<stop offset="1" stop-color="#459FF4"/>
</linearGradient>
<linearGradient id="paint87_linear_1326_9643" x1="2.41406" y1="184.992" x2="41.451" y2="184.992" gradientUnits="userSpaceOnUse">
<stop stop-color="#57D7FF"/>
<stop offset="0.395833" stop-color="#33A6D7"/>
<stop offset="1" stop-color="#459FF4"/>
</linearGradient>
<linearGradient id="paint88_linear_1326_9643" x1="265.641" y1="25.3065" x2="265.06" y2="3.54491" gradientUnits="userSpaceOnUse">
<stop stop-color="#31FFF9"/>
<stop offset="1" stop-color="#39BDFF"/>
</linearGradient>
<clipPath id="clip0_1326_9643">
<path d="M0 -25H367V242.098C367 252.537 358.537 261 348.098 261H0V-25Z" fill="white"/>
</clipPath>
</defs>
</svg>
