<svg width="25" height="26" viewBox="0 0 25 26" fill="none" xmlns="http://www.w3.org/2000/svg">
<path d="M24.2188 21.5938H13.2812C12.85 21.5938 12.5 21.2453 12.5 20.8125C12.5 20.3797 12.5 5.61875 12.5 5.1875C12.5 4.75625 12.85 4.40625 13.2812 4.40625H24.2188C24.65 4.40625 25 4.75625 25 5.1875V20.8125C25 21.2453 24.65 21.5938 24.2188 21.5938Z" fill="#F0F2FF"/>
<path d="M21.0938 9.09375H13.2812C12.85 9.09375 12.5 8.74531 12.5 8.3125C12.5 7.87969 12.85 7.53125 13.2812 7.53125H21.0938C21.525 7.53125 21.875 7.88125 21.875 8.3125C21.875 8.74375 21.525 9.09375 21.0938 9.09375Z" fill="#1976D2"/>
<path d="M21.0938 12.2188H13.2812C12.85 12.2188 12.5 11.8703 12.5 11.4375C12.5 11.0047 12.85 10.6562 13.2812 10.6562H21.0938C21.525 10.6562 21.875 11.0063 21.875 11.4375C21.875 11.8687 21.525 12.2188 21.0938 12.2188Z" fill="#1976D2"/>
<path d="M21.0938 15.3438H13.2812C12.85 15.3438 12.5 14.9953 12.5 14.5625C12.5 14.1297 12.85 13.7812 13.2812 13.7812H21.0938C21.525 13.7812 21.875 14.1313 21.875 14.5625C21.875 14.9937 21.525 15.3438 21.0938 15.3438Z" fill="#1976D2"/>
<path d="M21.0938 18.4688H13.2812C12.85 18.4688 12.5 18.1203 12.5 17.6875C12.5 17.2547 12.85 16.9062 13.2812 16.9062H21.0938C21.525 16.9062 21.875 17.2563 21.875 17.6875C21.875 18.1187 21.525 18.4688 21.0938 18.4688Z" fill="#1976D2"/>
<path d="M13.7797 1.46292C13.6016 1.31292 13.3625 1.25042 13.1375 1.29573L0.6375 3.63948C0.26875 3.70823 0 4.03167 0 4.40667V21.5942C0 21.9692 0.267187 22.2926 0.6375 22.3614L13.1375 24.7051C13.1859 24.7145 13.2328 24.7192 13.2812 24.7192C13.4625 24.7192 13.6391 24.6567 13.7797 24.5395C13.9594 24.391 14.0625 24.1707 14.0625 23.9379V2.06292C14.0625 1.8301 13.9594 1.61135 13.7797 1.46292Z" fill="#1565C0"/>
<path d="M10.1516 16.9941C10.1109 17.3519 9.82968 17.6378 9.47187 17.6816C9.43906 17.6863 9.40781 17.6878 9.375 17.6878C9.05312 17.6878 8.75937 17.4878 8.64375 17.1816L7.03125 12.8816L5.41875 17.1816C5.29375 17.5159 4.96562 17.7206 4.60312 17.6831C4.24843 17.6456 3.96406 17.3706 3.91406 17.0159L3.13281 11.5472C3.07187 11.1222 3.36875 10.7253 3.79531 10.6644C4.22343 10.6019 4.61875 10.9003 4.67968 11.3269L5.02812 13.7706L6.29843 10.3816C6.52656 9.7722 7.53281 9.7722 7.7625 10.3816L8.95937 13.5722L9.37968 9.78782C9.42812 9.3597 9.825 9.05189 10.2422 9.0972C10.6719 9.1472 10.9797 9.53314 10.9328 9.96126L10.1516 16.9941Z" fill="#FAFAFA"/>
</svg>
