<svg width="25" height="26" viewBox="0 0 25 26" fill="none" xmlns="http://www.w3.org/2000/svg">
<path d="M24.2188 21.5945H13.2812C12.85 21.5945 12.5 21.2461 12.5 20.8133C12.5 20.3805 12.5 5.61951 12.5 5.18826C12.5 4.75701 12.85 4.40701 13.2812 4.40701H24.2188C24.65 4.40701 25 4.75701 25 5.18826V20.8133C25 21.2461 24.65 21.5945 24.2188 21.5945Z" fill="#F0F2FF"/>
<path d="M21.0938 9.09451H13.2812C12.85 9.09451 12.5 8.74608 12.5 8.31326C12.5 7.88045 12.85 7.53201 13.2812 7.53201H21.0938C21.525 7.53201 21.875 7.88201 21.875 8.31326C21.875 8.74451 21.525 9.09451 21.0938 9.09451Z" fill="#1976D2"/>
<path d="M21.0938 12.2195H13.2812C12.85 12.2195 12.5 11.8711 12.5 11.4383C12.5 11.0055 12.85 10.657 13.2812 10.657H21.0938C21.525 10.657 21.875 11.007 21.875 11.4383C21.875 11.8695 21.525 12.2195 21.0938 12.2195Z" fill="#1976D2"/>
<path d="M21.0938 15.3445H13.2812C12.85 15.3445 12.5 14.9961 12.5 14.5633C12.5 14.1305 12.85 13.782 13.2812 13.782H21.0938C21.525 13.782 21.875 14.132 21.875 14.5633C21.875 14.9945 21.525 15.3445 21.0938 15.3445Z" fill="#1976D2"/>
<path d="M21.0938 18.4695H13.2812C12.85 18.4695 12.5 18.1211 12.5 17.6883C12.5 17.2555 12.85 16.907 13.2812 16.907H21.0938C21.525 16.907 21.875 17.257 21.875 17.6883C21.875 18.1195 21.525 18.4695 21.0938 18.4695Z" fill="#1976D2"/>
<path d="M13.7797 1.46327C13.6016 1.31327 13.3625 1.25077 13.1375 1.29608L0.6375 3.63983C0.26875 3.70858 0 4.03202 0 4.40702V21.5945C0 21.9695 0.267187 22.293 0.6375 22.3617L13.1375 24.7055C13.1859 24.7148 13.2328 24.7195 13.2812 24.7195C13.4625 24.7195 13.6391 24.657 13.7797 24.5398C13.9594 24.3914 14.0625 24.1711 14.0625 23.9383V2.06327C14.0625 1.83045 13.9594 1.6117 13.7797 1.46327Z" fill="#1565C0"/>
<path d="M10.1517 16.9945C10.1111 17.3523 9.8298 17.6383 9.47199 17.682C9.43918 17.6867 9.40793 17.6883 9.37512 17.6883C9.05324 17.6883 8.75949 17.4883 8.64387 17.182L7.03137 12.882L5.41887 17.182C5.29387 17.5164 4.96574 17.7211 4.60324 17.6836C4.24856 17.6461 3.96418 17.3711 3.91418 17.0164L3.13293 11.5476C3.07199 11.1226 3.36887 10.7258 3.79543 10.6648C4.22355 10.6023 4.61887 10.9008 4.6798 11.3273L5.02824 13.7711L6.29856 10.382C6.52668 9.77264 7.53293 9.77264 7.76262 10.382L8.95949 13.5726L9.3798 9.78827C9.42824 9.36014 9.82512 9.05233 10.2423 9.09764C10.672 9.14764 10.9798 9.53358 10.9329 9.9617L10.1517 16.9945Z" fill="#FAFAFA"/>
</svg>
