<svg width="24" height="24" viewBox="0 0 24 24" fill="none" xmlns="http://www.w3.org/2000/svg">
<path d="M18.1399 21.6198C17.2599 21.8798 16.2199 21.9998 14.9999 21.9998H8.99986C7.77986 21.9998 6.73986 21.8798 5.85986 21.6198C6.07986 19.0198 8.74986 16.9697 11.9999 16.9697C15.2499 16.9697 17.9199 19.0198 18.1399 21.6198Z" stroke="#99A2B1" stroke-width="1.5" stroke-linecap="round" stroke-linejoin="round"/>
<path d="M15 2H9C4 2 2 4 2 9V15C2 18.78 3.14 20.85 5.86 21.62C6.08 19.02 8.75 16.97 12 16.97C15.25 16.97 17.92 19.02 18.14 21.62C20.86 20.85 22 18.78 22 15V9C22 4 20 2 15 2ZM12 16.17C10.02 16.17 8.42 14.56 8.42 12.58C8.42 10.6 10.02 9 12 9C13.98 9 15.58 10.6 15.58 12.58C15.58 14.56 13.98 16.17 12 16.17Z" stroke="#99A2B1" stroke-width="1.5" stroke-linecap="round" stroke-linejoin="round"/>
</svg>
