src/assets/icon/award.svg<svg width="24" height="24" viewBox="0 0 24 24" fill="none" xmlns="http://www.w3.org/2000/svg">
<path d="M11 13.5C13.7614 13.5 16 11.3734 16 8.75C16 6.12665 13.7614 4 11 4C8.23858 4 6 6.12665 6 8.75C6 11.3734 8.23858 13.5 11 13.5Z" fill="#99A2B1"/>
<path d="M4.45459 20.875H17.5492C19.5036 20.875 20.6763 18.7009 19.5769 17.0824C17.9157 14.6426 14.6909 13 11.0019 13C7.31293 13 4.08813 14.6426 2.42688 17.0824C1.32751 18.7009 2.47574 20.875 4.45459 20.875Z" fill="#99A2B1"/>
<path fill-rule="evenodd" clip-rule="evenodd" d="M23.5634 7.5049C23.8368 7.81603 23.8062 8.28992 23.4951 8.56336L20.0816 11.5634C19.7901 11.8196 19.3512 11.811 19.0699 11.5437L17.4834 10.0361C17.1831 9.75073 17.171 9.27601 17.4563 8.97575C17.7417 8.67548 18.2164 8.66338 18.5166 8.94871L19.6063 9.98416L22.5049 7.43666C22.816 7.16322 23.2899 7.19377 23.5634 7.5049Z" fill="#99A2B1"/>
</svg>
