<svg width="28" height="28" viewBox="0 0 28 28" fill="none" xmlns="http://www.w3.org/2000/svg">
<path d="M21.8608 9.34165V11.7873C21.3484 11.7174 20.7661 11.6825 20.1139 11.6708V9.34165C20.1139 5.67321 19.0774 3.22759 13.9999 3.22759C8.92227 3.22759 7.88579 5.67321 7.88579 9.34165V11.6708C7.23362 11.6825 6.65133 11.7174 6.13892 11.7873V9.34165C6.13892 5.96436 6.95412 1.48071 13.9999 1.48071C21.0456 1.48071 21.8608 5.96436 21.8608 9.34165Z" fill="white"/>
<path d="M21.8608 11.7871C21.3484 11.7172 20.7661 11.6823 20.1139 11.6707H7.88578C7.23361 11.6823 6.65132 11.7172 6.1389 11.7871C3.16921 12.1481 2.354 13.6039 2.354 17.4936V19.8227C2.354 24.4811 3.51859 25.6457 8.17692 25.6457H19.8228C24.4811 25.6457 25.6457 24.4811 25.6457 19.8227V17.4936C25.6457 13.6039 24.8305 12.1481 21.8608 11.7871ZM10.1684 19.485C9.94709 19.6946 9.6443 19.8227 9.3415 19.8227C9.19011 19.8227 9.03871 19.7878 8.89896 19.7296C8.74757 19.6713 8.63111 19.5898 8.51465 19.485C8.30503 19.2637 8.17692 18.9609 8.17692 18.6582C8.17692 18.5068 8.21186 18.3554 8.27009 18.2156C8.32832 18.0759 8.40984 17.9478 8.51465 17.8313C8.63111 17.7265 8.74757 17.645 8.89896 17.5867C9.32986 17.4004 9.84228 17.5052 10.1684 17.8313C10.2732 17.9478 10.3547 18.0759 10.4129 18.2156C10.4712 18.3554 10.5061 18.5068 10.5061 18.6582C10.5061 18.9609 10.378 19.2637 10.1684 19.485ZM15.0713 19.1007C15.013 19.2404 14.9315 19.3685 14.8267 19.485C14.6054 19.6946 14.3026 19.8227 13.9998 19.8227C13.6854 19.8227 13.3943 19.6946 13.173 19.485C13.0682 19.3685 12.9867 19.2404 12.9284 19.1007C12.8702 18.9609 12.8353 18.8096 12.8353 18.6582C12.8353 18.3437 12.9634 18.0526 13.173 17.8313C13.6039 17.4004 14.3842 17.4004 14.8267 17.8313C15.0363 18.0526 15.1644 18.3437 15.1644 18.6582C15.1644 18.8096 15.1295 18.9609 15.0713 19.1007ZM19.485 19.485C19.2638 19.6946 18.961 19.8227 18.6582 19.8227C18.3554 19.8227 18.0526 19.6946 17.8313 19.485C17.6217 19.2637 17.4936 18.9726 17.4936 18.6582C17.4936 18.3437 17.6217 18.0526 17.8313 17.8313C18.2739 17.4004 19.0541 17.4004 19.485 17.8313C19.5316 17.8895 19.5782 17.9478 19.6248 18.0176C19.6714 18.0759 19.7063 18.1457 19.7296 18.2156C19.7645 18.2855 19.7878 18.3554 19.7995 18.4252C19.8111 18.5068 19.8228 18.5883 19.8228 18.6582C19.8228 18.9609 19.6947 19.2637 19.485 19.485Z" fill="white"/>
</svg>
